<?xml version="1.0" encoding="utf-8"?>
<COLLADA xmlns="http://www.collada.org/2005/11/COLLADASchema" version="1.4.1" xmlns:xsi="http://www.w3.org/2001/XMLSchema-instance">
  <asset>
    <contributor>
      <author>Blender User</author>
      <authoring_tool>Blender 2.79.0 commit date:2018-03-22, commit time:14:10, hash:f4dc9f9d68b</authoring_tool>
    </contributor>
    <created>2022-10-04T15:46:07</created>
    <modified>2022-10-04T15:46:07</modified>
    <unit name="meter" meter="1"/>
    <up_axis>Z_UP</up_axis>
  </asset>
  <library_images/>
  <library_effects>
    <effect id="Fighter-effect">
      <profile_COMMON>
        <technique sid="common">
          <phong>
            <emission>
              <color sid="emission">0 0 0 1</color>
            </emission>
            <ambient>
              <color sid="ambient">0 0 0 1</color>
            </ambient>
            <diffuse>
              <color sid="diffuse">0.64 0.64 0.64 1</color>
            </diffuse>
            <specular>
              <color sid="specular">0.5 0.5 0.5 1</color>
            </specular>
            <shininess>
              <float sid="shininess">50</float>
            </shininess>
            <index_of_refraction>
              <float sid="index_of_refraction">1</float>
            </index_of_refraction>
          </phong>
        </technique>
      </profile_COMMON>
    </effect>
  </library_effects>
  <library_materials>
    <material id="Fighter-material" name="Fighter">
      <instance_effect url="#Fighter-effect"/>
    </material>
  </library_materials>
  <library_geometries>
    <geometry id="trillarian_fighter_mapped_0-mesh" name="trillarian fighter mapped_0">
      <mesh>
        <source id="trillarian_fighter_mapped_0-mesh-positions">
          <float_array id="trillarian_fighter_mapped_0-mesh-positions-array" count="1062">-0.01048272 4.346639 0.3457071 -0.01048278 4.468689 1.602216 1.012773 4.209289 1.537632 -0.01048272 3.772606 2.871274 1.06305 3.575636 2.658959 0.9479665 2.589346 3.205587 -0.0104826 2.547772 3.436379 0.7736623 1.492298 3.263431 1.484398 1.599061 2.875346 1.53813 2.42606 2.806979 2.117046 2.069802 1.901542 1.779381 2.949006 2.325791 2.062771 2.949187 0.7809947 1.741319 3.582607 1.402386 1.475592 3.770461 0.4520109 -0.01048249 1.448958 3.402388 4.704083 3.982945 -0.6121133 2.503474 3.194203 0.19199 4.076902 2.17598 0.4395423 2.871893 0.8544365 1.007404 2.52662 2.3641 0.8539581 2.062771 2.949187 0.7809947 5.38804 0.3845113 0.3189901 4.766479 -1.793685 0.4334188 2.378374 1.71383 1.779749 1.759513 -1.628454 1.393988 1.475592 3.770461 0.4520109 1.754621 4.114577 -0.1553842 -0.01048272 4.346639 0.3457071 -0.01048278 4.630284 -0.260003 0.9790652 5.797451 -0.6451143 -0.01048284 5.501033 -0.5761011 2.87859 5.409516 -0.5917097 1.988822 6.352614 -0.5870159 1.306473 6.785604 -0.5927028 1.904418 6.897225 -0.5936709 1.40633 -1.265316 2.427071 0.9760861 -2.346292 2.079053 0.835873 -3.101862 1.111768 3.204535 -2.920823 0.6114932 1.174258 -5.114661 0.5176562 4.038229 -4.722544 0.266861 4.836075 -4.332388 0.07950747 7.189167 -2.636571 -0.1437271 6.262687 -4.498963 -0.2290722 8.927913 -3.245793 -0.6871136 8.35884 -0.4888364 -0.7393739 8.594238 -5.494613 -0.6176803 3.222383 -6.126456 0.3661078 1.663591 -7.057957 0.4618169 2.837671 -7.644999 0.4563842 0.3560763 -4.552044 0.38034 0.3772346 -3.315651 1.031713 0.2783182 -2.666556 2.235693 0.2238103 -1.296382 3.120213 0.8102218 1.117052 3.47908 1.710973 1.264283 2.916315 2.117046 2.069802 1.901542 1.484398 1.599061 2.875346 0.7736623 1.492298 3.263431 -0.01048249 1.448958 3.402388 -0.01048249 1.112449 3.612617 -0.01048219 -1.91519 2.72074 -0.01048213 -2.666556 2.235693 -0.01048249 1.094292 3.609195 -0.01048225 -1.296382 3.120213 -0.01048213 -2.945596 1.718114 -0.01048207 -3.315651 1.031713 -0.01048201 -3.954009 0.6954048 -0.01048195 -4.552044 0.38034 7.448079 1.213569 -0.6375504 5.956473 -0.8073221 -1.662621 7.456033 1.209925 -1.012334 8.37329 -0.5302708 -1.04075 6.361957 -3.017818 -1.35768 8.943435 -3.32392 -1.042166 6.143323 -4.363574 -0.7345848 8.62967 -5.41255 -0.9292312 4.726025 -4.251732 -0.7253955 4.180147 -3.16989 -1.114053 3.825588 -4.831765 -0.5360301 2.213423 -3.893655 -1.152448 3.009762 -6.011023 -0.5130391 3.416636 -1.064329 -1.761821 3.487716 2.395578 -1.66607 1.390803 -1.283615 -1.913914 1.265142 3.205911 -1.774063 3.122363 5.161069 -1.046367 4.729004 3.990938 -1.046378 -0.01048231 -0.8731724 -2.125976 -0.01048266 3.223868 -1.835216 -0.01048284 5.549233 -0.9813302 -0.01048207 -3.338016 -1.433637 -0.01048231 -0.8793724 -2.126197 1.044597 -5.248431 -0.8556272 0.4079844 -4.625332 -0.9703516 -0.01048207 -3.341068 -1.432804 1.504384 -6.718788 -0.7619954 0.9588388 5.870931 -0.9713487 2.146659 6.300874 -1.061698 1.233453 6.754185 -0.9473766 1.972896 6.875119 -1.042204 1.92742 7.596959 -1.077201 1.438799 7.845941 -1.038407 -0.01048207 -3.34606 -1.43107 -0.01048195 -4.625332 -0.9703516 2.698588 -7.500141 -0.5080463 2.4903 -11.15069 -0.2301765 1.781949 -12.72083 -0.02550727 2.438524 -12.82871 -0.04169827 1.917976 -13.53497 0.6630176 2.505016 -13.55454 0.662066 -0.01048284 5.501033 -0.5761011 0.9790652 5.797451 -0.6451143 -0.01048284 5.549233 -0.9813302 0.9588388 5.870931 -0.9713487 0.9588388 5.870931 -0.9713487 0.9790652 5.797451 -0.6451143 1.233453 6.754185 -0.9473766 1.306473 6.785604 -0.5927028 1.438799 7.845941 -1.038407 1.496701 7.856416 -0.6227281 1.988822 6.352614 -0.5870159 2.87859 5.409516 -0.5917097 2.146659 6.300874 -1.061698 3.122363 5.161069 -1.046367 1.972896 6.875119 -1.042204 1.904418 6.897225 -0.5936709 4.704083 3.982945 -0.6121133 4.729004 3.990938 -1.046378 7.456033 1.209925 -1.012334 7.448079 1.213569 -0.6375504 8.35884 -0.4888364 -0.7393739 8.37329 -0.5302708 -1.04075 8.927913 -3.245793 -0.6871136 8.943435 -3.32392 -1.042166 8.62967 -5.41255 -0.9292312 8.594238 -5.494613 -0.6176803 1.909964 7.603804 -0.6212249 1.92742 7.596959 -1.077201 8.594238 -5.494613 -0.6176803 6.262687 -4.498963 -0.2290722 8.62967 -5.41255 -0.9292312 6.143323 -4.363574 -0.7345848 4.836075 -4.332388 0.07950747 4.726025 -4.251732 -0.7253955 3.825588 -4.831765 -0.5360301 4.038229 -4.722544 0.266861 3.222383 -6.126456 0.3661078 3.009762 -6.011023 -0.5130391 2.698588 -7.500141 -0.5080463 2.837671 -7.644999 0.4563842 2.4903 -11.15069 -0.2301765 2.524584 -11.42163 0.5803287 2.438524 -12.82871 -0.04169827 2.505016 -13.55454 0.662066 1.044597 -5.248431 -0.8556272 1.504384 -6.718788 -0.7619954 1.174258 -5.114661 0.5176562 1.663591 -7.057957 0.4618169 0.3560763 -4.552044 0.38034 0.4079844 -4.625332 -0.9703516 1.898408 -11.36292 0.5572185 1.781949 -12.72083 -0.02550727 1.917976 -13.53497 0.6630176 -0.01048195 -4.625332 -0.9703516 -0.01048195 -4.552044 0.38034 1.909964 7.603804 -0.6212249 1.496701 7.856416 -0.6227281 1.496701 7.856416 -0.6227281 1.909964 7.603804 -0.6212249 1.438799 7.845941 -1.038407 1.92742 7.596959 -1.077201 2.524584 -11.42163 0.5803287 1.898408 -11.36292 0.5572185 1.917976 -13.53497 0.6630176 2.505016 -13.55454 0.662066 -1.03374 4.209289 1.537632 -0.01048278 4.468689 1.602216 -0.01048272 4.346639 0.3457071 -0.01048272 3.772606 2.871274 -1.084016 3.575636 2.658959 -0.9689316 2.589346 3.205587 -0.0104826 2.547772 3.436379 -0.7946279 1.492298 3.263431 -1.505363 1.59906 2.875346 -1.559095 2.42606 2.806979 -2.138011 2.069802 1.901542 -1.800347 2.949005 2.325791 -2.083736 2.949187 0.7809947 -1.762284 3.582607 1.402386 -1.496558 3.770461 0.4520109 -0.01048249 1.448958 3.402388 -4.097867 2.17598 0.4395423 -2.52444 3.194202 0.19199 -4.725049 3.982945 -0.6121133 -2.892858 0.854436 1.007404 -2.547585 2.3641 0.8539581 -2.083736 2.949187 0.7809947 -5.409006 0.3845103 0.3189901 -4.787443 -1.793686 0.4334188 -2.399339 1.71383 1.779749 -1.780478 -1.628454 1.393988 -1.496558 3.770461 0.4520109 -1.775587 4.114576 -0.1553842 -0.01048272 4.346639 0.3457071 -0.01048278 4.630284 -0.260003 -1.000031 5.797451 -0.6451143 -0.01048284 5.501033 -0.5761011 -2.899557 5.409516 -0.5917097 -2.009788 6.352614 -0.5870159 -1.32744 6.785604 -0.5927028 -1.925384 6.897225 -0.5936709 -1.427295 -1.265316 2.427071 -0.9970504 -2.346292 2.079053 -0.856837 -3.101862 1.111768 -3.2255 -2.920824 0.6114932 -1.195222 -5.114661 0.5176562 -4.059193 -4.722545 0.266861 -4.85704 -4.332389 0.07950747 -7.210138 -2.636572 -0.1437271 -6.283652 -4.498964 -0.2290722 -8.948877 -3.245795 -0.6871136 -8.379811 -0.4888378 -0.7393739 -8.6152 -5.494614 -0.6176803 -3.243346 -6.126456 0.3661078 -1.684554 -7.057957 0.4618169 -2.858635 -7.644999 0.4563842 -0.3770403 -4.552044 0.38034 -0.3981989 -3.315651 1.031713 -0.2992826 -2.666556 2.235693 -0.01048213 -2.945596 1.718114 -0.01048207 -3.315651 1.031713 -0.01048201 -3.954009 0.6954048 -0.01048195 -4.552044 0.38034 -1.91937 -11.36292 0.5572185 -2.545546 -11.42163 0.5803287 -1.938938 -13.53497 0.6630176 -2.525978 -13.55454 0.662066 -0.01048213 -2.666556 2.235693 -0.01048219 -1.91519 2.72074 -0.2447749 -1.296382 3.120213 -0.8311866 1.117052 3.47908 -1.731938 1.264282 2.916315 -2.138011 2.069802 1.901542 -1.505363 1.59906 2.875346 -0.7946279 1.492298 3.263431 -0.01048249 1.448958 3.402388 -0.01048249 1.112449 3.612617 -0.01048249 1.094292 3.609195 -0.01048225 -1.296382 3.120213 -7.469043 1.213568 -0.6375504 -8.394253 -0.5302722 -1.04075 -7.476997 1.209924 -1.012334 -5.977438 -0.8073232 -1.662621 -6.382923 -3.017819 -1.35768 -8.964406 -3.323921 -1.042166 -6.164288 -4.363575 -0.7345848 -8.650632 -5.412551 -0.9292312 -4.746989 -4.251732 -0.7253955 -4.201111 -3.169891 -1.114053 -3.846552 -4.831766 -0.5360301 -2.234387 -3.893655 -1.152448 -3.030726 -6.011023 -0.5130391 -3.4376 -1.064329 -1.761821 -3.508681 2.395578 -1.66607 -1.411767 -1.283615 -1.913914 -1.286108 3.205911 -1.774063 -3.143328 5.161069 -1.046367 -4.749969 3.990937 -1.046378 -0.01048231 -0.8731724 -2.125976 -0.01048266 3.223868 -1.835216 -0.01048284 5.549233 -0.9813302 -0.01048207 -3.338016 -1.433637 -0.01048231 -0.8793724 -2.126197 -1.065561 -5.248431 -0.8556272 -0.4289484 -4.625332 -0.9703516 -0.01048207 -3.341068 -1.432804 -1.525347 -6.718788 -0.7619954 -0.9798052 5.870931 -0.9713487 -2.167625 6.300874 -1.061698 -1.254419 6.754185 -0.9473766 -1.993862 6.875119 -1.042204 -1.948387 7.596959 -1.077201 -1.459765 7.845941 -1.038407 -0.01048207 -3.34606 -1.43107 -0.01048195 -4.625332 -0.9703516 -2.719552 -7.500141 -0.5080463 -2.511263 -11.15069 -0.2301765 -1.802912 -12.72083 -0.02550727 -2.459486 -12.82871 -0.04169827 -1.938938 -13.53497 0.6630176 -2.525978 -13.55454 0.662066 -0.9798052 5.870931 -0.9713487 -1.000031 5.797451 -0.6451143 -0.01048284 5.549233 -0.9813302 -0.01048284 5.501033 -0.5761011 -1.32744 6.785604 -0.5927028 -1.000031 5.797451 -0.6451143 -1.254419 6.754185 -0.9473766 -0.9798052 5.870931 -0.9713487 -1.459765 7.845941 -1.038407 -1.517667 7.856416 -0.6227281 -3.143328 5.161069 -1.046367 -2.899557 5.409516 -0.5917097 -2.167625 6.300874 -1.061698 -2.009788 6.352614 -0.5870159 -1.993862 6.875119 -1.042204 -1.925384 6.897225 -0.5936709 -4.725049 3.982945 -0.6121133 -4.749969 3.990937 -1.046378 -7.469043 1.213568 -0.6375504 -7.476997 1.209924 -1.012334 -8.379811 -0.4888378 -0.7393739 -8.394253 -0.5302722 -1.04075 -8.948877 -3.245795 -0.6871136 -8.964406 -3.323921 -1.042166 -8.650632 -5.412551 -0.9292312 -8.6152 -5.494614 -0.6176803 -1.93093 7.603804 -0.6212249 -1.948387 7.596959 -1.077201 -6.164288 -4.363575 -0.7345848 -6.283652 -4.498964 -0.2290722 -8.650632 -5.412551 -0.9292312 -8.6152 -5.494614 -0.6176803 -4.85704 -4.332389 0.07950747 -4.746989 -4.251732 -0.7253955 -3.846552 -4.831766 -0.5360301 -4.059193 -4.722545 0.266861 -3.243346 -6.126456 0.3661078 -3.030726 -6.011023 -0.5130391 -2.719552 -7.500141 -0.5080463 -2.858635 -7.644999 0.4563842 -2.511263 -11.15069 -0.2301765 -2.545546 -11.42163 0.5803287 -2.459486 -12.82871 -0.04169827 -2.525978 -13.55454 0.662066 -1.684554 -7.057957 0.4618169 -1.525347 -6.718788 -0.7619954 -1.195222 -5.114661 0.5176562 -1.065561 -5.248431 -0.8556272 -0.3770403 -4.552044 0.38034 -0.4289484 -4.625332 -0.9703516 -1.91937 -11.36292 0.5572185 -1.802912 -12.72083 -0.02550727 -1.938938 -13.53497 0.6630176 -0.01048195 -4.625332 -0.9703516 -0.01048195 -4.552044 0.38034 -1.517667 7.856416 -0.6227281 -1.93093 7.603804 -0.6212249 -1.948387 7.596959 -1.077201 -1.93093 7.603804 -0.6212249 -1.459765 7.845941 -1.038407 -1.517667 7.856416 -0.6227281</float_array>
          <technique_common>
            <accessor source="#trillarian_fighter_mapped_0-mesh-positions-array" count="354" stride="3">
              <param name="X" type="float"/>
              <param name="Y" type="float"/>
              <param name="Z" type="float"/>
            </accessor>
          </technique_common>
        </source>
        <source id="trillarian_fighter_mapped_0-mesh-normals">
          <float_array id="trillarian_fighter_mapped_0-mesh-normals-array" count="1059">2.39909e-5 0.986504 -0.1637375 -5.96046e-7 0.979206 0.2028687 0.4458116 0.8809984 0.1584104 2.25455e-5 0.6902317 0.7235884 0.4678587 0.6198908 0.6299552 0.3989768 0.2171366 0.8908812 2.20388e-5 0.2006757 0.9796578 0.3225337 -0.01882606 0.9463708 0.6526443 -0.008694887 0.7576147 0.7099419 0.1375674 0.6906937 0.9181008 0.1586028 0.3632302 0.8208864 0.3485821 0.4523673 0.9128881 0.405053 0.05067068 0.8034194 0.5800699 0.1342986 0.618304 0.774208 -0.1352858 2.1779e-5 -0.03091776 0.999522 0.2705457 0.3659803 0.8904289 0.3362939 0.465626 0.8185958 0.2393361 0.31375 0.9188466 0.5295445 0.04469031 0.8471043 0.8333747 0.3932068 0.3884263 0.5709841 0.5742071 0.5867397 0.308139 0.0894944 0.9471226 0.2386374 -0.07803606 0.9679684 0.8553169 0.1670684 0.4904297 0.606761 -0.3024441 0.7350977 0.3953954 0.7037692 0.59023 0.1655578 0.5150877 0.8409967 -1.33328e-5 0.8866165 0.4625056 -1.46925e-5 0.6108395 0.7917546 -0.002588093 0.1842179 0.982882 -1.76057e-5 0.3412306 0.9399796 0.08009064 0.2412046 0.9671638 -0.02759701 -0.02807414 0.9992249 -0.01372712 -0.001440286 0.9999048 -0.003323972 0.02647542 0.999644 0.708217 -0.3252932 0.6265885 0.6002978 -0.5652325 0.5658222 0.2923767 -0.5514411 0.7812993 0.2164276 -0.1983661 0.9559341 0.01477175 -0.1575852 0.9873949 0.1656163 -0.06958276 0.9837325 0.214071 -0.112389 0.9703311 0.2669053 -0.04692947 0.9625795 0.1972844 -0.1101796 0.9741352 0.2482886 -0.01085138 0.9686253 0.3501821 0.09345972 0.9320074 0.1667699 0.005697488 0.9859794 0.06730031 0.01876521 0.9975564 0.04041945 0.0183795 0.9990139 0.01952999 0.03538763 0.9991829 -0.1772195 -0.4030954 0.8978348 0.08586174 -0.6681638 0.7390432 0.2036213 -0.7099249 0.6741995 0.2249588 -0.3673191 0.9024801 0.3374727 0.1298752 0.932333 0.7006214 0.09484702 0.7072014 0.7449973 0.4309543 0.5091733 0.5126088 0.4538967 0.7288416 0.2550386 0.5003495 0.8274091 -1.9744e-5 0.5231718 0.8522273 -1.1757e-5 0.1773757 0.9841433 2.26574e-6 -0.5423591 0.8401468 0 -0.7344065 0.6787099 9.26852e-6 -0.1856946 0.9826076 0 -0.3778734 0.9258573 9.30933e-7 -0.8802274 0.4745522 0 -0.7037143 0.710483 0 -0.4661045 0.8847298 0.3675234 0.1989345 0.9084886 0.1374622 -0.02288049 -0.9902427 0.2186285 0.1580825 -0.9629183 0.206955 0.04334002 -0.9773901 0.03718405 -0.2400504 -0.970048 0.03103667 -0.08369112 -0.9960083 -0.0210272 -0.3420408 -0.9394498 -0.09457182 -0.03957903 -0.994731 -0.02780145 -0.3625851 -0.931536 0.03586864 -0.2927089 -0.9555287 0.1639907 -0.2802388 -0.9458189 0.09609067 -0.2696813 -0.9581433 0.1718407 -0.1296882 -0.976551 0.07255142 -0.1180191 -0.9903575 0.1303263 0.1375409 -0.9818847 0.09247469 -0.1340624 -0.9866488 0.06737351 0.1833675 -0.980733 0.089612 0.2099493 -0.9735969 0.1944669 0.220004 -0.9559189 2.24263e-5 0.03908908 -0.9992358 7.98702e-6 0.210136 -0.9776722 -2.02456e-5 0.2963098 -0.9550919 -1.52737e-7 -0.2651391 -0.9642102 2.15322e-6 -0.09091693 -0.9958586 0.05656427 -0.177306 -0.9825289 0.008691787 -0.2933643 -0.9559612 -3.54536e-5 -0.290564 -0.9568556 0.1599678 -0.04183858 -0.9862352 -0.0407347 0.1806037 -0.9827121 -0.08045923 -0.02066892 -0.9965437 -0.1091111 0.002036333 -0.9940275 -0.1223426 -0.02983081 -0.9920396 -0.1131029 -0.05964702 -0.9917913 -0.110328 -0.06195831 -0.9919621 -4.32841e-5 -0.3289836 -0.9443356 0 -0.3388369 -0.9408452 0.1645595 -0.06830221 -0.9839995 -0.003760993 -0.1177297 -0.9930385 -0.07768177 -0.3613942 -0.9291716 -0.07421344 -0.4356163 -0.8970679 -0.06046134 -0.6823552 -0.7285162 -0.02439045 -0.6970546 -0.7166032 9.38261e-6 0.9930006 0.118109 -0.3019414 0.9319775 0.2006229 7.83801e-6 0.9898639 0.1420194 -0.3088563 0.9235797 0.2271745 -0.9484387 0.2915027 0.1244602 -0.9461954 0.2941769 0.1348124 -0.9527934 0.2519958 0.1693603 -0.9554321 0.2422777 0.1686744 -0.9732146 0.1810232 0.1417184 -0.9754054 0.1769632 0.1314094 0.8793878 0.4300199 0.2043524 0.7160946 0.6976657 0.02170735 0.8317971 0.516001 0.2045894 0.6581164 0.7515287 -0.04569005 0.9797825 0.1196829 0.1603188 0.9863582 0.07422578 0.1469287 0.6530501 0.7563009 0.03917247 0.6536303 0.7550663 0.05140519 0.80616 0.591592 0.01118165 0.8018526 0.5974168 0.01120823 0.9362158 0.3514238 -0.001200199 0.945749 0.3248984 -1.75205e-4 0.9982202 0.04935318 0.0334779 0.9990873 0.00699073 0.04213935 0.986765 -0.1441271 0.07431238 0.9867696 -0.144122 0.07426017 0.9961215 0.04107356 0.07781368 0.9972156 0.06462788 0.03720629 -0.4160002 -0.866603 -0.2755783 -0.2876784 -0.9389133 -0.1888993 -0.413537 -0.8728383 -0.2591148 -0.2475664 -0.9540311 -0.1689246 0.2205911 -0.9693468 -0.1081965 0.2298681 -0.964754 -0.128103 0.6967329 -0.7032912 -0.1412262 0.6559694 -0.751392 -0.07151478 0.8979416 -0.3746536 -0.2309455 0.8835393 -0.3865626 -0.2644386 0.9703533 -0.1607825 -0.1804535 0.9757919 -0.1518849 -0.1573565 0.995251 -0.0657531 -0.07177752 0.9963019 -0.05201715 -0.06838804 0.9951837 -0.01829349 -0.09630638 0.994108 -0.01324278 -0.1075827 -0.8287746 -0.5520468 0.09152716 -0.9782354 -0.1816817 0.1002369 -0.8170278 -0.5642493 0.1186944 -0.9869871 -0.1320126 0.09181165 -0.3350755 -0.939107 0.07617396 -0.3754114 -0.9261658 0.03582555 -0.9758803 -0.01678299 0.2176604 -0.9792507 -0.002972543 0.2026309 -0.9808938 6.39178e-4 0.194543 0 -0.9985312 0.05417954 0 -0.9985313 0.05417835 0.006874263 0.02977287 0.9995331 0.0121746 0.02586555 0.9995913 0.5194942 0.849314 -0.09376317 0.482182 0.8753089 -0.03653723 0.4890561 0.8709958 -0.04680383 0.4542645 0.8908579 0.004016101 -0.02994644 0.0412985 0.998698 -0.0282675 0.04025876 0.9987894 -0.003401219 0.04007166 0.9991911 0.002895057 0.03826719 0.9992634 -0.4458119 0.8809983 0.1584106 8.04663e-7 0.9792059 0.2028693 -2.39314e-5 0.986504 -0.1637378 -2.2456e-5 0.6902316 0.7235885 -0.467859 0.6198909 0.6299549 -0.3989769 0.2171365 0.8908811 -2.20686e-5 0.2006758 0.9796577 -0.322534 -0.018826 0.9463708 -0.6526443 -0.008694827 0.7576146 -0.7099419 0.137567 0.6906938 -0.9181009 0.1586022 0.3632301 -0.8208866 0.3485816 0.4523673 -0.9128881 0.4050529 0.05067044 -0.8034197 0.5800697 0.1342986 -0.6183042 0.7742078 -0.1352856 -2.15024e-5 -0.0309177 0.999522 -0.2393361 0.31375 0.9188466 -0.3362941 0.4656258 0.8185957 -0.2705457 0.3659801 0.890429 -0.5295444 0.04469013 0.8471043 -0.8333747 0.3932068 0.3884266 -0.5709842 0.574207 0.5867397 -0.3081388 0.08949464 0.9471226 -0.2386371 -0.07803612 0.9679684 -0.8553168 0.1670688 0.4904296 -0.606761 -0.3024443 0.7350977 -0.3953955 0.7037692 0.59023 -0.1655579 0.5150876 0.8409966 1.30385e-5 0.8866167 0.462505 1.45137e-5 0.6108399 0.7917541 0.002588033 0.1842178 0.9828821 1.76325e-5 0.3412309 0.9399795 -0.0800907 0.2412046 0.9671639 0.02759701 -0.02807414 0.9992249 0.01372712 -0.001440286 0.9999048 0.003323972 0.02647542 0.999644 -0.708217 -0.3252933 0.6265884 -0.6002977 -0.5652326 0.5658222 -0.2923767 -0.5514413 0.7812992 -0.2164275 -0.1983662 0.9559342 -0.01477169 -0.1575853 0.9873949 -0.1656163 -0.06958287 0.9837325 -0.2140708 -0.1123892 0.9703311 -0.2669056 -0.04692983 0.9625794 -0.1972844 -0.1101802 0.9741351 -0.2482893 -0.01085209 0.9686252 -0.3501822 0.09346002 0.9320073 -0.1667699 0.005697309 0.9859794 -0.06730037 0.01876515 0.9975563 -0.04041945 0.0183795 0.9990137 -0.01952999 0.03538763 0.9991828 0.1772196 -0.4030956 0.8978347 -0.0858618 -0.6681641 0.739043 -0.2036213 -0.7099249 0.6741995 -9.30933e-7 -0.8802275 0.4745522 0 -0.7037146 0.7104828 0 -0.4661046 0.8847298 0 -0.4661053 0.8847293 0.02826756 0.04025882 0.9987894 0.0299465 0.04129856 0.998698 0.003401219 0.04007166 0.9991911 -0.002895057 0.03826719 0.9992634 0 -0.7344065 0.6787099 -2.26574e-6 -0.5423589 0.840147 -0.2249587 -0.3673191 0.9024801 -0.3430541 0.1353209 0.9295172 -0.6947875 0.09863591 0.7124194 -0.744997 0.430955 0.5091732 -0.5028974 0.4319752 0.7486599 -0.2809327 0.4861116 0.8275098 1.94912e-5 0.5231718 0.8522273 1.09524e-5 0.1773751 0.9841433 -9.73046e-6 -0.1856911 0.9826083 0 -0.3778734 0.9258573 -0.3675233 0.1989354 0.9084885 -0.206955 0.04334014 -0.9773901 -0.2186287 0.1580825 -0.9629182 -0.1374623 -0.02288049 -0.9902427 -0.037184 -0.2400504 -0.970048 -0.03103661 -0.08369088 -0.9960083 0.02102732 -0.3420406 -0.9394499 0.0945717 -0.03957867 -0.994731 0.02780151 -0.3625851 -0.9315359 -0.03586864 -0.2927089 -0.9555287 -0.1639906 -0.2802389 -0.9458189 -0.09609013 -0.2696813 -0.9581434 -0.1718407 -0.1296883 -0.9765509 -0.07255136 -0.1180191 -0.9903575 -0.1303263 0.1375408 -0.9818847 -0.09247434 -0.1340633 -0.9866487 -0.06737363 0.1833675 -0.980733 -0.08961206 0.2099493 -0.9735969 -0.194467 0.220004 -0.9559189 -1.77026e-5 0.03908663 -0.9992358 -7.96467e-6 0.2101355 -0.9776723 2.01724e-5 0.2963097 -0.9550919 1.24797e-5 -0.2651205 -0.9642153 4.56721e-6 -0.09091848 -0.9958584 -0.05656427 -0.177306 -0.9825289 -0.008691012 -0.2933634 -0.9559615 5.83679e-5 -0.2905277 -0.9568667 -0.1599677 -0.04183864 -0.9862353 0.0407347 0.1806036 -0.9827121 0.08045917 -0.02066886 -0.9965437 0.1091111 0.002036273 -0.9940275 0.1223424 -0.02983075 -0.9920396 0.1131029 -0.05964708 -0.9917914 0.110328 -0.06195849 -0.9919621 1.39687e-4 -0.3289692 -0.9443407 0 -0.3388368 -0.9408452 -0.1645594 -0.06830221 -0.9839995 0.003760993 -0.1177298 -0.9930385 0.07768189 -0.3613946 -0.9291715 0.0742135 -0.4356164 -0.8970679 0.06046134 -0.6823548 -0.7285166 0.02439045 -0.6970535 -0.7166042 0.3088561 0.9235799 0.2271745 0.3019412 0.9319773 0.2006232 -7.80346e-6 0.9898636 0.1420211 -9.68575e-6 0.9930004 0.1181111 0.9554318 0.2422779 0.1686761 0.9461955 0.2941765 0.1348119 0.9527931 0.2519959 0.1693619 0.9484391 0.2915021 0.1244586 0.9732146 0.1810228 0.1417185 0.9754055 0.1769627 0.1314091 -0.6581165 0.7515283 -0.0456922 -0.7160946 0.6976658 0.02170532 -0.831797 0.5160011 0.2045897 -0.8793877 0.4300198 0.2043531 -0.9797825 0.1196827 0.1603193 -0.9863582 0.07422554 0.1469293 -0.6515044 0.7575637 0.04049104 -0.6521129 0.7564755 0.04993849 -0.8032963 0.5954398 0.01290875 -0.80755 0.5897209 0.009616315 -0.9362163 0.3514224 -0.001219451 -0.9457491 0.324898 -1.94388e-4 -0.9982197 0.0493527 0.03349441 -0.9990866 0.006989896 0.04215818 -0.9867647 -0.144128 0.07431471 -0.9867696 -0.1441227 0.07426089 -0.9961215 0.04107332 0.07781481 -0.9972156 0.06462752 0.03720772 0.2475666 -0.9540313 -0.1689233 0.2876785 -0.9389137 -0.1888975 0.4135377 -0.872839 -0.2591112 0.416001 -0.8666037 -0.2755742 -0.2205907 -0.9693469 -0.1081966 -0.2298678 -0.964754 -0.128104 -0.6967326 -0.7032916 -0.1412256 -0.6559692 -0.7513923 -0.07151365 -0.8979415 -0.3746537 -0.230945 -0.8835392 -0.386563 -0.2644383 -0.9703534 -0.1607823 -0.1804533 -0.9757921 -0.1518848 -0.1573563 -0.995251 -0.06575334 -0.07177716 -0.9963019 -0.05201739 -0.06838768 -0.9951837 -0.01829391 -0.09630614 -0.994108 -0.01324325 -0.1075825 0.9869871 -0.1320126 0.09181183 0.9782354 -0.1816816 0.100237 0.8170279 -0.5642491 0.1186945 0.8287747 -0.5520466 0.09152704 0.3350756 -0.939107 0.07617449 0.3754113 -0.9261658 0.03582537 0.9758802 -0.01678276 0.2176606 0.9792507 -0.002972364 0.2026311 0.9808938 6.39344e-4 0.194543 0 -0.9985312 0.05417972 0 -0.9985313 0.05417972 -0.0121746 0.02586555 0.9995913 -0.006874263 0.02977287 0.9995331 -0.4542641 0.8908581 0.004018008 -0.4821817 0.8753091 -0.03653609 -0.4890559 0.8709959 -0.04680293 -0.5194942 0.849314 -0.09376317</float_array>
          <technique_common>
            <accessor source="#trillarian_fighter_mapped_0-mesh-normals-array" count="353" stride="3">
              <param name="X" type="float"/>
              <param name="Y" type="float"/>
              <param name="Z" type="float"/>
            </accessor>
          </technique_common>
        </source>
        <source id="trillarian_fighter_mapped_0-mesh-map-0">
          <float_array id="trillarian_fighter_mapped_0-mesh-map-0-array" count="2304">0.757935 0.07468599 0.814927 0.090456 0.793704 0.133305 0.814927 0.090456 0.874378 0.126477 0.793704 0.133305 0.83944 0.1629739 0.793704 0.133305 0.874378 0.126477 0.83944 0.1629739 0.874378 0.126477 0.871188 0.198908 0.911779 0.180444 0.871188 0.198908 0.874378 0.126477 0.871188 0.198908 0.911779 0.180444 0.895721 0.240718 0.895721 0.240718 0.857647 0.250928 0.871188 0.198908 0.843863 0.218261 0.871188 0.198908 0.857647 0.250928 0.871188 0.198908 0.843863 0.218261 0.83944 0.1629739 0.857647 0.250928 0.797477 0.244192 0.843863 0.218261 0.816249 0.201568 0.843863 0.218261 0.797477 0.244192 0.816249 0.201568 0.83944 0.1629739 0.843863 0.218261 0.797477 0.244192 0.743972 0.202238 0.816249 0.201568 0.775888 0.172868 0.816249 0.201568 0.743972 0.202238 0.816249 0.201568 0.775888 0.172868 0.83944 0.1629739 0.793704 0.133305 0.83944 0.1629739 0.775888 0.172868 0.737265 0.149455 0.775888 0.172868 0.743972 0.202238 0.737265 0.149455 0.793704 0.133305 0.775888 0.172868 0.737265 0.149455 0.757935 0.07468599 0.793704 0.133305 0.931421 0.228871 0.895721 0.240718 0.911779 0.180444 0.593808 0.221351 0.70791 0.201427 0.671969 0.282829 0.70791 0.201427 0.755958 0.31516 0.671969 0.282829 0.755958 0.31516 0.70791 0.201427 0.743107 0.239576 0.70791 0.201427 0.743972 0.202238 0.743107 0.239576 0.647772 0.38164 0.671969 0.282829 0.755958 0.31516 0.755958 0.31516 0.708415 0.465761 0.647772 0.38164 0.755958 0.31516 0.743107 0.239576 0.789944 0.265697 0.847274 0.416459 0.755958 0.31516 0.789944 0.265697 0.755958 0.31516 0.847274 0.416459 0.708415 0.465761 0.743972 0.202238 0.70791 0.201427 0.737265 0.149455 0.702485 0.140048 0.737265 0.149455 0.70791 0.201427 0.737265 0.149455 0.702485 0.140048 0.757848 0.07467401 0.737904 0.06208294 0.757848 0.07467401 0.702485 0.140048 0.702485 0.140048 0.668612 0.05480694 0.737904 0.06208294 0.709301 0.03194499 0.737904 0.06208294 0.668612 0.05480694 0.702485 0.140048 0.622138 0.1281729 0.668612 0.05480694 0.702485 0.140048 0.70791 0.201427 0.622138 0.1281729 0.593808 0.221351 0.622138 0.1281729 0.70791 0.201427 0.617797 0.06929498 0.668612 0.05480694 0.622138 0.1281729 0.668612 0.05480694 0.617797 0.06929498 0.626174 0.03266495 0.602791 0.04843795 0.626174 0.03266495 0.617797 0.06929498 0.847274 0.416459 0.789944 0.265697 0.885585 0.379289 0.885585 0.379289 0.907412 0.427775 0.847274 0.416459 0.904812 0.484124 0.847274 0.416459 0.907412 0.427775 0.847274 0.416459 0.904812 0.484124 0.792748 0.497346 0.900666 0.584203 0.792748 0.497346 0.904812 0.484124 0.792748 0.497346 0.900666 0.584203 0.768952 0.587761 0.768952 0.587761 0.735403 0.581336 0.792748 0.497346 0.708415 0.465761 0.792748 0.497346 0.735403 0.581336 0.708415 0.465761 0.735403 0.581336 0.610348 0.54193 0.677019 0.611287 0.610348 0.54193 0.735403 0.581336 0.610348 0.54193 0.677019 0.611287 0.539879 0.596996 0.522365 0.469207 0.610348 0.54193 0.539879 0.596996 0.588361 0.690645 0.539879 0.596996 0.677019 0.611287 0.813784 0.644874 0.768952 0.587761 0.900666 0.584203 0.900666 0.584203 0.891069 0.678175 0.813784 0.644874 0.839823 0.711642 0.813784 0.644874 0.891069 0.678175 0.900666 0.584203 0.904812 0.484124 0.93388 0.559758 0.929262 0.495533 0.93388 0.559758 0.904812 0.484124 0.929262 0.495533 0.904812 0.484124 0.941809 0.434979 0.907412 0.427775 0.941809 0.434979 0.904812 0.484124 0.941809 0.434979 0.907412 0.427775 0.946883 0.36196 0.885585 0.379289 0.946883 0.36196 0.907412 0.427775 0.946883 0.36196 0.885585 0.379289 0.902456 0.257389 0.855187 0.266469 0.902456 0.257389 0.885585 0.379289 0.855187 0.266469 0.885585 0.379289 0.789944 0.265697 0.789944 0.265697 0.797477 0.244192 0.855187 0.266469 0.789944 0.265697 0.743107 0.239576 0.797477 0.244192 0.743972 0.202238 0.797477 0.244192 0.743107 0.239576 0.857647 0.250928 0.855187 0.266469 0.797477 0.244192 0.855187 0.266469 0.857647 0.250928 0.902456 0.257389 0.895721 0.240718 0.902456 0.257389 0.857647 0.250928 0.895721 0.240718 0.931421 0.228871 0.902456 0.257389 0.939324 0.247694 0.902456 0.257389 0.931421 0.228871 0.946883 0.36196 0.956305 0.393781 0.941809 0.434979 0.95457 0.435116 0.941809 0.434979 0.956305 0.393781 0.946883 0.36196 0.902456 0.257389 0.93946 0.248534 0.939324 0.247694 0.93946 0.248534 0.902456 0.257389 0.93946 0.248534 0.957483 0.360914 0.946883 0.36196 0.946883 0.36196 0.957483 0.360914 0.956305 0.393781 0.941809 0.434979 0.95457 0.435116 0.951055 0.461168 0.941809 0.434979 0.951055 0.461168 0.929262 0.495533 0.94789 0.495617 0.929262 0.495533 0.951055 0.461168 0.929262 0.495533 0.94789 0.495617 0.949749 0.528774 0.929262 0.495533 0.949749 0.528774 0.93388 0.559758 0.950636 0.559805 0.93388 0.559758 0.949749 0.528774 0.647772 0.38164 0.522365 0.469207 0.535607 0.385458 0.647772 0.38164 0.535607 0.385458 0.671969 0.282829 0.593808 0.221351 0.671969 0.282829 0.535607 0.385458 0.522365 0.469207 0.647772 0.38164 0.610348 0.54193 0.708415 0.465761 0.610348 0.54193 0.647772 0.38164 0.792748 0.497346 0.708415 0.465761 0.847274 0.416459 0.285601 0.393421 0.353527 0.305179 0.392276 0.380328 0.285601 0.393421 0.392276 0.380328 0.305689 0.487753 0.417159 0.500488 0.305689 0.487753 0.392276 0.380328 0.305689 0.487753 0.417159 0.500488 0.298374 0.551311 0.407735 0.590891 0.298374 0.551311 0.417159 0.500488 0.298374 0.551311 0.236716 0.548733 0.305689 0.487753 0.211747 0.499441 0.305689 0.487753 0.236716 0.548733 0.305689 0.487753 0.211747 0.499441 0.285601 0.393421 0.236716 0.548733 0.197974 0.575566 0.211747 0.499441 0.126565 0.529967 0.211747 0.499441 0.197974 0.575566 0.126565 0.529967 0.197974 0.575566 0.161126 0.624936 0.17673 0.404967 0.285601 0.393421 0.211747 0.499441 0.211747 0.499441 0.126565 0.529967 0.17673 0.404967 0.180612 0.256082 0.285601 0.393421 0.17673 0.404967 0.285601 0.393421 0.180612 0.256082 0.353527 0.305179 0.17673 0.404967 0.08916199 0.413515 0.180612 0.256082 0.08916199 0.413515 0.17673 0.404967 0.126565 0.529967 0.08597695 0.2204869 0.180612 0.256082 0.08916199 0.413515 0.08597695 0.2204869 0.168822 0.134036 0.180612 0.256082 0.237128 0.185149 0.180612 0.256082 0.168822 0.134036 0.08916199 0.413515 0.028243 0.395138 0.08597695 0.2204869 0.03135997 0.218877 0.08597695 0.2204869 0.028243 0.395138 0.03135997 0.218877 0.03468698 0.112587 0.08597695 0.2204869 0.126565 0.529967 0.03034597 0.504818 0.08916199 0.413515 0.02823996 0.395404 0.08916199 0.413515 0.03034597 0.504818 0.08916199 0.413515 0.02823996 0.395404 0.028243 0.395138 0.237128 0.185149 0.353527 0.305179 0.180612 0.256082 0.126565 0.529967 0.161126 0.624936 0.07660096 0.589731 0.07660096 0.589731 0.04925197 0.563057 0.126565 0.529967 0.030348 0.504954 0.126565 0.529967 0.04925197 0.563057 0.09471195 0.653329 0.07660096 0.589731 0.161126 0.624936 0.08597695 0.2204869 0.07692998 0.100628 0.168822 0.134036 0.07692998 0.100628 0.08597695 0.2204869 0.03468698 0.112587 0.128608 0.08372896 0.168822 0.134036 0.07692998 0.100628 0.07692998 0.100628 0.08974599 0.06301397 0.128608 0.08372896 0.121904 0.058851 0.128608 0.08372896 0.08974599 0.06301397 0.121904 0.058851 0.08974599 0.06301397 0.1211529 0.02777397 0.100487 0.01637595 0.1211529 0.02777397 0.08974599 0.06301397 0.03035199 0.50518 0.030348 0.504954 0.04925197 0.563057 0.03035199 0.50518 0.04925197 0.563057 0.03132396 0.563414 0.126565 0.529967 0.030348 0.504954 0.03034597 0.504818 0.161126 0.624936 0.146004 0.688523 0.09471195 0.653329 0.146004 0.688523 0.1342419 0.845548 0.09471195 0.653329 0.102787 0.913068 0.09471195 0.653329 0.1342419 0.845548 0.1342419 0.845548 0.130926 0.918012 0.102787 0.913068 0.102787 0.913068 0.130926 0.918012 0.105541 0.959125 0.130643 0.961513 0.105541 0.959125 0.130926 0.918012 0.344062 0.172615 0.287157 0.1440269 0.353025 0.149187 0.295046 0.124988 0.353025 0.149187 0.287157 0.1440269 0.295046 0.124988 0.287157 0.1440269 0.2468169 0.09476697 0.231937 0.111454 0.2468169 0.09476697 0.287157 0.1440269 0.2468169 0.09476697 0.231937 0.111454 0.193772 0.05132496 0.17803 0.07179498 0.193772 0.05132496 0.231937 0.111454 0.80701 0.97879 0.74784 0.975943 0.801327 0.956525 0.7328 0.954535 0.801327 0.956525 0.74784 0.975943 0.801327 0.956525 0.828745 0.955756 0.80701 0.97879 0.832063 0.976245 0.80701 0.97879 0.828745 0.955756 0.74784 0.975943 0.642084 0.971391 0.7328 0.954535 0.642039 0.951512 0.7328 0.954535 0.642084 0.971391 0.642039 0.951512 0.642084 0.971391 0.464098 0.948672 0.464049 0.965797 0.464098 0.948672 0.642084 0.971391 0.464049 0.965797 0.375957 0.959267 0.464098 0.948672 0.374268 0.945457 0.464098 0.948672 0.375957 0.959267 0.375957 0.959267 0.247318 0.958879 0.374268 0.945457 0.244029 0.942584 0.374268 0.945457 0.247318 0.958879 0.244029 0.942584 0.247318 0.958879 0.14749 0.946926 0.143424 0.961165 0.14749 0.946926 0.247318 0.958879 0.832063 0.976245 0.828745 0.955756 0.864001 0.971368 0.861437 0.950675 0.864001 0.971368 0.828745 0.955756 0.541713 0.03649097 0.51638 0.193452 0.522562 0.03041398 0.483108 0.193422 0.522562 0.03041398 0.51638 0.193452 0.51638 0.193452 0.512046 0.284416 0.483108 0.193422 0.461738 0.278923 0.483108 0.193422 0.512046 0.284416 0.461738 0.278923 0.512046 0.284416 0.462022 0.346345 0.51364 0.340662 0.462022 0.346345 0.512046 0.284416 0.51364 0.340662 0.50631 0.441242 0.462022 0.346345 0.450196 0.434453 0.462022 0.346345 0.50631 0.441242 0.450196 0.434453 0.50631 0.441242 0.446331 0.528674 0.506598 0.538512 0.446331 0.528674 0.50631 0.441242 0.446331 0.528674 0.506598 0.538512 0.45822 0.755676 0.508134 0.773545 0.45822 0.755676 0.506598 0.538512 0.45822 0.755676 0.508134 0.773545 0.467495 0.859984 0.510406 0.905845 0.467495 0.859984 0.508134 0.773545 0.460323 0.08750396 0.458956 0.151875 0.402526 0.08604198 0.408541 0.169462 0.402526 0.08604198 0.458956 0.151875 0.402526 0.08604198 0.410175 0.04492598 0.460323 0.08750396 0.46637 0.05052798 0.460323 0.08750396 0.410175 0.04492598 0.415533 0.349233 0.408541 0.169462 0.458956 0.151875 0.458956 0.151875 0.444274 0.403985 0.415533 0.349233 0.417476 0.439938 0.415533 0.349233 0.444274 0.403985 0.46637 0.05052798 0.410175 0.04492598 0.467434 0.033104 0.411108 0.02966296 0.467434 0.033104 0.410175 0.04492598 0.602791 0.04843795 0.579579 0.02512097 0.626174 0.03266495 0.585094 0.00327897 0.626174 0.03266495 0.579579 0.02512097 0.17803 0.07179498 0.152593 0.05628299 0.193772 0.05132496 0.166207 0.03173398 0.193772 0.05132496 0.152593 0.05628299 0.871485 0.884556 0.839823 0.711642 0.90032 0.879043 0.891069 0.678175 0.90032 0.879043 0.839823 0.711642 0.90032 0.879043 0.907821 0.980006 0.871485 0.884556 0.880686 0.983251 0.871485 0.884556 0.907821 0.980006 1.793704 0.133305 1.814927 0.090456 1.757935 0.07468599 1.814927 0.090456 1.793704 0.133305 1.874378 0.126477 1.83944 0.1629739 1.874378 0.126477 1.793704 0.133305 1.83944 0.1629739 1.871188 0.198908 1.874378 0.126477 1.911779 0.180444 1.874378 0.126477 1.871188 0.198908 1.871188 0.198908 1.895721 0.240718 1.911779 0.180444 1.895721 0.240718 1.871188 0.198908 1.857647 0.250928 1.843863 0.218261 1.857647 0.250928 1.871188 0.198908 1.871188 0.198908 1.83944 0.1629739 1.843863 0.218261 1.857647 0.250928 1.843863 0.218261 1.797477 0.244192 1.816249 0.201568 1.797477 0.244192 1.843863 0.218261 1.816249 0.201568 1.843863 0.218261 1.83944 0.1629739 1.797477 0.244192 1.816249 0.201568 1.743972 0.202238 1.775888 0.172868 1.743972 0.202238 1.816249 0.201568 1.793704 0.133305 1.775888 0.172868 1.83944 0.1629739 1.816249 0.201568 1.83944 0.1629739 1.775888 0.172868 1.743972 0.202238 1.775888 0.172868 1.737265 0.149455 1.775888 0.172868 1.793704 0.133305 1.737265 0.149455 1.737265 0.149455 1.793704 0.133305 1.757935 0.07468599 1.931421 0.228871 1.911779 0.180444 1.895721 0.240718 1.671969 0.282829 1.70791 0.201427 1.593808 0.221351 1.671969 0.282829 1.755958 0.31516 1.70791 0.201427 1.743107 0.239576 1.70791 0.201427 1.755958 0.31516 1.743107 0.239576 1.743972 0.202238 1.70791 0.201427 1.755958 0.31516 1.671969 0.282829 1.647772 0.38164 1.647772 0.38164 1.708415 0.465761 1.755958 0.31516 1.789944 0.265697 1.743107 0.239576 1.755958 0.31516 1.789944 0.265697 1.755958 0.31516 1.847274 0.416459 1.755958 0.31516 1.708415 0.465761 1.847274 0.416459 1.743972 0.202238 1.737265 0.149455 1.70791 0.201427 1.702485 0.140048 1.70791 0.201427 1.737265 0.149455 1.737265 0.149455 1.757848 0.07467401 1.702485 0.140048 1.737904 0.06208294 1.702485 0.140048 1.757848 0.07467401 1.702485 0.140048 1.737904 0.06208294 1.668612 0.05480694 1.709301 0.03194499 1.668612 0.05480694 1.737904 0.06208294 1.702485 0.140048 1.668612 0.05480694 1.622138 0.1281729 1.702485 0.140048 1.622138 0.1281729 1.70791 0.201427 1.617797 0.06929498 1.622138 0.1281729 1.668612 0.05480694 1.668612 0.05480694 1.626174 0.03266495 1.617797 0.06929498 1.602791 0.04843795 1.617797 0.06929498 1.626174 0.03266495 1.847274 0.416459 1.885585 0.379289 1.789944 0.265697 1.885585 0.379289 1.847274 0.416459 1.907412 0.427775 1.904812 0.484124 1.907412 0.427775 1.847274 0.416459 1.847274 0.416459 1.792748 0.497346 1.904812 0.484124 1.900666 0.584203 1.904812 0.484124 1.792748 0.497346 1.792748 0.497346 1.768952 0.587761 1.900666 0.584203 1.768952 0.587761 1.792748 0.497346 1.735403 0.581336 1.708415 0.465761 1.735403 0.581336 1.792748 0.497346 1.708415 0.465761 1.610348 0.54193 1.735403 0.581336 1.677019 0.611287 1.735403 0.581336 1.610348 0.54193 1.610348 0.54193 1.539879 0.596996 1.677019 0.611287 1.539879 0.596996 1.610348 0.54193 1.522365 0.469207 1.588361 0.690645 1.677019 0.611287 1.539879 0.596996 1.813784 0.644874 1.900666 0.584203 1.768952 0.587761 1.900666 0.584203 1.813784 0.644874 1.891069 0.678175 1.839823 0.711642 1.891069 0.678175 1.813784 0.644874 1.900666 0.584203 1.93388 0.559758 1.904812 0.484124 1.929262 0.495533 1.904812 0.484124 1.93388 0.559758 1.929262 0.495533 1.941809 0.434979 1.904812 0.484124 1.941809 0.434979 1.929262 0.495533 1.951055 0.461168 1.94789 0.495617 1.951055 0.461168 1.929262 0.495533 1.929262 0.495533 1.93388 0.559758 1.949749 0.528774 1.949749 0.528774 1.94789 0.495617 1.929262 0.495533 1.950636 0.559805 1.949749 0.528774 1.93388 0.559758 1.891069 0.678175 1.839823 0.711642 1.90032 0.879043 1.871485 0.884556 1.90032 0.879043 1.839823 0.711642 1.90032 0.879043 1.871485 0.884556 1.907821 0.980006 1.880686 0.983251 1.907821 0.980006 1.871485 0.884556 1.951055 0.461168 1.95457 0.435116 1.941809 0.434979 1.95457 0.435116 1.956306 0.393781 1.941809 0.434979 1.946883 0.36196 1.941809 0.434979 1.956306 0.393781 1.941809 0.434979 1.946883 0.36196 1.907412 0.427775 1.907412 0.427775 1.904812 0.484124 1.941809 0.434979 1.885585 0.379289 1.907412 0.427775 1.946883 0.36196 1.946883 0.36196 1.902456 0.257389 1.885585 0.379289 1.855187 0.266469 1.885585 0.379289 1.902456 0.257389 1.855187 0.266469 1.789944 0.265697 1.885585 0.379289 1.789944 0.265697 1.855187 0.266469 1.797477 0.244192 1.789944 0.265697 1.797477 0.244192 1.743107 0.239576 1.743972 0.202238 1.743107 0.239576 1.797477 0.244192 1.857647 0.250928 1.797477 0.244192 1.855187 0.266469 1.902456 0.257389 1.895721 0.240718 1.855187 0.266469 1.857647 0.250928 1.855187 0.266469 1.895721 0.240718 1.895721 0.240718 1.902456 0.257389 1.931421 0.228871 1.939324 0.247694 1.931421 0.228871 1.902456 0.257389 1.939324 0.247694 1.902456 0.257389 1.93946 0.248534 1.946883 0.36196 1.93946 0.248534 1.902456 0.257389 1.946883 0.36196 1.957483 0.360914 1.93946 0.248534 1.956306 0.393781 1.957483 0.360914 1.946883 0.36196 1.535607 0.385458 1.522365 0.469207 1.647772 0.38164 1.647772 0.38164 1.671969 0.282829 1.535607 0.385458 1.593808 0.221351 1.535607 0.385458 1.671969 0.282829 1.522365 0.469207 1.610348 0.54193 1.647772 0.38164 1.708415 0.465761 1.647772 0.38164 1.610348 0.54193 1.593808 0.221351 1.70791 0.201427 1.622138 0.1281729 1.792748 0.497346 1.847274 0.416459 1.708415 0.465761 1.392276 0.380328 1.353527 0.305179 1.285601 0.393421 1.285601 0.393421 1.305689 0.487753 1.392276 0.380328 1.417159 0.500488 1.392276 0.380328 1.305689 0.487753 1.305689 0.487753 1.298374 0.551311 1.417159 0.500488 1.407735 0.590891 1.417159 0.500488 1.298374 0.551311 1.298374 0.551311 1.305689 0.487753 1.236716 0.548733 1.211747 0.499441 1.236716 0.548733 1.305689 0.487753 1.305689 0.487753 1.285601 0.393421 1.211747 0.499441 1.236716 0.548733 1.211747 0.499441 1.197974 0.575566 1.126565 0.529967 1.197974 0.575566 1.211747 0.499441 1.161126 0.624936 1.197974 0.575566 1.126565 0.529967 1.17673 0.404967 1.211747 0.499441 1.285601 0.393421 1.211747 0.499441 1.17673 0.404967 1.126565 0.529967 1.17673 0.404967 1.285601 0.393421 1.180612 0.256082 1.285601 0.393421 1.353527 0.305179 1.180612 0.256082 1.17673 0.404967 1.180612 0.256082 1.089162 0.413515 1.089162 0.413515 1.126565 0.529967 1.17673 0.404967 1.085977 0.2204869 1.089162 0.413515 1.180612 0.256082 1.085977 0.2204869 1.180612 0.256082 1.168822 0.134036 1.237128 0.185149 1.168822 0.134036 1.180612 0.256082 1.089162 0.413515 1.085977 0.2204869 1.028243 0.395138 1.03136 0.218877 1.028243 0.395138 1.085977 0.2204869 1.085977 0.2204869 1.034687 0.112587 1.03136 0.218877 1.126565 0.529967 1.089162 0.413515 1.030346 0.504818 1.02824 0.395404 1.030346 0.504818 1.089162 0.413515 1.028243 0.395138 1.02824 0.395404 1.089162 0.413515 1.237128 0.185149 1.180612 0.256082 1.353527 0.305179 1.126565 0.529967 1.076602 0.589731 1.161126 0.624936 1.076602 0.589731 1.126565 0.529967 1.049252 0.563057 1.030348 0.504954 1.049252 0.563057 1.126565 0.529967 1.094712 0.653329 1.161126 0.624936 1.076602 0.589731 1.085977 0.2204869 1.168822 0.134036 1.07693 0.100628 1.034687 0.112587 1.085977 0.2204869 1.07693 0.100628 1.128608 0.08372896 1.07693 0.100628 1.168822 0.134036 1.07693 0.100628 1.128608 0.08372896 1.089746 0.06301397 1.121904 0.058851 1.089746 0.06301397 1.128608 0.08372896 1.121904 0.058851 1.121153 0.02777397 1.089746 0.06301397 1.100487 0.01637595 1.089746 0.06301397 1.121153 0.02777397 1.049252 0.563057 1.030348 0.504954 1.030352 0.50518 1.031324 0.563414 1.049252 0.563057 1.030352 0.50518 1.030346 0.504818 1.030348 0.504954 1.126565 0.529967 1.094712 0.653329 1.146003 0.688523 1.161126 0.624936 1.146003 0.688523 1.094712 0.653329 1.134242 0.845548 1.102787 0.913068 1.134242 0.845548 1.094712 0.653329 1.102787 0.913068 1.130926 0.918012 1.134242 0.845548 1.102787 0.913068 1.105541 0.959125 1.130926 0.918012 1.130643 0.961513 1.130926 0.918012 1.105541 0.959125 1.295046 0.124988 1.287157 0.1440269 1.353025 0.149187 1.344062 0.172615 1.353025 0.149187 1.287157 0.1440269 1.231937 0.111454 1.287157 0.1440269 1.246817 0.09476697 1.295046 0.124988 1.246817 0.09476697 1.287157 0.1440269 1.246817 0.09476697 1.193772 0.05132496 1.231937 0.111454 1.17803 0.07179498 1.231937 0.111454 1.193772 0.05132496 1.7328 0.954535 1.747839 0.975943 1.801327 0.956525 1.80701 0.97879 1.801327 0.956525 1.747839 0.975943 1.801327 0.956525 1.80701 0.97879 1.828745 0.955756 1.832063 0.976245 1.828745 0.955756 1.80701 0.97879 1.747839 0.975943 1.7328 0.954535 1.642084 0.971391 1.642039 0.951512 1.642084 0.971391 1.7328 0.954535 1.642084 0.971391 1.642039 0.951512 1.464049 0.965797 1.464097 0.948672 1.464049 0.965797 1.642039 0.951512 1.464049 0.965797 1.464097 0.948672 1.375957 0.959267 1.374268 0.945457 1.375957 0.959267 1.464097 0.948672 1.375957 0.959267 1.374268 0.945457 1.247318 0.958879 1.244029 0.942584 1.247318 0.958879 1.374268 0.945457 1.244029 0.942584 1.147491 0.946926 1.247318 0.958879 1.143424 0.961165 1.247318 0.958879 1.147491 0.946926 1.832063 0.976245 1.864001 0.971368 1.828745 0.955756 1.861437 0.950675 1.828745 0.955756 1.864001 0.971368 1.483108 0.193422 1.516381 0.193452 1.522562 0.03041398 1.541713 0.03649097 1.522562 0.03041398 1.516381 0.193452 1.516381 0.193452 1.483108 0.193422 1.512046 0.284416 1.461738 0.278923 1.512046 0.284416 1.483108 0.193422 1.461738 0.278923 1.462023 0.346345 1.512046 0.284416 1.51364 0.340662 1.512046 0.284416 1.462023 0.346345 1.51364 0.340662 1.462023 0.346345 1.50631 0.441242 1.450196 0.434453 1.50631 0.441242 1.462023 0.346345 1.450196 0.434453 1.446331 0.528674 1.50631 0.441242 1.506598 0.538512 1.50631 0.441242 1.446331 0.528674 1.446331 0.528674 1.45822 0.755676 1.506598 0.538512 1.508134 0.773545 1.506598 0.538512 1.45822 0.755676 1.45822 0.755676 1.467495 0.859984 1.508134 0.773545 1.510406 0.905845 1.508134 0.773545 1.467495 0.859984 1.408541 0.169462 1.458956 0.151875 1.402526 0.08604198 1.460323 0.08750396 1.402526 0.08604198 1.458956 0.151875 1.402526 0.08604198 1.460323 0.08750396 1.410175 0.04492598 1.46637 0.05052798 1.410175 0.04492598 1.460323 0.08750396 1.458956 0.151875 1.408541 0.169462 1.415533 0.349233 1.458956 0.151875 1.415533 0.349233 1.444274 0.403985 1.417476 0.439938 1.444274 0.403985 1.415533 0.349233 1.467434 0.033104 1.410175 0.04492598 1.46637 0.05052798 1.410175 0.04492598 1.467434 0.033104 1.411108 0.02966296 1.585094 0.00327897 1.579579 0.02512097 1.626174 0.03266495 1.602791 0.04843795 1.626174 0.03266495 1.579579 0.02512097 1.166207 0.03173398 1.152593 0.05628299 1.193772 0.05132496 1.17803 0.07179498 1.193772 0.05132496 1.152593 0.05628299</float_array>
          <technique_common>
            <accessor source="#trillarian_fighter_mapped_0-mesh-map-0-array" count="1152" stride="2">
              <param name="S" type="float"/>
              <param name="T" type="float"/>
            </accessor>
          </technique_common>
        </source>
        <vertices id="trillarian_fighter_mapped_0-mesh-vertices">
          <input semantic="POSITION" source="#trillarian_fighter_mapped_0-mesh-positions"/>
        </vertices>
        <triangles material="Fighter-material" count="384">
          <input semantic="VERTEX" source="#trillarian_fighter_mapped_0-mesh-vertices" offset="0"/>
          <input semantic="NORMAL" source="#trillarian_fighter_mapped_0-mesh-normals" offset="1"/>
          <input semantic="TEXCOORD" source="#trillarian_fighter_mapped_0-mesh-map-0" offset="2" set="0"/>
          <p>0 0 0 1 1 1 2 2 2 1 1 3 3 3 4 2 2 5 4 4 6 2 2 7 3 3 8 4 4 9 3 3 10 5 5 11 6 6 12 5 5 13 3 3 14 5 5 15 6 6 16 7 7 17 7 7 18 8 8 19 5 5 20 9 9 21 5 5 22 8 8 23 5 5 24 9 9 25 4 4 26 8 8 27 10 10 28 9 9 29 11 11 30 9 9 31 10 10 32 11 11 33 4 4 34 9 9 35 10 10 36 12 12 37 11 11 38 13 13 39 11 11 40 12 12 41 11 11 42 13 13 43 4 4 44 2 2 45 4 4 46 13 13 47 14 14 48 13 13 49 12 12 50 14 14 51 2 2 52 13 13 53 14 14 54 0 0 55 2 2 56 15 15 57 7 7 58 6 6 59 16 16 60 17 17 61 18 18 62 17 17 63 19 19 64 18 18 65 19 19 66 17 17 67 20 20 68 17 17 69 21 21 70 20 20 71 22 22 72 18 18 73 19 19 74 19 19 75 23 23 76 22 22 77 19 19 78 20 20 79 24 24 80 25 25 81 19 19 82 24 24 83 19 19 84 25 25 85 23 23 86 21 21 87 17 17 88 26 26 89 27 27 90 26 26 91 17 17 92 26 26 93 27 27 94 28 28 95 29 29 96 28 28 97 27 27 98 27 27 99 30 30 100 29 29 101 31 31 102 29 29 103 30 30 104 27 27 105 32 32 106 30 30 107 27 27 108 17 17 109 32 32 110 16 16 111 32 32 112 17 17 113 33 33 114 30 30 115 32 32 116 30 30 117 33 33 118 34 34 119 35 35 120 34 34 121 33 33 122 25 25 123 24 24 124 36 36 125 36 36 126 37 37 127 25 25 128 38 38 129 25 25 130 37 37 131 25 25 132 38 38 133 39 39 134 40 40 135 39 39 136 38 38 137 39 39 138 40 40 139 41 41 140 41 41 141 42 42 142 39 39 143 23 23 144 39 39 145 42 42 146 23 23 147 42 42 148 43 43 149 44 44 150 43 43 151 42 42 152 43 43 153 44 44 154 45 45 155 46 46 156 43 43 157 45 45 158 47 47 159 45 45 160 44 44 161 48 48 162 41 41 163 40 40 164 40 40 165 49 49 166 48 48 167 50 50 168 48 48 169 49 49 170 40 40 171 38 38 172 51 51 173 52 52 174 51 51 175 38 38 176 52 52 177 38 38 178 53 53 179 37 37 180 53 53 181 38 38 182 53 53 183 37 37 184 54 54 185 36 36 186 54 54 187 37 37 188 54 54 189 36 36 190 55 55 191 56 56 192 55 55 193 36 36 194 56 56 195 36 36 196 24 24 197 24 24 198 57 57 199 56 56 200 24 24 201 20 20 202 57 57 203 21 21 204 57 57 205 20 20 206 58 58 207 56 56 208 57 57 209 56 56 210 58 58 211 55 55 212 59 59 213 55 55 214 58 58 215 59 59 216 60 60 217 55 55 218 61 61 219 55 55 220 60 60 221 54 54 222 62 62 223 53 53 224 63 63 225 53 53 226 62 62 227 54 54 228 55 55 229 64 64 230 61 61 231 64 64 232 55 55 233 64 64 234 65 65 235 54 54 236 54 54 237 65 65 238 62 62 239 53 53 240 63 63 241 66 66 242 53 53 243 66 66 244 52 52 245 67 67 246 52 52 247 66 66 248 52 52 249 67 67 250 68 68 251 52 52 252 68 68 253 51 51 254 69 68 255 51 51 256 68 68 257 22 22 258 46 46 259 70 69 260 22 22 261 70 69 262 18 18 263 16 16 264 18 18 265 70 69 266 46 46 267 22 22 268 43 43 269 23 23 270 43 43 271 22 22 272 39 39 273 23 23 274 25 25 275 71 70 276 72 71 277 73 72 278 71 70 279 73 72 280 74 73 281 75 74 282 74 73 283 73 72 284 74 73 285 75 74 286 76 75 287 77 76 288 76 75 289 75 74 290 76 75 291 78 77 292 74 73 293 79 78 294 74 73 295 78 77 296 74 73 297 79 78 298 71 70 299 78 77 300 80 79 301 79 78 302 81 80 303 79 78 304 80 79 305 81 80 306 80 79 307 82 81 308 83 82 309 71 70 310 79 78 311 79 78 312 81 80 313 83 82 314 84 83 315 71 70 316 83 82 317 71 70 318 84 83 319 72 71 320 83 82 321 85 84 322 84 83 323 85 84 324 83 82 325 81 80 326 86 85 327 84 83 328 85 84 329 86 85 330 87 86 331 84 83 332 88 87 333 84 83 334 87 86 335 85 84 336 89 88 337 86 85 338 90 89 339 86 85 340 89 88 341 90 89 342 91 90 343 86 85 344 81 80 345 92 91 346 85 84 347 93 92 348 85 84 349 92 91 350 85 84 351 93 92 352 89 88 353 88 87 354 72 71 355 84 83 356 81 80 357 82 81 358 94 93 359 94 93 360 95 94 361 81 80 362 96 95 363 81 80 364 95 94 365 97 96 366 94 93 367 82 81 368 86 85 369 98 97 370 87 86 371 98 97 372 86 85 373 91 90 374 99 98 375 87 86 376 98 97 377 98 97 378 100 99 379 99 98 380 101 100 381 99 98 382 100 99 383 101 100 384 100 99 385 102 101 386 103 102 387 102 101 388 100 99 389 104 103 390 96 95 391 95 94 392 104 103 393 95 94 394 105 104 395 81 80 396 96 95 397 92 91 398 82 81 399 106 105 400 97 96 401 106 105 402 107 106 403 97 96 404 108 107 405 97 96 406 107 106 407 107 106 408 109 108 409 108 107 410 108 107 411 109 108 412 110 109 413 111 110 414 110 109 415 109 108 416 112 111 417 113 112 418 114 113 419 115 114 420 114 113 421 113 112 422 116 115 423 117 116 424 118 117 425 119 118 426 118 117 427 117 116 428 118 117 429 119 118 430 120 119 431 121 120 432 120 119 433 119 118 434 122 121 435 123 122 436 124 123 437 125 124 438 124 123 439 123 122 440 124 123 441 126 125 442 122 121 443 127 126 444 122 121 445 126 125 446 123 122 447 128 127 448 125 124 449 129 128 450 125 124 451 128 127 452 129 128 453 128 127 454 130 129 455 131 130 456 130 129 457 128 127 458 131 130 459 132 131 460 130 129 461 133 132 462 130 129 463 132 131 464 132 131 465 134 133 466 133 132 467 135 134 468 133 132 469 134 133 470 135 134 471 134 133 472 136 135 473 137 136 474 136 135 475 134 133 476 127 126 477 126 125 478 138 137 479 139 138 480 138 137 481 126 125 482 140 139 483 141 140 484 142 141 485 143 142 486 142 141 487 141 140 488 141 140 489 144 143 490 143 142 491 145 144 492 143 142 493 144 143 494 145 144 495 144 143 496 146 145 497 147 146 498 146 145 499 144 143 500 147 146 501 148 147 502 146 145 503 149 148 504 146 145 505 148 147 506 149 148 507 148 147 508 150 149 509 151 150 510 150 149 511 148 147 512 150 149 513 151 150 514 152 151 515 153 152 516 152 151 517 151 150 518 152 151 519 153 152 520 154 153 521 155 154 522 154 153 523 153 152 524 156 155 525 157 156 526 158 157 527 159 158 528 158 157 529 157 156 530 158 157 531 160 159 532 156 155 533 161 160 534 156 155 535 160 159 536 162 161 537 159 158 538 157 156 539 157 156 540 163 162 541 162 161 542 164 163 543 162 161 544 163 162 545 161 160 546 160 159 547 165 164 548 166 165 549 165 164 550 160 159 551 35 35 552 167 166 553 34 34 554 168 167 555 34 34 556 167 166 557 169 168 558 170 169 559 171 170 560 172 171 561 171 170 562 170 169 563 173 172 564 50 50 565 174 173 566 49 49 567 174 173 568 50 50 569 174 173 570 175 174 571 173 172 572 176 175 573 173 172 574 175 174 575 177 176 576 178 177 577 179 178 578 178 177 579 177 176 580 180 179 581 181 180 582 180 179 583 177 176 584 181 180 585 182 181 586 180 179 587 183 182 588 180 179 589 182 181 590 182 181 591 184 183 592 183 182 593 184 183 594 182 181 595 185 184 596 186 185 597 185 184 598 182 181 599 182 181 600 181 180 601 186 185 602 185 184 603 186 185 604 187 186 605 188 187 606 187 186 607 186 185 608 188 187 609 186 185 610 181 180 611 187 186 612 188 187 613 189 188 614 190 189 615 189 188 616 188 187 617 177 176 618 190 189 619 181 180 620 188 187 621 181 180 622 190 189 623 189 188 624 190 189 625 191 190 626 190 189 627 177 176 628 191 190 629 191 190 630 177 176 631 179 178 632 192 191 633 183 182 634 184 183 635 193 192 636 194 193 637 195 194 638 193 192 639 196 195 640 194 193 641 197 196 642 194 193 643 196 195 644 197 196 645 198 197 646 194 193 647 196 195 648 193 192 649 199 198 650 199 198 651 200 199 652 196 195 653 201 200 654 197 196 655 196 195 656 201 200 657 196 195 658 202 201 659 196 195 660 200 199 661 202 201 662 198 197 663 203 202 664 194 193 665 204 203 666 194 193 667 203 202 668 203 202 669 205 204 670 204 203 671 206 205 672 204 203 673 205 204 674 204 203 675 206 205 676 207 206 677 208 207 678 207 206 679 206 205 680 204 203 681 207 206 682 209 208 683 204 203 684 209 208 685 194 193 686 210 209 687 209 208 688 207 206 689 207 206 690 211 210 691 210 209 692 212 211 693 210 209 694 211 210 695 202 201 696 213 212 697 201 200 698 213 212 699 202 201 700 214 213 701 215 214 702 214 213 703 202 201 704 202 201 705 216 215 706 215 214 707 217 216 708 215 214 709 216 215 710 216 215 711 218 217 712 217 216 713 218 217 714 216 215 715 219 218 716 200 199 717 219 218 718 216 215 719 200 199 720 220 219 721 219 218 722 221 220 723 219 218 724 220 219 725 220 219 726 222 221 727 221 220 728 222 221 729 220 219 730 223 222 731 224 223 732 221 220 733 222 221 734 225 224 735 217 216 736 218 217 737 217 216 738 225 224 739 226 225 740 227 226 741 226 225 742 225 224 743 217 216 744 228 227 745 215 214 746 229 228 747 215 214 748 228 227 749 229 228 750 230 229 751 215 214 752 230 229 753 229 228 754 231 230 755 232 231 756 231 230 757 229 228 758 229 228 759 228 227 760 233 232 761 233 232 762 232 231 763 229 228 764 234 233 765 233 232 766 228 227 767 226 225 768 227 226 769 235 234 770 236 235 771 235 234 772 227 226 773 235 234 774 236 235 775 237 236 776 238 237 777 237 236 778 236 235 779 231 230 780 239 238 781 230 229 782 239 238 783 240 239 784 230 229 785 241 240 786 230 229 787 240 239 788 230 229 789 241 240 790 214 213 791 214 213 792 215 214 793 230 229 794 213 212 795 214 213 796 241 240 797 241 240 798 242 241 799 213 212 800 243 242 801 213 212 802 242 241 803 243 242 804 201 200 805 213 212 806 201 200 807 243 242 808 244 243 809 201 200 810 244 243 811 197 196 812 198 197 813 197 196 814 244 243 815 245 244 816 244 243 817 243 242 818 242 241 819 246 245 820 243 242 821 245 244 822 243 242 823 246 245 824 246 245 825 242 241 826 247 246 827 248 247 828 247 246 829 242 241 830 248 247 831 242 241 832 249 248 833 241 240 834 249 248 835 242 241 836 241 240 837 250 249 838 249 248 839 240 239 840 250 249 841 241 240 842 251 250 843 223 222 844 199 198 845 199 198 846 193 192 847 251 250 848 195 194 849 251 250 850 193 192 851 223 222 852 220 219 853 199 198 854 200 199 855 199 198 856 220 219 857 195 194 858 194 193 859 209 208 860 216 215 861 202 201 862 200 199 863 252 251 864 253 252 865 254 253 866 254 253 867 255 254 868 252 251 869 256 255 870 252 251 871 255 254 872 255 254 873 257 256 874 256 255 875 258 257 876 256 255 877 257 256 878 257 256 879 255 254 880 259 258 881 260 259 882 259 258 883 255 254 884 255 254 885 254 253 886 260 259 887 259 258 888 260 259 889 261 260 890 262 261 891 261 260 892 260 259 893 263 262 894 261 260 895 262 261 896 264 263 897 260 259 898 254 253 899 260 259 900 264 263 901 262 261 902 264 263 903 254 253 904 265 264 905 254 253 906 253 252 907 265 264 908 264 263 909 265 264 910 266 265 911 266 265 912 262 261 913 264 263 914 267 266 915 266 265 916 265 264 917 267 266 918 265 264 919 268 267 920 269 268 921 268 267 922 265 264 923 266 265 924 267 266 925 270 269 926 271 270 927 270 269 928 267 266 929 267 266 930 272 271 931 271 270 932 262 261 933 266 265 934 273 272 935 274 273 936 273 272 937 266 265 938 270 269 939 274 273 940 266 265 941 269 268 942 265 264 943 253 252 944 262 261 945 275 274 946 263 262 947 275 274 948 262 261 949 276 275 950 277 276 951 276 275 952 262 261 953 278 277 954 263 262 955 275 274 956 267 266 957 268 267 958 279 278 959 272 271 960 267 266 961 279 278 962 280 279 963 279 278 964 268 267 965 279 278 966 280 279 967 281 280 968 282 281 969 281 280 970 280 279 971 282 281 972 283 282 973 281 280 974 284 283 975 281 280 976 283 282 977 276 275 978 277 276 979 285 284 980 286 285 981 276 275 982 285 284 983 273 272 984 277 276 985 262 261 986 278 277 987 287 286 988 263 262 989 287 286 990 278 277 991 288 287 992 289 288 993 288 287 994 278 277 995 289 288 996 290 289 997 288 287 998 289 288 999 291 290 1000 290 289 1001 292 291 1002 290 289 1003 291 290 1004 293 292 1005 294 293 1006 295 294 1007 296 295 1008 295 294 1009 294 293 1010 297 296 1011 298 297 1012 299 298 1013 300 299 1014 299 298 1015 298 297 1016 299 298 1017 301 300 1018 297 296 1019 302 301 1020 297 296 1021 301 300 1022 303 302 1023 304 303 1024 305 304 1025 306 305 1026 305 304 1027 304 303 1028 305 304 1029 306 305 1030 307 306 1031 308 307 1032 307 306 1033 306 305 1034 304 303 1035 303 302 1036 309 308 1037 310 309 1038 309 308 1039 303 302 1040 309 308 1041 310 309 1042 311 310 1043 312 311 1044 311 310 1045 310 309 1046 311 310 1047 312 311 1048 313 312 1049 314 313 1050 313 312 1051 312 311 1052 313 312 1053 314 313 1054 315 314 1055 316 315 1056 315 314 1057 314 313 1058 316 315 1059 317 316 1060 315 314 1061 318 317 1062 315 314 1063 317 316 1064 308 307 1065 319 318 1066 307 306 1067 320 319 1068 307 306 1069 319 318 1070 321 320 1071 322 321 1072 323 322 1073 324 323 1074 323 322 1075 322 321 1076 322 321 1077 321 320 1078 325 324 1079 326 325 1080 325 324 1081 321 320 1082 326 325 1083 327 326 1084 325 324 1085 328 327 1086 325 324 1087 327 326 1088 328 327 1089 327 326 1090 329 328 1091 330 329 1092 329 328 1093 327 326 1094 330 329 1095 331 330 1096 329 328 1097 332 331 1098 329 328 1099 331 330 1100 331 330 1101 333 332 1102 332 331 1103 334 333 1104 332 331 1105 333 332 1106 333 332 1107 335 334 1108 334 333 1109 336 335 1110 334 333 1111 335 334 1112 337 336 1113 338 337 1114 339 338 1115 340 339 1116 339 338 1117 338 337 1118 339 338 1119 340 339 1120 341 340 1121 342 341 1122 341 340 1123 340 339 1124 338 337 1125 337 336 1126 343 342 1127 338 337 1128 343 342 1129 344 343 1130 345 344 1131 344 343 1132 343 342 1133 346 345 1134 341 340 1135 342 341 1136 341 340 1137 346 345 1138 347 346 1139 348 347 1140 349 348 1141 211 210 1142 212 211 1143 211 210 1144 349 348 1145 350 349 1146 351 350 1147 352 351 1148 353 352 1149 352 351 1150 351 350 1151</p>
        </triangles>
      </mesh>
    </geometry>
  </library_geometries>
  <library_controllers/>
  <library_visual_scenes>
    <visual_scene id="Scene" name="Scene">
      <node id="trillarian_fighter_mapped_0" name="trillarian_fighter_mapped_0" type="NODE">
        <matrix sid="transform">1 0 0 0 0 1 0 0 0 0 1 0 0 0 0 1</matrix>
        <instance_geometry url="#trillarian_fighter_mapped_0-mesh" name="trillarian_fighter_mapped_0">
          <bind_material>
            <technique_common>
              <instance_material symbol="Fighter-material" target="#Fighter-material"/>
            </technique_common>
          </bind_material>
        </instance_geometry>
      </node>
    </visual_scene>
  </library_visual_scenes>
  <scene>
    <instance_visual_scene url="#Scene"/>
  </scene>
</COLLADA>