<?xml version="1.0" encoding="utf-8"?>
<COLLADA xmlns="http://www.collada.org/2005/11/COLLADASchema" version="1.4.1" xmlns:xsi="http://www.w3.org/2001/XMLSchema-instance">
  <asset>
    <contributor>
      <author>Blender User</author>
      <authoring_tool>Blender 2.79.0 commit date:2018-03-22, commit time:14:10, hash:f4dc9f9d68b</authoring_tool>
    </contributor>
    <created>2022-09-24T11:53:03</created>
    <modified>2022-09-24T11:53:03</modified>
    <unit name="meter" meter="1"/>
    <up_axis>Z_UP</up_axis>
  </asset>
  <library_images/>
  <library_effects>
    <effect id="Mining-effect">
      <profile_COMMON>
        <technique sid="common">
          <phong>
            <emission>
              <color sid="emission">0 0 0 1</color>
            </emission>
            <ambient>
              <color sid="ambient">0 0 0 1</color>
            </ambient>
            <diffuse>
              <color sid="diffuse">0.64 0.64 0.64 1</color>
            </diffuse>
            <specular>
              <color sid="specular">0.5 0.5 0.5 1</color>
            </specular>
            <shininess>
              <float sid="shininess">50</float>
            </shininess>
            <index_of_refraction>
              <float sid="index_of_refraction">1</float>
            </index_of_refraction>
          </phong>
        </technique>
      </profile_COMMON>
    </effect>
  </library_effects>
  <library_materials>
    <material id="Mining-material" name="Mining">
      <instance_effect url="#Mining-effect"/>
    </material>
  </library_materials>
  <library_geometries>
    <geometry id="Superscalar_gas_harvester_0_057-mesh" name="Superscalar_gas_harvester_0.057">
      <mesh>
        <source id="Superscalar_gas_harvester_0_057-mesh-positions">
          <float_array id="Superscalar_gas_harvester_0_057-mesh-positions-array" count="876">2.591676 2.58471 -0.04272335 1.650384 1.643418 -1.607294 1.053047 3.473039 -0.04272335 0.7085098 2.18721 -1.607294 2.194176 0.7015413 -1.607294 3.480006 1.046077 -0.04272335 2.194176 -0.3860425 -1.607294 3.480005 -0.73058 -0.04272335 1.650384 -1.327917 -1.607294 2.591675 -2.269209 -0.04272335 -0.7236109 3.473039 -0.04272335 -0.379074 2.18721 -1.607294 -2.262241 2.58471 -0.04272335 -1.320949 1.643418 -1.607294 -3.15057 1.04608 -0.04272335 -1.864741 0.7015425 -1.607294 -3.15057 -0.7305769 -0.04272335 -1.864741 -0.3860408 -1.607294 -2.262242 -2.269207 -0.04272335 -1.32095 -1.327916 -1.607294 -0.7236128 -3.157536 -0.04272335 -0.3790755 -1.871708 -1.607294 1.053045 -3.157536 -0.04272335 0.7085079 -1.871708 -1.607294 2.591675 -2.269209 -0.04272335 1.650384 -1.327917 -1.607294 -0.05395406 1.530474 -1.191087 0.3122121 1.472479 -1.191087 -0.2222617 1.200151 -1.191087 0.03988379 0.9380052 -1.191087 0.3702073 1.106313 -1.191087 0.3122121 1.472479 -1.191087 0.2428539 1.403121 12.36268 0.3702073 1.106313 -1.191087 0.2828109 1.150843 12.36268 0.3702073 1.106313 -1.191087 0.2828109 1.150843 12.36268 0.03988379 0.9380052 -1.191087 0.05522817 1.034884 12.36268 0.03988379 0.9380052 -1.191087 0.05522817 1.034884 12.36268 -0.2222617 1.200151 -1.191087 -0.1253823 1.215495 12.36268 -0.2222617 1.200151 -1.191087 -0.1253823 1.215495 12.36268 -0.05395406 1.530474 -1.191087 -0.009423255 1.443078 12.36268 -0.05395406 1.530474 -1.191087 -0.009423255 1.443078 12.36268 0.3122121 1.472479 -1.191087 0.2428539 1.403121 12.36268 -0.6789455 3.306347 1.343863 -2.140214 2.462683 1.343863 1.008381 3.306347 1.343863 3.313313 1.001412 1.343863 -0.6789473 -2.990844 1.343863 -2.983878 -0.6859121 1.343863 -2.983877 1.001415 1.343863 -2.140214 -2.147179 1.343863 2.469647 -2.147181 1.343863 1.008379 -2.990845 1.343863 3.313313 -0.6859146 1.343863 2.469649 2.462682 1.343863 1.053047 3.473039 1.11389 2.591676 2.58471 1.11389 -0.7236109 3.473039 1.11389 -2.262241 2.58471 1.11389 -3.15057 1.04608 1.11389 -3.15057 -0.7305769 1.11389 -2.262242 -2.269207 1.11389 -0.7236128 -3.157536 1.11389 1.053045 -3.157536 1.11389 2.591675 -2.269209 1.11389 3.480005 -0.73058 1.11389 3.480006 1.046077 1.11389 1.650384 -1.327917 -1.607294 0.7085079 -1.871708 -1.607294 2.194176 -0.3860425 -1.607294 1.650384 1.643418 -1.607294 -1.864741 0.7015425 -1.607294 -1.32095 -1.327916 -1.607294 -0.3790755 -1.871708 -1.607294 -1.864741 -0.3860408 -1.607294 -0.379074 2.18721 -1.607294 -1.320949 1.643418 -1.607294 0.7085098 2.18721 -1.607294 2.194176 0.7015413 -1.607294 1.053047 3.473039 -0.04272335 1.053047 3.473039 1.11389 2.591676 2.58471 -0.04272335 2.591676 2.58471 1.11389 -0.7236109 3.473039 1.11389 -0.7236109 3.473039 -0.04272335 -2.262241 2.58471 1.11389 -2.262241 2.58471 -0.04272335 -3.15057 1.04608 1.11389 -3.15057 1.04608 -0.04272335 -3.15057 -0.7305769 1.11389 -3.15057 -0.7305769 -0.04272335 -2.262242 -2.269207 1.11389 -2.262242 -2.269207 -0.04272335 -0.7236128 -3.157536 1.11389 -0.7236128 -3.157536 -0.04272335 1.053045 -3.157536 1.11389 1.053045 -3.157536 -0.04272335 2.591675 -2.269209 1.11389 2.591675 -2.269209 -0.04272335 3.480005 -0.73058 -0.04272335 3.480005 -0.73058 1.11389 2.591675 -2.269209 -0.04272335 2.591675 -2.269209 1.11389 3.480006 1.046077 1.11389 3.480006 1.046077 -0.04272335 1.288548 1.43544 4.863771 1.108086 0.7619429 5.75762 2.263999 0.872263 4.863771 1.770965 0.3792293 5.75762 0.3426583 0.7619429 5.75762 0.1621955 1.43544 4.863771 -0.3202213 0.3792294 5.75762 -0.8132553 0.872263 4.863771 -0.7029352 -0.2836502 5.75762 -1.376432 -0.1031873 4.863771 -0.7029352 -1.049077 5.75762 -1.376432 -1.22954 4.863771 -0.3202216 -1.711957 5.75762 -0.8132553 -2.20499 4.863771 0.3426579 -2.094671 5.75762 0.1621947 -2.768167 4.863771 1.108085 -2.094671 5.75762 1.288547 -2.768167 4.863771 1.770965 -1.711958 5.75762 2.263998 -2.204992 4.863771 2.153679 -1.049079 5.75762 2.827176 -1.229542 4.863771 2.153679 -0.2836515 5.75762 2.827176 -0.1031886 4.863771 1.288548 1.43544 0.8938503 1.288548 1.43544 4.863771 2.263999 0.872263 0.8938503 2.263999 0.872263 4.863771 0.1621955 1.43544 4.863771 0.1621956 1.43544 0.8938503 2.827176 -0.1031887 0.8938503 2.827176 -0.1031886 4.863771 2.827176 -1.229542 0.8938503 2.827176 -1.229542 4.863771 2.263998 -2.204992 0.8938503 2.263998 -2.204992 4.863771 1.288547 -2.768167 0.8938503 1.288547 -2.768167 4.863771 0.162195 -2.768167 0.8938503 0.1621947 -2.768167 4.863771 -0.8132553 -2.20499 0.8938503 -0.8132553 -2.20499 4.863771 -1.376432 -1.22954 0.8938503 -1.376432 -1.22954 4.863771 -1.376432 -0.1031871 0.8938503 -1.376432 -0.1031873 4.863771 -0.8132553 0.872263 0.8938503 -0.8132553 0.872263 4.863771 0.1621956 1.43544 0.8938503 0.1621955 1.43544 4.863771 0.6728196 2.65915 3.825037 0.3536174 2.474858 3.825037 1.041404 2.659151 3.825037 1.544898 2.155656 3.825037 0.672819 1.283578 3.825037 0.1693253 1.787073 3.825037 0.1693254 2.155656 3.825037 0.353617 1.46787 3.825037 1.360606 1.46787 3.825037 1.041403 1.283578 3.825037 1.544897 1.787072 3.825037 1.360606 2.474858 3.825037 1.128303 2.983465 3.231215 1.041404 2.659151 3.825037 1.598021 2.712274 3.231215 1.360606 2.474858 3.825037 0.6728196 2.65915 3.825037 0.5859196 2.983465 3.231215 0.3536174 2.474858 3.825037 0.1162022 2.712274 3.231215 0.1693254 2.155656 3.825037 -0.1549898 2.242556 3.231215 0.1693253 1.787073 3.825037 -0.15499 1.700173 3.231215 0.353617 1.46787 3.825037 0.1162018 1.230455 3.231215 0.672819 1.283578 3.825037 0.5859196 0.959263 3.231215 1.041403 1.283578 3.825037 1.128303 0.959263 3.231215 1.360606 1.46787 3.825037 1.59802 1.230454 3.231215 1.544897 1.787072 3.825037 1.869212 1.700172 3.231215 1.544898 2.155656 3.825037 1.869212 2.242555 3.231215 1.128303 2.983465 0.5938234 1.128303 2.983465 3.231215 1.598021 2.712274 0.5938234 1.598021 2.712274 3.231215 0.5859196 2.983465 3.231215 0.5859196 2.983465 0.5938234 0.1162022 2.712274 3.231215 0.1162022 2.712274 0.5938234 -0.1549898 2.242556 3.231215 -0.1549897 2.242555 0.5938234 -0.15499 1.700173 3.231215 -0.1549898 1.700173 0.5938234 0.1162018 1.230455 3.231215 0.1162018 1.230455 0.5938234 0.5859196 0.959263 3.231215 0.5859194 0.959263 0.5938234 1.128303 0.959263 3.231215 1.128303 0.959263 0.5938234 1.869212 2.242555 0.5938234 1.869212 2.242555 3.231215 1.869212 1.700172 0.5938234 1.869212 1.700172 3.231215 1.59802 1.230454 0.5938234 1.59802 1.230454 3.231215 1.128303 0.959263 0.5938234 1.128303 0.959263 3.231215 -1.557565 2.109011 5.10057 -1.983211 1.863264 5.10057 -1.06607 2.109011 5.10057 -0.3946756 1.437616 5.10057 -1.557565 0.2747284 5.10057 -2.228959 0.9461225 5.10057 -2.228958 1.437617 5.10057 -1.983212 0.5204759 5.10057 -0.6404238 0.5204752 5.10057 -1.06607 0.274728 5.10057 -0.394676 0.9461218 5.10057 -0.6404232 1.863264 5.10057 -0.9501916 2.541476 4.308726 -1.06607 2.109011 5.10057 -0.3238369 2.179849 4.308726 -0.6404232 1.863264 5.10057 -1.557565 2.109011 5.10057 -1.673443 2.541476 4.308726 -1.983211 1.863264 5.10057 -2.299797 2.179851 4.308726 -2.228958 1.437617 5.10057 -2.661424 1.553496 4.308726 -2.228959 0.9461225 5.10057 -2.661423 0.8302445 4.308726 -1.983212 0.5204759 5.10057 -2.299798 0.20389 4.308726 -1.557565 0.2747284 5.10057 -1.673443 -0.157736 4.308726 -1.06607 0.274728 5.10057 -0.9501922 -0.1577363 4.308726 -0.6404238 0.5204752 5.10057 -0.3238378 0.2038891 4.308726 -0.394676 0.9461218 5.10057 0.03778827 0.8302432 4.308726 -0.3946756 1.437616 5.10057 0.03778886 1.553495 4.308726 -0.9501916 2.541476 0.7918453 -0.9501916 2.541476 4.308726 -0.3238371 2.179849 0.7918453 -0.3238369 2.179849 4.308726 -1.673443 2.541476 4.308726 -1.673443 2.541476 0.7918453 -2.299797 2.179851 4.308726 -2.299797 2.17985 0.7918453 -2.661424 1.553496 4.308726 -2.661423 1.553496 0.7918453 -2.661423 0.8302445 4.308726 -2.661423 0.8302445 0.7918453 -2.299798 0.20389 4.308726 -2.299798 0.2038901 0.7918453 -1.673443 -0.157736 4.308726 -1.673443 -0.1577359 0.7918453 -0.9501922 -0.1577363 4.308726 -0.9501922 -0.1577363 0.7918453 -0.3238378 0.2038891 4.308726 -0.3238379 0.2038891 0.7918453 0.03778827 0.8302432 4.308726 0.03778815 0.8302432 0.7918453 0.03778886 1.553495 4.308726 0.03778886 1.553495 0.7918453 0.03778886 1.553495 0.7918453 0.03778886 1.553495 4.308726 0.05522817 1.034884 12.36268 0.2828109 1.150843 12.36268 -0.1253823 1.215495 12.36268 -0.009423255 1.443078 12.36268 0.2428539 1.403121 12.36268</float_array>
          <technique_common>
            <accessor source="#Superscalar_gas_harvester_0_057-mesh-positions-array" count="292" stride="3">
              <param name="X" type="float"/>
              <param name="Y" type="float"/>
              <param name="Z" type="float"/>
            </accessor>
          </technique_common>
        </source>
        <source id="Superscalar_gas_harvester_0_057-mesh-normals">
          <float_array id="Superscalar_gas_harvester_0_057-mesh-normals-array" count="816">0.5385513 0.538551 -0.6480166 0.3349052 0.3349269 -0.880717 0.1971236 0.7356742 -0.6480168 0.1225728 0.4575077 -0.8807172 0.4575077 0.1225726 -0.8807171 0.7356746 0.1971229 -0.6480166 0.4574995 -0.1226031 -0.8807172 0.7356744 -0.1971239 -0.6480165 0.3349498 -0.3349274 -0.8806999 0.5385617 -0.5385343 -0.6480218 -0.1971234 0.7356743 -0.6480168 -0.1226028 0.4574998 -0.8807172 -0.5385509 0.5385512 -0.6480166 -0.334905 0.3349269 -0.8807172 -0.7356745 0.1971235 -0.6480166 -0.4574998 0.1226027 -0.880717 -0.7356746 -0.1971234 -0.6480165 -0.4574999 -0.1226027 -0.880717 -0.5385515 -0.538551 -0.6480165 -0.3349055 -0.3349269 -0.8807169 -0.1971236 -0.7356745 -0.6480166 -0.1225728 -0.4575079 -0.880717 0.1971231 -0.7356746 -0.6480165 0.1226025 -0.4575002 -0.8807169 0.5385335 -0.5385623 -0.6480219 0.3349266 -0.3349507 -0.8806999 0 0 -1 0.9876714 0.1564323 0.005854666 0.9876714 0.1564325 0.005854666 0.9876714 0.1564323 0.005854666 0.9876714 0.1564325 0.005854666 0.4539819 -0.8909918 0.005854606 0.4539833 -0.8909911 0.005854606 0.4539819 -0.8909916 0.005854606 0.4539833 -0.890991 0.005854606 -0.7070949 -0.7070944 0.005854606 -0.707096 -0.7070933 0.005854666 -0.7070949 -0.7070944 0.005854606 -0.7070961 -0.7070933 0.005854666 -0.8909915 0.4539822 0.005854606 -0.8909916 0.4539821 0.005854606 -0.8909915 0.4539822 0.005854606 -0.8909916 0.4539822 0.005854606 0.15643 0.9876718 0.005854606 0.1564345 0.9876711 0.005854666 0.1564301 0.9876717 0.005854606 0.1564346 0.9876711 0.005854666 -0.1301054 0.4855599 0.8644676 -0.3554552 0.3554549 0.8644672 0.1301057 0.4855604 0.8644673 0.4855603 0.1301054 0.8644673 -0.1301058 -0.4855604 0.8644672 -0.4855611 -0.1301055 0.8644669 -0.48556 0.1301054 0.8644676 -0.3554547 -0.3554546 0.8644676 0.3554541 -0.3554544 0.8644679 0.1301053 -0.4855616 0.8644667 0.4855608 -0.130106 0.864467 0.3554551 0.355455 0.8644672 0.2467415 0.9209161 0.3017153 0.6741669 0.6741418 0.3017148 -0.2467408 0.9209161 0.3017162 -0.6741668 0.674142 0.3017148 -0.9209072 0.2467745 0.3017155 -0.9209079 -0.2467741 0.3017139 -0.6741665 -0.6741418 0.3017158 -0.2467753 -0.9209071 0.3017154 0.2467406 -0.9209171 0.3017133 0.674166 -0.6741419 0.3017168 0.9209164 -0.2467417 0.3017145 0.9209074 0.2467739 0.3017156 0.3349015 -0.3349395 -0.8807137 0.1226147 -0.4575032 -0.8807137 0.4575031 -0.1226152 -0.8807137 0.3349394 0.3349017 -0.8807137 -0.4575031 0.1226149 -0.8807137 -0.334902 -0.3349391 -0.8807136 -0.122615 -0.4575031 -0.8807137 -0.4575176 -0.1225637 -0.8807132 -0.1225638 0.4575169 -0.8807137 -0.3349018 0.3349393 -0.8807137 0.1225638 0.4575168 -0.8807137 0.4575173 0.1225636 -0.8807134 0.2588194 0.9659258 0 0.2467565 0.9209117 0.3017167 0.7071071 0.7071066 0 0.6741439 0.674164 0.3017167 -0.2467658 0.9209092 0.3017168 -0.2588191 0.9659259 0 -0.6741643 0.6741436 0.3017167 -0.7071068 0.7071068 0 -0.9209001 0.2467995 0.3017167 -0.9659258 0.2588193 0 -0.9209077 -0.2467713 0.3017167 -0.9659259 -0.258819 0 -0.674144 -0.6741639 0.3017167 -0.7071071 -0.7071066 0 -0.2467997 -0.9209001 0.3017167 -0.2588194 -0.9659258 0 0.2467711 -0.9209079 0.3017167 0.2588187 -0.9659259 0 0.6741504 -0.6741575 0.3017169 0.7071007 -0.707113 1.24223e-5 0.9659257 -0.2588197 0 0.9209135 -0.2467498 0.3017167 0.707112 -0.7071017 1.24051e-4 0.6741564 -0.6741514 0.301717 0.9209079 0.2467709 0.3017168 0.965926 0.2588185 0 0.2040734 0.7616128 0.615061 0.1278319 0.4770757 0.8695159 0.5575392 0.5575394 0.615061 0.3492445 0.3492435 0.8695155 -0.1278319 0.4770757 0.8695159 -0.2040736 0.7616128 0.615061 -0.3492439 0.3492438 0.8695157 -0.5575397 0.5575391 0.6150608 -0.4770759 0.1278321 0.8695158 -0.7616128 0.2040736 0.615061 -0.4770762 -0.1278319 0.8695156 -0.761613 -0.2040735 0.6150608 -0.3492438 -0.3492438 0.8695157 -0.5575395 -0.5575394 0.6150606 -0.1278321 -0.4770758 0.8695158 -0.2040737 -0.7616128 0.6150609 0.1278319 -0.4770759 0.8695158 0.2040732 -0.761613 0.6150608 0.3492434 -0.3492441 0.8695158 0.5575386 -0.5575397 0.6150612 0.4770755 -0.1278324 0.869516 0.7616125 -0.2040741 0.6150612 0.4770759 0.1278316 0.8695158 0.7616128 0.2040732 0.615061 0.2588191 0.9659259 0 0.2588192 0.9659259 0 0.7071069 0.7071067 0 0.707107 0.7071066 0 -0.2588113 0.9659279 -1.23637e-5 -0.2588113 0.9659279 1.24136e-5 0.9659259 0.2588188 0 0.9659259 0.2588188 0 0.9659257 -0.2588198 0 0.9659257 -0.2588196 0 0.7071061 -0.7071075 0 0.7071061 -0.7071075 0 0.2588185 -0.965926 0 0.2588184 -0.965926 0 -0.2588193 -0.9659259 0 -0.2588194 -0.9659258 0 -0.7071069 -0.7071067 0 -0.9659259 -0.2588191 0 -0.9659259 -0.2588191 0 -0.9659259 0.2588191 0 -0.9659259 0.2588191 0 -0.7071068 0.7071067 0 -0.7071069 0.7071067 0 -0.2588269 0.9659238 1.23546e-5 -0.258827 0.9659237 -1.24663e-5 0 0 1 3.50994e-7 0 1 3.50994e-7 0 1 3.50995e-6 0 1 0.2509633 0.9365577 0.2446983 0.2252995 0.8408281 0.4921871 0.6856204 0.6855999 0.2446987 0.6155296 0.6155281 0.4921875 -0.2252998 0.8408282 0.4921868 -0.2509641 0.9365573 0.244699 -0.6155287 0.615529 0.4921875 -0.6856195 0.6856007 0.2446992 -0.840828 0.2252995 0.4921873 -0.9365643 0.2509379 0.244699 -0.8408284 -0.225299 0.492187 -0.9365574 -0.2509637 0.2446988 -0.6155294 -0.6155287 0.4921871 -0.6856201 -0.6856003 0.2446985 -0.2252996 -0.8408281 0.4921872 -0.250964 -0.9365574 0.2446987 0.2252991 -0.8408282 0.4921871 0.2509372 -0.9365646 0.2446987 0.6155288 -0.6155293 0.492187 0.6856193 -0.6856011 0.2446987 0.840828 -0.2253007 0.4921872 0.9365643 -0.2509385 0.2446986 0.8408284 0.2252997 0.4921866 0.9365647 0.2509371 0.244698 0.2588185 0.9659261 0 0.2509613 0.9365572 0.2447021 0.707107 0.7071067 0 0.6856181 0.6856009 0.2447022 -0.2509616 0.9365571 0.2447021 -0.2588188 0.9659259 0 -0.6856175 0.6856017 0.2447022 -0.7071068 0.7071069 0 -0.9365618 0.250944 0.2447021 -0.9659259 0.2588189 -1.73563e-7 -0.9365571 -0.2509617 0.2447021 -0.9659259 -0.2588188 0 -0.685618 -0.6856012 0.2447021 -0.7071071 -0.7071065 0 -0.2509394 -0.9365631 0.2447022 -0.2588192 -0.9659259 0 0.2509365 -0.9365647 0.2446991 0.2588114 -0.965928 1.24223e-5 0.9659261 0.2588183 0 0.9365418 0.2510187 0.244702 0.9659256 -0.2588198 0 0.9365617 -0.2509444 0.2447022 0.7071063 -0.7071073 0 0.6855675 -0.6856516 0.2447021 0.2588269 -0.9659238 1.23637e-5 0.2509647 -0.9365571 0.2446991 0 0 1 -1.62863e-7 0 1 4.29316e-7 0 1 3.94787e-7 0 1 3.94787e-6 0 1 -7.79786e-7 0 1 1.97393e-6 0 1 0.2509382 0.9365644 0.2446985 0.2252993 0.840828 0.4921876 0.6856008 0.6856196 0.2446985 0.6155287 0.615529 0.4921875 -0.2252993 0.840828 0.4921877 -0.2509375 0.9365643 0.2446991 -0.6155291 0.6155284 0.4921876 -0.6856003 0.6856198 0.2446994 -0.8408273 0.2253001 0.4921883 -0.9365572 0.250964 0.2446995 -0.8408284 -0.2252987 0.4921873 -0.9365574 -0.2509641 0.2446983 -0.6155295 -0.6155285 0.4921872 -0.6856011 -0.6856193 0.2446985 -0.2252994 -0.840828 0.4921875 -0.2509645 -0.9365572 0.2446987 0.2252997 -0.8408281 0.4921873 0.2509635 -0.9365574 0.2446988 0.6155287 -0.6155292 0.4921873 0.6856194 -0.6856008 0.244699 0.840828 -0.2252998 0.4921873 0.9365644 -0.250938 0.2446987 0.8408282 0.2252987 0.4921875 0.9365646 0.250937 0.2446988 0.2588195 0.9659258 0 0.2510651 0.9365293 0.2447022 0.7071071 0.7071066 0 0.6856015 0.6856175 0.2447022 -0.2509393 0.9365631 0.2447022 -0.2588192 0.9659259 0 -0.6856178 0.6856014 0.2447021 -0.7071071 0.7071065 -1.84682e-7 -0.9365511 0.2509843 0.2447021 -0.9659259 0.2588187 0 -0.936566 -0.2509286 0.2447019 -0.9659259 -0.2588188 0 -0.6856018 -0.6856173 0.2447021 -0.707107 -0.7071066 0 -0.2509214 -0.936568 0.2447021 -0.2588194 -0.9659258 0 0.2509614 -0.9365572 0.2447021 0.2588185 -0.9659261 0 0.6856308 -0.6855884 0.2447021 0.7071065 -0.7071071 0 0.9365569 -0.2509624 0.2447021 0.9659257 -0.2588198 0 0.9365649 0.2509356 0.2446991 0.9659282 0.2588104 1.24223e-5 0.9659237 0.2588269 1.22849e-5 0.936557 0.2509649 0.2446991 -3.84252e-6 0 1 -1.28084e-6 0 1 -1.28084e-6 0 1</float_array>
          <technique_common>
            <accessor source="#Superscalar_gas_harvester_0_057-mesh-normals-array" count="272" stride="3">
              <param name="X" type="float"/>
              <param name="Y" type="float"/>
              <param name="Z" type="float"/>
            </accessor>
          </technique_common>
        </source>
        <source id="Superscalar_gas_harvester_0_057-mesh-map-0">
          <float_array id="Superscalar_gas_harvester_0_057-mesh-map-0-array" count="1692">0.6400826 0.6668777 0.6308957 0.6002927 0.7019404 0.6483852 0.6730683 0.5876764 0.7019404 0.6483852 0.6308957 0.6002927 0.6308957 0.6002927 0.6400826 0.6668777 0.5868874 0.5995913 0.5755186 0.6658119 0.5868874 0.5995913 0.6400826 0.6668777 0.5868874 0.5995913 0.5755186 0.6658119 0.5451665 0.5858134 0.514074 0.6449323 0.5451665 0.5858134 0.5755186 0.6658119 0.5451665 0.5858134 0.514074 0.6449323 0.5108613 0.5601909 0.4598889 0.6058159 0.5108613 0.5601909 0.514074 0.6449323 0.7019404 0.6483852 0.6730683 0.5876764 0.7552942 0.6120872 0.7094733 0.5628978 0.7552942 0.6120872 0.6730683 0.5876764 0.7552942 0.6120872 0.7094733 0.5628978 0.7953262 0.5613487 0.7366074 0.5287286 0.7953262 0.5613487 0.7094733 0.5628978 0.7953262 0.5613487 0.7366074 0.5287286 0.8172722 0.500454 0.7512541 0.488059 0.8172722 0.500454 0.7366074 0.5287286 0.8172722 0.500454 0.7512541 0.488059 0.8189056 0.4357799 0.7523404 0.4448293 0.8189056 0.4357799 0.7512541 0.488059 0.8189056 0.4357799 0.7523404 0.4448293 0.8000695 0.3738916 0.7397552 0.4034591 0.8000695 0.3738916 0.7523404 0.4448293 0.8000695 0.3738916 0.7397552 0.4034591 0.7626599 0.3210866 0.7148044 0.3681602 0.7626599 0.3210866 0.7397552 0.4034591 0.7626599 0.3210866 0.7148044 0.3681602 0.7102947 0.2826909 0.6801475 0.3425509 0.7102947 0.2826909 0.7148044 0.3681602 0.7102947 0.2826909 0.6801475 0.3425509 0.646566 0.2626392 0.6395848 0.3301647 0.646566 0.2626392 0.6801475 0.3425509 0.9065175 0.2762458 0.8840076 0.2926006 0.8979194 0.2497835 0.8979194 0.2497835 0.8840076 0.2926006 0.8700961 0.2497835 0.8700961 0.2497835 0.8840076 0.2926006 0.8614982 0.2762458 0.9699663 0.5059664 0.9785622 0.1298584 0.9841597 0.5062071 0.9883407 0.1300241 0.9841597 0.5062071 0.9785622 0.1298584 0.9132477 0.5033363 0.9394876 0.1280463 0.9274143 0.5042431 0.9492477 0.1286712 0.9274143 0.5042431 0.9394876 0.1280463 0.9274143 0.5042431 0.9492477 0.1286712 0.9415911 0.5049843 0.9590143 0.1291816 0.9415911 0.5049843 0.9492477 0.1286712 0.9415911 0.5049843 0.9590143 0.1291816 0.955776 0.5055585 0.9687864 0.1295773 0.955776 0.5055585 0.9590143 0.1291816 0.955776 0.5055585 0.9687864 0.1295773 0.9699663 0.5059664 0.9785622 0.1298584 0.9699663 0.5059664 0.9687864 0.1295773 0.3473034 0.8245399 0.3486702 0.765349 0.3757116 0.876485 0.3486702 0.765349 0.4854732 0.9086183 0.3757116 0.876485 0.5411592 0.7185137 0.4854732 0.9086183 0.3486702 0.765349 0.4313972 0.686379 0.5411592 0.7185137 0.3486702 0.765349 0.3794403 0.7147656 0.4313972 0.686379 0.3486702 0.765349 0.4905855 0.6877337 0.5411592 0.7185137 0.4313972 0.686379 0.5681998 0.8296489 0.4854732 0.9086183 0.5411592 0.7185137 0.569568 0.7704582 0.5681998 0.8296489 0.5411592 0.7185137 0.5374296 0.8802317 0.4854732 0.9086183 0.5681998 0.8296489 0.3757116 0.876485 0.4854732 0.9086183 0.4262849 0.9072652 0.3757116 0.876485 0.4262849 0.9072652 0.369712 0.8822135 0.4239537 0.9152269 0.369712 0.8822135 0.4262849 0.9072652 0.4262849 0.9072652 0.4854732 0.9086183 0.4239537 0.9152269 0.3473034 0.8245399 0.3757116 0.876485 0.3392442 0.826501 0.369712 0.8822135 0.3392442 0.826501 0.3757116 0.876485 0.3486702 0.765349 0.3473034 0.8245399 0.3407092 0.7630176 0.3392442 0.826501 0.3407092 0.7630176 0.3473034 0.8245399 0.3794403 0.7147656 0.3486702 0.765349 0.373709 0.70876 0.3407092 0.7630176 0.373709 0.70876 0.3486702 0.765349 0.4313972 0.686379 0.3794403 0.7147656 0.4294396 0.6783249 0.373709 0.70876 0.4294396 0.6783249 0.3794403 0.7147656 0.4905855 0.6877337 0.4313972 0.686379 0.492917 0.6797726 0.4294396 0.6783249 0.492917 0.6797726 0.4313972 0.686379 0.5411592 0.7185137 0.4905855 0.6877337 0.547159 0.7127855 0.492917 0.6797726 0.547159 0.7127855 0.4905855 0.6877337 0.569568 0.7704582 0.5411592 0.7185137 0.5776275 0.7684973 0.547159 0.7127855 0.5776275 0.7684973 0.5411592 0.7185137 0.5681998 0.8296489 0.569568 0.7704582 0.5761606 0.8319803 0.5776275 0.7684973 0.5761606 0.8319803 0.569568 0.7704582 0.5374296 0.8802317 0.5681998 0.8296489 0.5431608 0.8862371 0.5761606 0.8319803 0.5431608 0.8862371 0.5681998 0.8296489 0.5431608 0.8862371 0.4874309 0.9166721 0.5374296 0.8802317 0.4854732 0.9086183 0.5374296 0.8802317 0.4874309 0.9166721 0.4874309 0.9166721 0.4239537 0.9152269 0.4854732 0.9086183 0.2338324 0.6279126 0.2537528 0.5939723 0.2335508 0.6672662 0.2537528 0.5939723 0.2869243 0.7214087 0.2335508 0.6672662 0.3807018 0.6289632 0.2869243 0.7214087 0.2537528 0.5939723 0.3273284 0.5748208 0.3807018 0.6289632 0.2537528 0.5939723 0.2879748 0.5745392 0.3273284 0.5748208 0.2537528 0.5939723 0.3612688 0.5947412 0.3807018 0.6289632 0.3273284 0.5748208 0.3604997 0.7022572 0.2869243 0.7214087 0.3807018 0.6289632 0.3804203 0.6683167 0.3604997 0.7022572 0.3807018 0.6289632 0.3262779 0.7216902 0.2869243 0.7214087 0.3604997 0.7022572 0.2335508 0.6672662 0.2869243 0.7214087 0.2529838 0.7014881 0.7019404 0.6483852 0.715613 0.6771067 0.6400826 0.6668777 0.6444237 0.6983807 0.6400826 0.6668777 0.715613 0.6771067 0.715613 0.6771067 0.7019404 0.6483852 0.7770759 0.6352763 0.7552942 0.6120872 0.7770759 0.6352763 0.7019404 0.6483852 0.7770759 0.6352763 0.7552942 0.6120872 0.8231013 0.576627 0.7953262 0.5613487 0.8231013 0.576627 0.7552942 0.6120872 0.8231013 0.576627 0.7953262 0.5613487 0.8484344 0.5062914 0.8172722 0.500454 0.8484344 0.5062914 0.7953262 0.5613487 0.8484344 0.5062914 0.8172722 0.500454 0.8503252 0.4315069 0.8189056 0.4357799 0.8503252 0.4315069 0.8172722 0.500454 0.8503252 0.4315069 0.8189056 0.4357799 0.8285347 0.3599352 0.8000695 0.3738916 0.8285347 0.3599352 0.8189056 0.4357799 0.8285347 0.3599352 0.8000695 0.3738916 0.785274 0.2989305 0.7626599 0.3210866 0.785274 0.2989305 0.8000695 0.3738916 0.785274 0.2989305 0.7626599 0.3210866 0.7252232 0.2548695 0.7102947 0.2826909 0.7252232 0.2548695 0.7626599 0.3210866 0.7252232 0.2548695 0.7102947 0.2826909 0.6577133 0.2316444 0.646566 0.2626392 0.6577133 0.2316444 0.7102947 0.2826909 0.514074 0.6449323 0.5003947 0.6732672 0.4598889 0.6058159 0.4415279 0.6337517 0.4598889 0.6058159 0.5003947 0.6732672 0.5003947 0.6732672 0.514074 0.6449323 0.5701483 0.6971166 0.5755186 0.6658119 0.5701483 0.6971166 0.514074 0.6449323 0.5701483 0.6971166 0.5755186 0.6658119 0.6444237 0.6983807 0.6400826 0.6668777 0.6444237 0.6983807 0.5755186 0.6658119 0.6863545 0.9252003 0.7358214 0.8870555 0.751928 0.9752687 0.7756951 0.9175008 0.751928 0.9752687 0.7358214 0.8870555 0.7358214 0.8870555 0.6863545 0.9252003 0.7165121 0.8407531 0.6545998 0.8490542 0.7165121 0.8407531 0.6863545 0.9252003 0.7165121 0.8407531 0.6545998 0.8490542 0.7229419 0.7910011 0.7165121 0.8407531 0.7229419 0.7910011 0.7358214 0.8870555 0.6651739 0.7672339 0.7229419 0.7910011 0.6545998 0.8490542 0.7229419 0.7910011 0.6651739 0.7672339 0.7533876 0.7511275 0.7152426 0.7016609 0.7533876 0.7511275 0.6651739 0.7672339 0.7533876 0.7511275 0.7152426 0.7016609 0.7996909 0.7318185 0.7533876 0.7511275 0.7996909 0.7318185 0.7229419 0.7910011 0.7913895 0.6699069 0.7996909 0.7318185 0.7152426 0.7016609 0.7996909 0.7318185 0.7913895 0.6699069 0.8494446 0.7382482 0.8732117 0.6804805 0.8494446 0.7382482 0.7913895 0.6699069 0.8494446 0.7382482 0.8732117 0.6804805 0.8893183 0.7686935 0.8494446 0.7382482 0.8893183 0.7686935 0.7996909 0.7318185 0.7996909 0.7318185 0.8893183 0.7686935 0.7229419 0.7910011 0.9387851 0.7305487 0.8893183 0.7686935 0.8732117 0.6804805 0.8893183 0.7686935 0.9387851 0.7305487 0.9086275 0.8149963 0.9705396 0.8066953 0.9086275 0.8149963 0.9387851 0.7305487 0.9086275 0.8149963 0.9705396 0.8066953 0.9021978 0.8647483 0.9086275 0.8149963 0.9021978 0.8647483 0.8893183 0.7686935 0.9599659 0.8885153 0.9021978 0.8647483 0.9705396 0.8066953 0.9021978 0.8647483 0.9599659 0.8885153 0.8717521 0.9046219 0.9098971 0.954088 0.8717521 0.9046219 0.9599659 0.8885153 0.8717521 0.9046219 0.9098971 0.954088 0.8254489 0.9239305 0.8717521 0.9046219 0.8254489 0.9239305 0.9021978 0.8647483 0.9021978 0.8647483 0.8254489 0.9239305 0.8893183 0.7686935 0.8337504 0.9858425 0.8254489 0.9239305 0.9098971 0.954088 0.8254489 0.9239305 0.8337504 0.9858425 0.7756951 0.9175008 0.751928 0.9752687 0.7756951 0.9175008 0.8337504 0.9858425 0.8893183 0.7686935 0.8254489 0.9239305 0.7229419 0.7910011 0.7229419 0.7910011 0.8254489 0.9239305 0.7358214 0.8870555 0.7358214 0.8870555 0.8254489 0.9239305 0.7756951 0.9175008 0.09651035 0.216149 0.09711498 0.02442866 0.1715572 0.2163873 0.1721585 0.02466696 0.1715572 0.2163873 0.09711498 0.02442866 0.09711498 0.02442866 0.09651035 0.216149 0.02207046 0.02419126 0.02146476 0.2159116 0.02207046 0.02419126 0.09651035 0.216149 0.1715572 0.2163873 0.1721585 0.02466696 0.246606 0.2166237 0.2472001 0.02490323 0.246606 0.2166237 0.1721585 0.02466696 0.246606 0.2166237 0.2472001 0.02490323 0.3216571 0.2168561 0.3222399 0.02513551 0.3216571 0.2168561 0.2472001 0.02490323 0.3216571 0.2168561 0.3222399 0.02513551 0.3967099 0.2170829 0.3972787 0.02536273 0.3967099 0.2170829 0.3222399 0.02513551 0.3967099 0.2170829 0.3972787 0.02536273 0.4717628 0.2173036 0.4723161 0.0255835 0.4717628 0.2173036 0.3972787 0.02536273 0.4717628 0.2173036 0.4723161 0.0255835 0.5468163 0.217517 0.547353 0.02579653 0.5468163 0.217517 0.4723161 0.0255835 0.5468163 0.217517 0.547353 0.02579653 0.6218684 0.2177228 0.6223904 0.02600228 0.6218684 0.2177228 0.547353 0.02579653 0.6218684 0.2177228 0.6223904 0.02600228 0.6969189 0.2179226 0.6974291 0.02620184 0.6969189 0.2179226 0.6223904 0.02600228 0.6969189 0.2179226 0.6974291 0.02620184 0.7719681 0.218118 0.7724708 0.02639734 0.7719681 0.218118 0.6974291 0.02620184 0.7719681 0.218118 0.7724708 0.02639734 0.8470154 0.218312 0.8475141 0.02659136 0.8470154 0.218312 0.7724708 0.02639734 0.8470154 0.218312 0.8475141 0.02659136 0.9220613 0.218506 0.9225593 0.02678561 0.9220613 0.218506 0.8475141 0.02659136 0.5824883 0.4686074 0.6054832 0.4598943 0.5669365 0.4876503 0.6054832 0.4598943 0.5717053 0.5349115 0.5669365 0.4876503 0.653563 0.5266402 0.5717053 0.5349115 0.6054832 0.4598943 0.6487943 0.4793793 0.653563 0.5266402 0.6054832 0.4598943 0.6297548 0.4638262 0.6487943 0.4793793 0.6054832 0.4598943 0.6575112 0.5023714 0.653563 0.5266402 0.6487943 0.4793793 0.6150166 0.5543966 0.5717053 0.5349115 0.653563 0.5266402 0.6380116 0.5456833 0.6150166 0.5543966 0.653563 0.5266402 0.5907452 0.5504645 0.5717053 0.5349115 0.6150166 0.5543966 0.5669365 0.4876503 0.5717053 0.5349115 0.5629884 0.5119195 0.5335593 0.4726292 0.5669365 0.4876503 0.5265712 0.5155996 0.5629884 0.5119195 0.5265712 0.5155996 0.5669365 0.4876503 0.5669365 0.4876503 0.5335593 0.4726292 0.5824883 0.4686074 0.5610904 0.4389132 0.5824883 0.4686074 0.5335593 0.4726292 0.5824883 0.4686074 0.5610904 0.4389132 0.6054832 0.4598943 0.6017797 0.423482 0.6054832 0.4598943 0.5610904 0.4389132 0.6054832 0.4598943 0.6017797 0.423482 0.6297548 0.4638262 0.6447546 0.4304368 0.6297548 0.4638262 0.6017797 0.423482 0.6297548 0.4638262 0.6447546 0.4304368 0.6487943 0.4793793 0.678491 0.4579792 0.6487943 0.4793793 0.6447546 0.4304368 0.6487943 0.4793793 0.678491 0.4579792 0.6575112 0.5023714 0.6939286 0.4986912 0.6575112 0.5023714 0.678491 0.4579792 0.6575112 0.5023714 0.6939286 0.4986912 0.653563 0.5266402 0.6869402 0.5416614 0.653563 0.5266402 0.6939286 0.4986912 0.653563 0.5266402 0.6869402 0.5416614 0.6380116 0.5456833 0.659409 0.5753773 0.6380116 0.5456833 0.6869402 0.5416614 0.6380116 0.5456833 0.659409 0.5753773 0.6150166 0.5543966 0.6187202 0.5908089 0.6150166 0.5543966 0.659409 0.5753773 0.6150166 0.5543966 0.6187202 0.5908089 0.5907452 0.5504645 0.575745 0.5838539 0.5907452 0.5504645 0.6187202 0.5908089 0.5907452 0.5504645 0.575745 0.5838539 0.5717053 0.5349115 0.542009 0.5563118 0.5717053 0.5349115 0.575745 0.5838539 0.5717053 0.5349115 0.542009 0.5563118 0.5629884 0.5119195 0.5265712 0.5155996 0.5629884 0.5119195 0.542009 0.5563118 0.2149138 0.4360296 0.2131552 0.5633869 0.1787751 0.4355341 0.1770263 0.5628913 0.1787751 0.4355341 0.2131552 0.5633869 0.2131552 0.5633869 0.2149138 0.4360296 0.2492824 0.5638865 0.2510536 0.4365297 0.2492824 0.5638865 0.2149138 0.4360296 0.2492824 0.5638865 0.2510536 0.4365297 0.2854097 0.5643916 0.2871934 0.437035 0.2854097 0.5643916 0.2510536 0.4365297 0.2854097 0.5643916 0.2871934 0.437035 0.3215381 0.5649007 0.3233319 0.4375443 0.3215381 0.5649007 0.2871934 0.437035 0.3215381 0.5649007 0.3233319 0.4375443 0.3576681 0.5654131 0.3594694 0.4380568 0.3576681 0.5654131 0.3233319 0.4375443 0.3576681 0.5654131 0.3594694 0.4380568 0.3937995 0.5659268 0.3956057 0.4385707 0.3937995 0.5659268 0.3594694 0.4380568 0.3937995 0.5659268 0.3956057 0.4385707 0.429932 0.5664409 0.4317407 0.4390845 0.429932 0.5664409 0.3956057 0.4385707 0.429932 0.5664409 0.4317407 0.4390845 0.4660656 0.5669542 0.4678749 0.4395975 0.4660656 0.5669542 0.4317407 0.4390845 0.1787751 0.4355341 0.1770263 0.5628913 0.1426375 0.4350414 0.1426375 0.4350414 0.140897 0.5623985 0.1065011 0.4345499 0.1047658 0.5619074 0.1065011 0.4345499 0.140897 0.5623985 0.1065011 0.4345499 0.1047658 0.5619074 0.07036602 0.4340592 0.06863284 0.5614166 0.07036602 0.4340592 0.1047658 0.5619074 0.07036602 0.4340592 0.06863284 0.5614166 0.03423166 0.4335681 0.03249877 0.5609252 0.03423166 0.4335681 0.06863284 0.5614166 0.140897 0.5623985 0.1426375 0.4350414 0.1770263 0.5628913 0.8849926 0.5599238 0.9078171 0.55127 0.8695583 0.578831 0.9078171 0.55127 0.8743025 0.6257464 0.8695583 0.578831 0.9555601 0.6175207 0.8743025 0.6257464 0.9078171 0.55127 0.9508163 0.5706066 0.9555601 0.6175207 0.9078171 0.55127 0.9319119 0.5551711 0.9508163 0.5706066 0.9078171 0.55127 0.9594738 0.5934284 0.9555601 0.6175207 0.9508163 0.5706066 0.9173014 0.6450825 0.8743025 0.6257464 0.9555601 0.6175207 0.9401257 0.6364276 0.9173014 0.6450825 0.9555601 0.6175207 0.893207 0.6411818 0.8743025 0.6257464 0.9173014 0.6450825 0.8695583 0.578831 0.8743025 0.6257464 0.8656446 0.602924 0.8364221 0.5639251 0.8695583 0.578831 0.829494 0.6065838 0.8656446 0.602924 0.829494 0.6065838 0.8695583 0.578831 0.8695583 0.578831 0.8364221 0.5639251 0.8849926 0.5599238 0.8637462 0.5304494 0.8849926 0.5599238 0.8364221 0.5639251 0.8849926 0.5599238 0.8637462 0.5304494 0.9078171 0.55127 0.9041376 0.5151236 0.9078171 0.55127 0.8637462 0.5304494 0.9078171 0.55127 0.9041376 0.5151236 0.9319119 0.5551711 0.946799 0.5220248 0.9319119 0.5551711 0.9041376 0.5151236 0.9319119 0.5551711 0.946799 0.5220248 0.9508163 0.5706066 0.9802918 0.5493585 0.9508163 0.5706066 0.946799 0.5220248 0.9508163 0.5706066 0.9802918 0.5493585 0.9594738 0.5934284 0.9956245 0.589769 0.9594738 0.5934284 0.9802918 0.5493585 0.9594738 0.5934284 0.9956245 0.589769 0.9555601 0.6175207 0.9886965 0.6324263 0.9555601 0.6175207 0.9956245 0.589769 0.9555601 0.6175207 0.9886965 0.6324263 0.9401257 0.6364276 0.9613725 0.6659015 0.9401257 0.6364276 0.9886965 0.6324263 0.9401257 0.6364276 0.9613725 0.6659015 0.9173014 0.6450825 0.9209813 0.6812288 0.9173014 0.6450825 0.9613725 0.6659015 0.9173014 0.6450825 0.9209813 0.6812288 0.893207 0.6411818 0.8783197 0.6743284 0.893207 0.6411818 0.9209813 0.6812288 0.893207 0.6411818 0.8783197 0.6743284 0.8743025 0.6257464 0.8448268 0.6469949 0.8743025 0.6257464 0.8783197 0.6743284 0.8743025 0.6257464 0.8448268 0.6469949 0.8656446 0.602924 0.829494 0.6065838 0.8656446 0.602924 0.8448268 0.6469949 0.5074446 0.409751 0.5083042 0.2399106 0.5556339 0.4099921 0.5564902 0.2401518 0.5556339 0.4099921 0.5083042 0.2399106 0.5083042 0.2399106 0.5074446 0.409751 0.4601198 0.2396677 0.4592541 0.4095083 0.4601198 0.2396677 0.5074446 0.409751 0.4601198 0.2396677 0.4592541 0.4095083 0.411937 0.2394229 0.4110626 0.4092631 0.411937 0.2394229 0.4592541 0.4095083 0.411937 0.2394229 0.4110626 0.4092631 0.3637559 0.2391744 0.3628699 0.4090145 0.3637559 0.2391744 0.4110626 0.4092631 0.3637559 0.2391744 0.3628699 0.4090145 0.3155751 0.2389219 0.3146766 0.4087618 0.3155751 0.2389219 0.3628699 0.4090145 0.3155751 0.2389219 0.3146766 0.4087618 0.2673942 0.2386646 0.266483 0.4085044 0.2673942 0.2386646 0.3146766 0.4087618 0.2673942 0.2386646 0.266483 0.4085044 0.2192122 0.2384028 0.2182902 0.4082427 0.2192122 0.2384028 0.266483 0.4085044 0.2192122 0.2384028 0.2182902 0.4082427 0.171029 0.2381379 0.1700986 0.4079775 0.171029 0.2381379 0.2182902 0.4082427 0.171029 0.2381379 0.1700986 0.4079775 0.122844 0.2378717 0.1219082 0.4077114 0.122844 0.2378717 0.1700986 0.4079775 0.122844 0.2378717 0.1219082 0.4077114 0.07465773 0.2376041 0.07371914 0.4074439 0.07465773 0.2376041 0.1219082 0.4077114 0.07465773 0.2376041 0.07371914 0.4074439 0.02647072 0.2373372 0.02553129 0.4071766 0.02647072 0.2373372 0.07371914 0.4074439 0.5556339 0.4099921 0.5564902 0.2401518 0.6038219 0.4102343 0.6046775 0.2403938 0.6038219 0.4102343 0.5564902 0.2401518 0.943738 0.9805639 0.9332188 0.948195 0.9777722 0.9805639 0.9777722 0.9805639 0.9332188 0.948195 0.9882914 0.948195 0.9882914 0.948195 0.9332188 0.948195 0.9607551 0.928188</float_array>
          <technique_common>
            <accessor source="#Superscalar_gas_harvester_0_057-mesh-map-0-array" count="846" stride="2">
              <param name="S" type="float"/>
              <param name="T" type="float"/>
            </accessor>
          </technique_common>
        </source>
        <vertices id="Superscalar_gas_harvester_0_057-mesh-vertices">
          <input semantic="POSITION" source="#Superscalar_gas_harvester_0_057-mesh-positions"/>
        </vertices>
        <triangles material="Mining-material" count="282">
          <input semantic="VERTEX" source="#Superscalar_gas_harvester_0_057-mesh-vertices" offset="0"/>
          <input semantic="NORMAL" source="#Superscalar_gas_harvester_0_057-mesh-normals" offset="1"/>
          <input semantic="TEXCOORD" source="#Superscalar_gas_harvester_0_057-mesh-map-0" offset="2" set="0"/>
          <p>0 0 0 1 1 1 2 2 2 3 3 3 2 2 4 1 1 5 1 1 6 0 0 7 4 4 8 5 5 9 4 4 10 0 0 11 4 4 12 5 5 13 6 6 14 7 7 15 6 6 16 5 5 17 6 6 18 7 7 19 8 8 20 9 9 21 8 8 22 7 7 23 2 2 24 3 3 25 10 10 26 11 11 27 10 10 28 3 3 29 10 10 30 11 11 31 12 12 32 13 13 33 12 12 34 11 11 35 12 12 36 13 13 37 14 14 38 15 15 39 14 14 40 13 13 41 14 14 42 15 15 43 16 16 44 17 17 45 16 16 46 15 15 47 16 16 48 17 17 49 18 18 50 19 19 51 18 18 52 17 17 53 18 18 54 19 19 55 20 20 56 21 21 57 20 20 58 19 19 59 20 20 60 21 21 61 22 22 62 23 23 63 22 22 64 21 21 65 22 22 66 23 23 67 24 24 68 25 25 69 24 24 70 23 23 71 26 26 72 27 26 73 28 26 74 28 26 75 27 26 76 29 26 77 29 26 78 27 26 79 30 26 80 31 27 81 32 28 82 33 29 83 34 30 84 33 29 85 32 28 86 35 31 87 36 32 88 37 33 89 38 34 90 37 33 91 36 32 92 39 35 93 40 36 94 41 37 95 42 38 96 41 37 97 40 36 98 43 39 99 44 40 100 45 41 101 46 42 102 45 41 103 44 40 104 47 43 105 48 44 106 49 45 107 50 46 108 49 45 109 48 44 110 51 47 111 52 48 112 53 49 113 52 48 114 54 50 115 53 49 116 55 51 117 54 50 118 52 48 119 56 52 120 55 51 121 52 48 122 57 53 123 56 52 124 52 48 125 58 54 126 55 51 127 56 52 128 59 55 129 54 50 130 55 51 131 60 56 132 59 55 133 55 51 134 61 57 135 54 50 136 59 55 137 53 49 138 54 50 139 62 58 140 53 49 141 62 58 142 63 59 143 64 60 144 63 59 145 62 58 146 62 58 147 54 50 148 64 60 149 51 47 150 53 49 151 65 61 152 63 59 153 65 61 154 53 49 155 52 48 156 51 47 157 66 62 158 65 61 159 66 62 160 51 47 161 57 53 162 52 48 163 67 63 164 66 62 165 67 63 166 52 48 167 56 52 168 57 53 169 68 64 170 67 63 171 68 64 172 57 53 173 58 54 174 56 52 175 69 65 176 68 64 177 69 65 178 56 52 179 55 51 180 58 54 181 70 66 182 69 65 183 70 66 184 58 54 185 60 56 186 55 51 187 71 67 188 70 66 189 71 67 190 55 51 191 59 55 192 60 56 193 72 68 194 71 67 195 72 68 196 60 56 197 61 57 198 59 55 199 73 69 200 72 68 201 73 69 202 59 55 203 73 69 204 74 70 205 61 57 206 54 50 207 61 57 208 74 70 209 74 70 210 64 60 211 54 50 212 75 71 213 76 72 214 77 73 215 76 72 216 78 74 217 77 73 218 79 75 219 78 74 220 76 72 221 80 76 222 79 75 223 76 72 224 81 77 225 80 76 226 76 72 227 82 78 228 79 75 229 80 76 230 83 79 231 78 74 232 79 75 233 84 80 234 83 79 235 79 75 236 85 81 237 78 74 238 83 79 239 77 73 240 78 74 241 86 82 242 87 83 243 88 84 244 89 85 245 90 86 246 89 85 247 88 84 248 88 84 249 87 83 250 91 87 251 92 88 252 91 87 253 87 83 254 91 87 255 92 88 256 93 89 257 94 90 258 93 89 259 92 88 260 93 89 261 94 90 262 95 91 263 96 92 264 95 91 265 94 90 266 95 91 267 96 92 268 97 93 269 98 94 270 97 93 271 96 92 272 97 93 273 98 94 274 99 95 275 100 96 276 99 95 277 98 94 278 99 95 279 100 96 280 101 97 281 102 98 282 101 97 283 100 96 284 101 97 285 102 98 286 103 99 287 104 100 288 103 99 289 102 98 290 103 99 291 104 100 292 105 101 293 106 102 294 105 101 295 104 100 296 107 103 297 108 104 298 109 105 299 110 106 300 109 105 301 108 104 302 108 104 303 107 103 304 111 107 305 112 108 306 111 107 307 107 103 308 111 107 309 112 108 310 90 86 311 89 85 312 90 86 313 112 108 314 113 109 315 114 110 316 115 111 317 116 112 318 115 111 319 114 110 320 114 110 321 113 109 322 117 113 323 118 114 324 117 113 325 113 109 326 117 113 327 118 114 328 119 115 329 117 113 330 119 115 331 114 110 332 120 116 333 119 115 334 118 114 335 119 115 336 120 116 337 121 117 338 122 118 339 121 117 340 120 116 341 121 117 342 122 118 343 123 119 344 121 117 345 123 119 346 119 115 347 124 120 348 123 119 349 122 118 350 123 119 351 124 120 352 125 121 353 126 122 354 125 121 355 124 120 356 125 121 357 126 122 358 127 123 359 125 121 360 127 123 361 123 119 362 123 119 363 127 123 364 119 115 365 128 124 366 127 123 367 126 122 368 127 123 369 128 124 370 129 125 371 130 126 372 129 125 373 128 124 374 129 125 375 130 126 376 131 127 377 129 125 378 131 127 379 127 123 380 132 128 381 131 127 382 130 126 383 131 127 384 132 128 385 133 129 386 134 130 387 133 129 388 132 128 389 133 129 390 134 130 391 135 131 392 133 129 393 135 131 394 131 127 395 131 127 396 135 131 397 127 123 398 136 132 399 135 131 400 134 130 401 135 131 402 136 132 403 116 112 404 115 111 405 116 112 406 136 132 407 127 123 408 135 131 409 119 115 410 119 115 411 135 131 412 114 110 413 114 110 414 135 131 415 116 112 416 137 133 417 138 134 418 139 135 419 140 136 420 139 135 421 138 134 422 138 134 423 137 133 424 141 137 425 142 138 426 141 137 427 137 133 428 139 135 429 140 136 430 143 139 431 144 140 432 143 139 433 140 136 434 143 139 435 144 140 436 145 141 437 146 142 438 145 141 439 144 140 440 145 141 441 146 142 442 147 143 443 148 144 444 147 143 445 146 142 446 147 143 447 148 144 448 149 145 449 150 146 450 149 145 451 148 144 452 149 145 453 150 146 454 151 147 455 152 148 456 151 147 457 150 146 458 151 147 459 152 148 460 153 149 461 154 96 462 153 149 463 152 148 464 153 149 465 154 96 466 155 150 467 156 151 468 155 150 469 154 96 470 155 150 471 156 151 472 157 152 473 158 153 474 157 152 475 156 151 476 157 152 477 158 153 478 159 154 479 160 155 480 159 154 481 158 153 482 159 154 483 160 155 484 161 156 485 162 157 486 161 156 487 160 155 488 163 158 489 164 158 490 165 158 491 164 158 492 166 158 493 165 158 494 167 159 495 166 158 496 164 158 497 168 160 498 167 159 499 164 158 500 169 158 501 168 160 502 164 158 503 170 161 504 167 159 505 168 160 506 171 158 507 166 158 508 167 159 509 172 158 510 171 158 511 167 159 512 173 158 513 166 158 514 171 158 515 165 158 516 166 158 517 174 158 518 175 162 519 176 163 520 177 164 521 178 165 522 177 164 523 176 163 524 176 163 525 175 162 526 179 166 527 180 167 528 179 166 529 175 162 530 179 166 531 180 167 532 181 168 533 182 169 534 181 168 535 180 167 536 181 168 537 182 169 538 183 170 539 184 171 540 183 170 541 182 169 542 183 170 543 184 171 544 185 172 545 186 173 546 185 172 547 184 171 548 185 172 549 186 173 550 187 174 551 188 175 552 187 174 553 186 173 554 187 174 555 188 175 556 189 176 557 190 177 558 189 176 559 188 175 560 189 176 561 190 177 562 191 178 563 192 179 564 191 178 565 190 177 566 191 178 567 192 179 568 193 180 569 194 181 570 193 180 571 192 179 572 193 180 573 194 181 574 195 182 575 196 183 576 195 182 577 194 181 578 195 182 579 196 183 580 197 184 581 198 185 582 197 184 583 196 183 584 197 184 585 198 185 586 178 165 587 177 164 588 178 165 589 198 185 590 199 186 591 200 187 592 201 188 593 202 189 594 201 188 595 200 187 596 200 187 597 199 186 598 203 190 599 204 191 600 203 190 601 199 186 602 203 190 603 204 191 604 205 192 605 206 193 606 205 192 607 204 191 608 205 192 609 206 193 610 207 194 611 208 195 612 207 194 613 206 193 614 207 194 615 208 195 616 209 196 617 210 197 618 209 196 619 208 195 620 209 196 621 210 197 622 211 198 623 212 199 624 211 198 625 210 197 626 211 198 627 212 199 628 213 200 629 214 201 630 213 200 631 212 199 632 213 200 633 214 201 634 215 202 635 216 203 636 215 202 637 214 201 638 201 188 639 202 189 640 217 204 641 217 204 642 218 205 643 219 206 644 220 207 645 219 206 646 218 205 647 219 206 648 220 207 649 221 208 650 222 209 651 221 208 652 220 207 653 221 208 654 222 209 655 223 210 656 224 211 657 223 210 658 222 209 659 218 205 660 217 204 661 202 189 662 225 158 663 226 212 664 227 158 665 226 212 666 228 213 667 227 158 668 229 214 669 228 213 670 226 212 671 230 215 672 229 214 673 226 212 674 231 158 675 230 215 676 226 212 677 232 216 678 229 214 679 230 215 680 233 217 681 228 213 682 229 214 683 234 218 684 233 217 685 229 214 686 235 158 687 228 213 688 233 217 689 227 158 690 228 213 691 236 158 692 237 219 693 238 220 694 239 221 695 240 222 696 239 221 697 238 220 698 238 220 699 237 219 700 241 223 701 242 224 702 241 223 703 237 219 704 241 223 705 242 224 706 243 225 707 244 226 708 243 225 709 242 224 710 243 225 711 244 226 712 245 227 713 246 228 714 245 227 715 244 226 716 245 227 717 246 228 718 247 229 719 248 230 720 247 229 721 246 228 722 247 229 723 248 230 724 249 231 725 250 232 726 249 231 727 248 230 728 249 231 729 250 232 730 251 233 731 252 234 732 251 233 733 250 232 734 251 233 735 252 234 736 253 235 737 254 236 738 253 235 739 252 234 740 253 235 741 254 236 742 255 237 743 256 238 744 255 237 745 254 236 746 255 237 747 256 238 748 257 239 749 258 240 750 257 239 751 256 238 752 257 239 753 258 240 754 259 241 755 260 242 756 259 241 757 258 240 758 259 241 759 260 242 760 240 222 761 239 221 762 240 222 763 260 242 764 261 243 765 262 244 766 263 245 767 264 246 768 263 245 769 262 244 770 262 244 771 261 243 772 265 247 773 266 248 774 265 247 775 261 243 776 265 247 777 266 248 778 267 249 779 268 250 780 267 249 781 266 248 782 267 249 783 268 250 784 269 251 785 270 252 786 269 251 787 268 250 788 269 251 789 270 252 790 271 253 791 272 254 792 271 253 793 270 252 794 271 253 795 272 254 796 273 255 797 274 256 798 273 255 799 272 254 800 273 255 801 274 256 802 275 257 803 276 258 804 275 257 805 274 256 806 275 257 807 276 258 808 277 259 809 278 260 810 277 259 811 276 258 812 277 259 813 278 260 814 279 261 815 280 262 816 279 261 817 278 260 818 279 261 819 280 262 820 281 263 821 282 264 822 281 263 823 280 262 824 281 263 825 282 264 826 283 265 827 284 266 828 283 265 829 282 264 830 263 245 831 264 246 832 285 267 833 286 268 834 285 267 835 264 246 836 287 269 837 288 270 838 289 271 839 289 271 840 288 270 841 290 158 842 290 158 843 288 270 844 291 158 845</p>
        </triangles>
      </mesh>
    </geometry>
  </library_geometries>
  <library_controllers/>
  <library_visual_scenes>
    <visual_scene id="Scene" name="Scene">
      <node id="ScienceStation" name="ScienceStation" type="NODE">
        <matrix sid="transform">1 0 0 0 0 1 0 0 0 0 1 0 0 0 0 1</matrix>
        <instance_geometry url="#Superscalar_gas_harvester_0_057-mesh" name="ScienceStation">
          <bind_material>
            <technique_common>
              <instance_material symbol="Mining-material" target="#Mining-material"/>
            </technique_common>
          </bind_material>
        </instance_geometry>
      </node>
    </visual_scene>
  </library_visual_scenes>
  <scene>
    <instance_visual_scene url="#Scene"/>
  </scene>
</COLLADA>