<?xml version="1.0" encoding="utf-8"?>
<COLLADA xmlns="http://www.collada.org/2005/11/COLLADASchema" version="1.4.1" xmlns:xsi="http://www.w3.org/2001/XMLSchema-instance">
  <asset>
    <contributor>
      <author>Blender User</author>
      <authoring_tool>Blender 2.79.0 commit date:2018-03-22, commit time:14:10, hash:f4dc9f9d68b</authoring_tool>
    </contributor>
    <created>2022-09-24T11:53:39</created>
    <modified>2022-09-24T11:53:39</modified>
    <unit name="meter" meter="1"/>
    <up_axis>Z_UP</up_axis>
  </asset>
  <library_images/>
  <library_effects>
    <effect id="Mining-effect">
      <profile_COMMON>
        <technique sid="common">
          <phong>
            <emission>
              <color sid="emission">0 0 0 1</color>
            </emission>
            <ambient>
              <color sid="ambient">0 0 0 1</color>
            </ambient>
            <diffuse>
              <color sid="diffuse">0.64 0.64 0.64 1</color>
            </diffuse>
            <specular>
              <color sid="specular">0.5 0.5 0.5 1</color>
            </specular>
            <shininess>
              <float sid="shininess">50</float>
            </shininess>
            <index_of_refraction>
              <float sid="index_of_refraction">1</float>
            </index_of_refraction>
          </phong>
        </technique>
      </profile_COMMON>
    </effect>
  </library_effects>
  <library_materials>
    <material id="Mining-material" name="Mining">
      <instance_effect url="#Mining-effect"/>
    </material>
  </library_materials>
  <library_geometries>
    <geometry id="Superscalar_gas_harvester_0-mesh" name="Superscalar_gas_harvester_0">
      <mesh>
        <source id="Superscalar_gas_harvester_0-mesh-positions">
          <float_array id="Superscalar_gas_harvester_0-mesh-positions-array" count="1548">2.771188 -4.562504 -2.107354 4.763215 -2.570478 -2.107354 4.540265 -5.550169 -4.516051 5.747225 -4.343211 -4.516051 2.699866 0.1148661 -0.9259124 0.08584409 -2.499154 -0.9259124 5.768853 -4.468703 -4.11284 5.285663 -3.092928 -1.704142 4.669412 -5.568144 -4.11284 3.293637 -5.084954 -1.704142 3.023549 -0.2088164 -0.2195518 0.4095266 -2.822837 -0.2195518 5.747225 -4.343211 -4.516051 5.768853 -4.468703 -4.11284 4.540265 -5.550169 -4.516051 4.669412 -5.568144 -4.11284 4.763215 -2.570478 -2.107354 5.285663 -3.092928 -1.704142 5.747225 -4.343211 -4.516051 5.768853 -4.468703 -4.11284 3.023549 -0.2088164 -0.2195518 2.699866 0.1148661 -0.9259124 2.771188 -4.562504 -2.107354 3.293637 -5.084954 -1.704142 0.08584409 -2.499154 -0.9259124 0.4095266 -2.822837 -0.2195518 4.669412 -5.568144 -4.11284 4.540265 -5.550169 -4.516051 1.508882 -1.933056 1.153533 4.363917 -4.614449 -0.5128862 2.238643 -1.203296 1.153533 4.920034 -4.058331 -0.5128862 5.002699 -4.140997 -2.780817 4.920034 -4.058331 -0.5128862 4.446581 -4.697113 -2.780817 4.363917 -4.614449 -0.5128862 1.456756 -1.88093 0.6395812 2.186518 -1.15117 0.6395812 4.154417 -4.404949 -0.8406211 4.710535 -3.848832 -0.8406211 4.734386 -3.872684 -2.759919 4.178269 -4.4288 -2.759919 4.710535 -3.848832 -0.8406211 4.154417 -4.404949 -0.8406211 2.186518 -1.15117 0.6395812 2.238643 -1.203296 1.153533 4.710535 -3.848832 -0.8406211 4.920034 -4.058331 -0.5128862 4.734386 -3.872684 -2.759919 5.002699 -4.140997 -2.780817 4.154417 -4.404949 -0.8406211 4.363917 -4.614449 -0.5128862 1.456756 -1.88093 0.6395812 1.508882 -1.933056 1.153533 4.446581 -4.697113 -2.780817 4.178269 -4.4288 -2.759919 -2.461826 4.876689 -2.107354 -4.453853 2.884663 -2.107354 -4.230904 5.864353 -4.516051 -5.437863 4.657395 -4.516051 -2.390503 0.1993174 -0.9259124 0.223518 2.813338 -0.9259124 -5.459493 4.782888 -4.11284 -4.976302 3.407112 -1.704142 -4.36005 5.882327 -4.11284 -2.984275 5.399137 -1.704142 -2.714185 0.5230002 -0.2195518 -0.1001646 3.137022 -0.2195518 -5.437863 4.657395 -4.516051 -5.459493 4.782888 -4.11284 -4.230904 5.864353 -4.516051 -4.36005 5.882327 -4.11284 -4.453853 2.884663 -2.107354 -4.976302 3.407112 -1.704142 -5.437863 4.657395 -4.516051 -5.459493 4.782888 -4.11284 -2.714185 0.5230002 -0.2195518 -2.390503 0.1993174 -0.9259124 -2.461826 4.876689 -2.107354 -2.984275 5.399137 -1.704142 0.223518 2.813338 -0.9259124 -0.1001646 3.137022 -0.2195518 -4.36005 5.882327 -4.11284 -4.230904 5.864353 -4.516051 -1.19952 2.247239 1.153533 -4.054555 4.928633 -0.5128862 -1.929281 1.51748 1.153533 -4.610674 4.372516 -0.5128862 -4.693337 4.45518 -2.780817 -4.610674 4.372516 -0.5128862 -4.13722 5.011297 -2.780817 -4.054555 4.928633 -0.5128862 -1.147395 2.195114 0.6395812 -1.877155 1.465354 0.6395812 -3.845054 4.719132 -0.8406211 -4.401173 4.163015 -0.8406211 -4.425024 4.186867 -2.759919 -3.868907 4.742985 -2.759919 -4.401173 4.163015 -0.8406211 -3.845054 4.719132 -0.8406211 -1.877155 1.465354 0.6395812 -1.929281 1.51748 1.153533 -4.401173 4.163015 -0.8406211 -4.610674 4.372516 -0.5128862 -4.425024 4.186867 -2.759919 -4.693337 4.45518 -2.780817 -3.845054 4.719132 -0.8406211 -4.054555 4.928633 -0.5128862 -1.147395 2.195114 0.6395812 -1.19952 2.247239 1.153533 -4.13722 5.011297 -2.780817 -3.868907 4.742985 -2.759919 4.874278 2.773599 -2.107354 2.882251 4.765626 -2.107354 5.861942 4.542677 -4.516051 4.654984 5.749637 -4.516051 0.1969068 2.702277 -0.9259124 2.810927 0.08825552 -0.9259124 4.780476 5.771265 -4.11284 3.404701 5.288075 -1.704142 5.879917 4.671824 -4.11284 5.396727 3.296049 -1.704142 0.5205891 3.025959 -0.2195518 3.13461 0.4119382 -0.2195518 4.654984 5.749637 -4.516051 4.780476 5.771265 -4.11284 5.861942 4.542677 -4.516051 5.879917 4.671824 -4.11284 2.882251 4.765626 -2.107354 3.404701 5.288075 -1.704142 4.654984 5.749637 -4.516051 4.780476 5.771265 -4.11284 0.5205891 3.025959 -0.2195518 0.1969068 2.702277 -0.9259124 4.874278 2.773599 -2.107354 5.396727 3.296049 -1.704142 2.810927 0.08825552 -0.9259124 3.13461 0.4119382 -0.2195518 5.879917 4.671824 -4.11284 5.861942 4.542677 -4.516051 2.244828 1.511294 1.153533 4.926222 4.366329 -0.5128862 1.515069 2.241054 1.153533 4.370105 4.922446 -0.5128862 4.452769 5.00511 -2.780817 4.370105 4.922446 -0.5128862 5.008885 4.448993 -2.780817 4.926222 4.366329 -0.5128862 2.192703 1.459168 0.6395812 1.462943 2.188929 0.6395812 4.716722 4.156828 -0.8406211 4.160604 4.712945 -0.8406211 4.184456 4.736798 -2.759919 4.740574 4.180681 -2.759919 4.160604 4.712945 -0.8406211 4.716722 4.156828 -0.8406211 1.462943 2.188929 0.6395812 1.515069 2.241054 1.153533 4.160604 4.712945 -0.8406211 4.370105 4.922446 -0.5128862 4.184456 4.736798 -2.759919 4.452769 5.00511 -2.780817 4.716722 4.156828 -0.8406211 4.926222 4.366329 -0.5128862 2.192703 1.459168 0.6395812 2.244828 1.511294 1.153533 5.008885 4.448993 -2.780817 4.740574 4.180681 -2.759919 -4.564915 -2.459415 -2.107354 -2.572889 -4.451441 -2.107354 -5.552581 -4.228493 -4.516051 -4.345622 -5.435451 -4.516051 0.1124554 -2.388092 -0.9259124 -2.501565 0.2259292 -0.9259124 -4.471113 -5.457081 -4.11284 -3.095339 -4.973891 -1.704142 -5.570555 -4.35764 -4.11284 -5.087364 -2.981864 -1.704142 -0.2112271 -2.711774 -0.2195518 -2.825248 -0.0977534 -0.2195518 -4.345622 -5.435451 -4.516051 -4.471113 -5.457081 -4.11284 -5.552581 -4.228493 -4.516051 -5.570555 -4.35764 -4.11284 -2.572889 -4.451441 -2.107354 -3.095339 -4.973891 -1.704142 -4.345622 -5.435451 -4.516051 -4.471113 -5.457081 -4.11284 -0.2112271 -2.711774 -0.2195518 0.1124554 -2.388092 -0.9259124 -4.564915 -2.459415 -2.107354 -5.087364 -2.981864 -1.704142 -2.501565 0.2259292 -0.9259124 -2.825248 -0.0977534 -0.2195518 -5.570555 -4.35764 -4.11284 -5.552581 -4.228493 -4.516051 -1.935467 -1.197109 1.153533 -4.61686 -4.052145 -0.5128862 -1.205707 -1.926869 1.153533 -4.060742 -4.608262 -0.5128862 -4.143407 -4.690926 -2.780817 -4.060742 -4.608262 -0.5128862 -4.699524 -4.134809 -2.780817 -4.61686 -4.052145 -0.5128862 -1.883341 -1.144984 0.6395812 -1.153581 -1.874744 0.6395812 -4.407359 -3.842644 -0.8406211 -3.851241 -4.398761 -0.8406211 -3.875094 -4.422614 -2.759919 -4.431211 -3.866496 -2.759919 -3.851241 -4.398761 -0.8406211 -4.407359 -3.842644 -0.8406211 -1.153581 -1.874744 0.6395812 -1.205707 -1.926869 1.153533 -3.851241 -4.398761 -0.8406211 -4.060742 -4.608262 -0.5128862 -3.875094 -4.422614 -2.759919 -4.143407 -4.690926 -2.780817 -4.407359 -3.842644 -0.8406211 -4.61686 -4.052145 -0.5128862 -1.883341 -1.144984 0.6395812 -1.935467 -1.197109 1.153533 -4.699524 -4.134809 -2.780817 -4.431211 -3.866496 -2.759919 -0.9501916 2.541476 0.7918453 -0.9501916 2.541476 4.308726 -0.3238371 2.179849 0.7918453 -0.3238369 2.179849 4.308726 -1.673443 2.541476 4.308726 -1.673443 2.541476 0.7918453 -2.299797 2.179851 4.308726 -2.299797 2.17985 0.7918453 -2.661424 1.553496 4.308726 -2.661423 1.553496 0.7918453 -2.661423 0.8302445 4.308726 -2.661423 0.8302445 0.7918453 -2.299798 0.20389 4.308726 -2.299798 0.2038901 0.7918453 -1.673443 -0.157736 4.308726 -1.673443 -0.1577359 0.7918453 -0.9501922 -0.1577363 4.308726 -0.9501922 -0.1577363 0.7918453 -0.3238378 0.2038891 4.308726 -0.3238379 0.2038891 0.7918453 0.03778827 0.8302432 4.308726 0.03778815 0.8302432 0.7918453 0.03778886 1.553495 4.308726 0.03778886 1.553495 0.7918453 0.03778886 1.553495 0.7918453 0.03778886 1.553495 4.308726 -0.9501916 2.541476 4.308726 -1.06607 2.109011 5.10057 -0.3238369 2.179849 4.308726 -0.6404232 1.863264 5.10057 -1.557565 2.109011 5.10057 -1.673443 2.541476 4.308726 -1.983211 1.863264 5.10057 -2.299797 2.179851 4.308726 -2.228958 1.437617 5.10057 -2.661424 1.553496 4.308726 -2.228959 0.9461225 5.10057 -2.661423 0.8302445 4.308726 -1.983212 0.5204759 5.10057 -2.299798 0.20389 4.308726 -1.557565 0.2747284 5.10057 -1.673443 -0.157736 4.308726 -1.06607 0.274728 5.10057 -0.9501922 -0.1577363 4.308726 -0.6404238 0.5204752 5.10057 -0.3238378 0.2038891 4.308726 -0.394676 0.9461218 5.10057 0.03778827 0.8302432 4.308726 -0.3946756 1.437616 5.10057 0.03778886 1.553495 4.308726 -1.557565 2.109011 5.10057 -1.983211 1.863264 5.10057 -1.06607 2.109011 5.10057 -0.3946756 1.437616 5.10057 -1.557565 0.2747284 5.10057 -2.228959 0.9461225 5.10057 -2.228958 1.437617 5.10057 -1.983212 0.5204759 5.10057 -0.6404238 0.5204752 5.10057 -1.06607 0.274728 5.10057 -0.394676 0.9461218 5.10057 -0.6404232 1.863264 5.10057 1.128303 2.983465 0.5938234 1.128303 2.983465 3.231215 1.598021 2.712274 0.5938234 1.598021 2.712274 3.231215 0.5859196 2.983465 3.231215 0.5859196 2.983465 0.5938234 0.1162022 2.712274 3.231215 0.1162022 2.712274 0.5938234 -0.1549898 2.242556 3.231215 -0.1549897 2.242555 0.5938234 -0.15499 1.700173 3.231215 -0.1549898 1.700173 0.5938234 0.1162018 1.230455 3.231215 0.1162018 1.230455 0.5938234 0.5859196 0.959263 3.231215 0.5859194 0.959263 0.5938234 1.128303 0.959263 3.231215 1.128303 0.959263 0.5938234 1.869212 2.242555 0.5938234 1.869212 2.242555 3.231215 1.869212 1.700172 0.5938234 1.869212 1.700172 3.231215 1.59802 1.230454 0.5938234 1.59802 1.230454 3.231215 1.128303 0.959263 0.5938234 1.128303 0.959263 3.231215 1.128303 2.983465 3.231215 1.041404 2.659151 3.825037 1.598021 2.712274 3.231215 1.360606 2.474858 3.825037 0.6728196 2.65915 3.825037 0.5859196 2.983465 3.231215 0.3536174 2.474858 3.825037 0.1162022 2.712274 3.231215 0.1693254 2.155656 3.825037 -0.1549898 2.242556 3.231215 0.1693253 1.787073 3.825037 -0.15499 1.700173 3.231215 0.353617 1.46787 3.825037 0.1162018 1.230455 3.231215 0.672819 1.283578 3.825037 0.5859196 0.959263 3.231215 1.041403 1.283578 3.825037 1.128303 0.959263 3.231215 1.360606 1.46787 3.825037 1.59802 1.230454 3.231215 1.544897 1.787072 3.825037 1.869212 1.700172 3.231215 1.544898 2.155656 3.825037 1.869212 2.242555 3.231215 0.6728196 2.65915 3.825037 0.3536174 2.474858 3.825037 1.041404 2.659151 3.825037 1.544898 2.155656 3.825037 0.672819 1.283578 3.825037 0.1693253 1.787073 3.825037 0.1693254 2.155656 3.825037 0.353617 1.46787 3.825037 1.360606 1.46787 3.825037 1.041403 1.283578 3.825037 1.544897 1.787072 3.825037 1.360606 2.474858 3.825037 1.288548 1.43544 0.8938503 1.288548 1.43544 4.863771 2.263999 0.872263 0.8938503 2.263999 0.872263 4.863771 0.1621955 1.43544 4.863771 0.1621956 1.43544 0.8938503 2.827176 -0.1031887 0.8938503 2.827176 -0.1031886 4.863771 2.827176 -1.229542 0.8938503 2.827176 -1.229542 4.863771 2.263998 -2.204992 0.8938503 2.263998 -2.204992 4.863771 1.288547 -2.768167 0.8938503 1.288547 -2.768167 4.863771 0.162195 -2.768167 0.8938503 0.1621947 -2.768167 4.863771 -0.8132553 -2.20499 0.8938503 -0.8132553 -2.20499 4.863771 -1.376432 -1.22954 0.8938503 -1.376432 -1.22954 4.863771 -1.376432 -0.1031871 0.8938503 -1.376432 -0.1031873 4.863771 -0.8132553 0.872263 0.8938503 -0.8132553 0.872263 4.863771 0.1621956 1.43544 0.8938503 0.1621955 1.43544 4.863771 1.288548 1.43544 4.863771 1.108086 0.7619429 5.75762 2.263999 0.872263 4.863771 1.770965 0.3792293 5.75762 0.3426583 0.7619429 5.75762 0.1621955 1.43544 4.863771 -0.3202213 0.3792294 5.75762 -0.8132553 0.872263 4.863771 -0.7029352 -0.2836502 5.75762 -1.376432 -0.1031873 4.863771 -0.7029352 -1.049077 5.75762 -1.376432 -1.22954 4.863771 -0.3202216 -1.711957 5.75762 -0.8132553 -2.20499 4.863771 0.3426579 -2.094671 5.75762 0.1621947 -2.768167 4.863771 1.108085 -2.094671 5.75762 1.288547 -2.768167 4.863771 1.770965 -1.711958 5.75762 2.263998 -2.204992 4.863771 2.153679 -1.049079 5.75762 2.827176 -1.229542 4.863771 2.153679 -0.2836515 5.75762 2.827176 -0.1031886 4.863771 1.053047 3.473039 -0.04272335 1.053047 3.473039 1.11389 2.591676 2.58471 -0.04272335 2.591676 2.58471 1.11389 -0.7236109 3.473039 1.11389 -0.7236109 3.473039 -0.04272335 -2.262241 2.58471 1.11389 -2.262241 2.58471 -0.04272335 -3.15057 1.04608 1.11389 -3.15057 1.04608 -0.04272335 -3.15057 -0.7305769 1.11389 -3.15057 -0.7305769 -0.04272335 -2.262242 -2.269207 1.11389 -2.262242 -2.269207 -0.04272335 -0.7236128 -3.157536 1.11389 -0.7236128 -3.157536 -0.04272335 1.053045 -3.157536 1.11389 1.053045 -3.157536 -0.04272335 2.591675 -2.269209 1.11389 2.591675 -2.269209 -0.04272335 3.480005 -0.73058 -0.04272335 3.480005 -0.73058 1.11389 2.591675 -2.269209 -0.04272335 2.591675 -2.269209 1.11389 3.480006 1.046077 1.11389 3.480006 1.046077 -0.04272335 1.650384 -1.327917 -1.607294 0.7085079 -1.871708 -1.607294 2.194176 -0.3860425 -1.607294 1.650384 1.643418 -1.607294 -1.864741 0.7015425 -1.607294 -1.32095 -1.327916 -1.607294 -0.3790755 -1.871708 -1.607294 -1.864741 -0.3860408 -1.607294 -0.379074 2.18721 -1.607294 -1.320949 1.643418 -1.607294 0.7085098 2.18721 -1.607294 2.194176 0.7015413 -1.607294 -0.6789455 3.306347 1.343863 -2.140214 2.462683 1.343863 1.008381 3.306347 1.343863 3.313313 1.001412 1.343863 -0.6789473 -2.990844 1.343863 -2.983878 -0.6859121 1.343863 -2.983877 1.001415 1.343863 -2.140214 -2.147179 1.343863 2.469647 -2.147181 1.343863 1.008379 -2.990845 1.343863 3.313313 -0.6859146 1.343863 2.469649 2.462682 1.343863 1.053047 3.473039 1.11389 2.591676 2.58471 1.11389 -0.7236109 3.473039 1.11389 -2.262241 2.58471 1.11389 -3.15057 1.04608 1.11389 -3.15057 -0.7305769 1.11389 -2.262242 -2.269207 1.11389 -0.7236128 -3.157536 1.11389 1.053045 -3.157536 1.11389 2.591675 -2.269209 1.11389 3.480005 -0.73058 1.11389 3.480006 1.046077 1.11389 2.591676 2.58471 -0.04272335 1.650384 1.643418 -1.607294 1.053047 3.473039 -0.04272335 0.7085098 2.18721 -1.607294 2.194176 0.7015413 -1.607294 3.480006 1.046077 -0.04272335 2.194176 -0.3860425 -1.607294 3.480005 -0.73058 -0.04272335 1.650384 -1.327917 -1.607294 2.591675 -2.269209 -0.04272335 -0.7236109 3.473039 -0.04272335 -0.379074 2.18721 -1.607294 -2.262241 2.58471 -0.04272335 -1.320949 1.643418 -1.607294 -3.15057 1.04608 -0.04272335 -1.864741 0.7015425 -1.607294 -3.15057 -0.7305769 -0.04272335 -1.864741 -0.3860408 -1.607294 -2.262242 -2.269207 -0.04272335 -1.32095 -1.327916 -1.607294 -0.7236128 -3.157536 -0.04272335 -0.3790755 -1.871708 -1.607294 1.053045 -3.157536 -0.04272335 0.7085079 -1.871708 -1.607294 2.591675 -2.269209 -0.04272335 1.650384 -1.327917 -1.607294 -0.05395406 1.530474 -1.191087 -0.009423255 1.443078 12.36268 0.3122121 1.472479 -1.191087 0.2428539 1.403121 12.36268 -0.2222617 1.200151 -1.191087 -0.1253823 1.215495 12.36268 -0.05395406 1.530474 -1.191087 -0.009423255 1.443078 12.36268 0.03988379 0.9380052 -1.191087 0.05522817 1.034884 12.36268 -0.2222617 1.200151 -1.191087 -0.1253823 1.215495 12.36268 0.3702073 1.106313 -1.191087 0.2828109 1.150843 12.36268 0.03988379 0.9380052 -1.191087 0.05522817 1.034884 12.36268 0.3122121 1.472479 -1.191087 0.2428539 1.403121 12.36268 0.3702073 1.106313 -1.191087 0.2828109 1.150843 12.36268 -0.05395406 1.530474 -1.191087 0.3122121 1.472479 -1.191087 -0.2222617 1.200151 -1.191087 0.03988379 0.9380052 -1.191087 0.3702073 1.106313 -1.191087 0.05522817 1.034884 12.36268 0.2828109 1.150843 12.36268 -0.1253823 1.215495 12.36268 -0.009423255 1.443078 12.36268 0.2428539 1.403121 12.36268</float_array>
          <technique_common>
            <accessor source="#Superscalar_gas_harvester_0-mesh-positions-array" count="516" stride="3">
              <param name="X" type="float"/>
              <param name="Y" type="float"/>
              <param name="Z" type="float"/>
            </accessor>
          </technique_common>
        </source>
        <source id="Superscalar_gas_harvester_0-mesh-normals">
          <float_array id="Superscalar_gas_harvester_0-mesh-normals-array" count="1482">-0.3915904 0.3915907 -0.8326546 -0.3914946 0.3914949 -0.8327447 -0.5496603 0.5496606 -0.6290842 -0.5496603 0.5496603 -0.6290845 -0.2346899 0.23469 -0.9433141 -0.2346899 0.23469 -0.9433141 0.6206951 -0.6206954 0.4790354 0.4499007 -0.4499007 0.7714782 0.6206952 -0.6206953 0.4790354 0.2671074 -0.2671076 0.9259089 0.2671073 -0.2671075 0.9259089 0.6846843 -0.6846863 -0.2498242 0.6846844 -0.6846863 -0.2498241 0.6846851 -0.6846858 -0.2498234 0.6846853 -0.6846857 -0.2498232 0.7534262 0.6437102 -0.1341125 0.7652258 0.6286 -0.1388943 0.9250544 0.3794593 -0.01687949 0.9603346 0.2766948 0.03460419 0.7734422 0.62945 -0.07469874 0.7762831 0.6266441 -0.06857043 -0.6255732 -0.764588 -0.1551243 -0.6236522 -0.7627375 -0.1711417 -0.6363729 -0.7681196 -0.07086509 -0.6354049 -0.7697223 -0.06154954 -0.4253482 -0.9036188 0.0505163 -0.3943701 -0.9149631 0.08552622 0.2769455 -0.2769457 0.9201099 0.2769455 -0.2769455 0.9201101 0.2769455 -0.2769454 0.9201101 0.7061679 -0.7061706 0.05147904 0.7061689 -0.7061696 0.05147814 0.7061681 -0.7061703 0.0514788 0.7061692 -0.7061694 0.0514779 -0.2631165 0.2631168 -0.9281914 -0.2631165 0.2631168 -0.9281914 -0.2631166 0.2631171 -0.9281913 -0.2631166 0.2631171 -0.9281913 -0.7069963 0.706999 -0.01757258 -0.7069963 0.7069989 -0.0175724 -0.7069965 0.7069988 -0.01757204 -0.7069965 0.7069987 -0.01757192 0.7289753 0.6845253 -0.004507124 0.728506 0.6850154 -0.005739152 0.7143627 0.6997219 -0.008678734 0.7167752 0.6971919 -0.01251703 0.7071071 0.7071065 -3.99555e-7 0.707107 0.7071067 -4.16754e-7 -0.6993345 -0.7147268 -0.009840726 -0.6962022 -0.7177383 -0.01242375 -0.6861035 -0.7274853 -0.005221545 -0.6858999 -0.7276837 -0.004237353 -0.7071071 -0.7071066 0 -0.7071069 -0.7071067 0 0.3915905 -0.3915905 -0.8326547 0.3914946 -0.3914949 -0.8327447 0.5496602 -0.5496608 -0.629084 0.5496599 -0.549661 -0.6290842 0.2346899 -0.23469 -0.9433141 0.2346899 -0.23469 -0.9433141 -0.6206939 0.6206964 0.4790357 -0.4499004 0.4499009 0.7714783 -0.6206945 0.620696 0.4790354 -0.4499006 0.4499008 0.7714783 -0.2671074 0.2671074 0.9259089 -0.2671075 0.2671074 0.9259089 -0.6846837 0.6846861 -0.2498266 -0.6846839 0.6846861 -0.2498257 -0.6846853 0.6846863 -0.2498216 -0.6846857 0.6846864 -0.2498204 -0.7534264 -0.64371 -0.1341128 -0.7652261 -0.6285996 -0.1388947 -0.9250531 -0.3794627 -0.01688063 -0.9603332 -0.2767002 0.0346027 -0.7734425 -0.6294499 -0.07469832 -0.7762833 -0.6266438 -0.06856995 0.6255727 0.7645888 -0.1551221 0.6236515 0.7627383 -0.1711406 0.636373 0.7681194 -0.0708658 0.635405 0.7697222 -0.06155067 0.425346 0.9036199 0.05051791 0.3943676 0.914964 0.08552795 -0.2769452 0.2769458 0.92011 -0.2769451 0.276946 0.9201101 -0.2769452 0.2769458 0.9201101 -0.276945 0.276946 0.92011 -0.7061694 0.7061691 0.0514782 -0.7061677 0.7061707 0.05147874 -0.7061689 0.7061696 0.05147838 -0.7061673 0.7061712 0.05147886 0.2631165 -0.2631168 -0.9281915 0.2631165 -0.2631168 -0.9281915 0.2631164 -0.263117 -0.9281914 0.2631164 -0.2631171 -0.9281914 0.7069982 -0.706997 -0.01757252 0.7069978 -0.7069975 -0.01757264 0.7069968 -0.7069985 -0.01757276 0.7069963 -0.7069989 -0.01757282 -0.7289749 -0.6845256 -0.004507601 -0.7285057 -0.6850158 -0.005739629 -0.7143603 -0.6997243 -0.008679211 -0.7167736 -0.6971937 -0.01251769 -0.7071061 -0.7071075 -3.99554e-7 -0.7071062 -0.7071075 -4.16754e-7 0.6993341 0.7147273 -0.009840011 0.6962018 0.7177388 -0.01242297 0.6861034 0.7274853 -0.005221486 0.6858999 0.7276837 -0.004237353 0.7071064 0.7071072 -2.92258e-7 0.7071062 0.7071074 -3.27689e-7 -0.3915907 -0.3915904 -0.8326548 -0.3914948 -0.3914947 -0.8327447 -0.5496607 -0.5496603 -0.629084 -0.5496607 -0.5496603 -0.629084 -0.23469 -0.2346899 -0.943314 -0.2346901 -0.2346898 -0.9433141 0.6206952 0.6206956 0.4790349 0.4499008 0.4499006 0.7714782 0.6206954 0.6206954 0.4790351 0.4499008 0.4499006 0.7714783 0.2671074 0.2671074 0.9259089 0.2671074 0.2671074 0.925909 0.6846861 0.6846854 -0.2498217 0.6846861 0.6846854 -0.249822 0.6846858 0.684685 -0.2498239 0.6846857 0.6846849 -0.2498243 -0.6437104 0.7534261 -0.1341127 -0.6286001 0.7652257 -0.1388944 -0.3794605 0.925054 -0.01687949 -0.2766965 0.9603341 0.03460443 -0.6294499 0.7734423 -0.07469922 -0.6266438 0.7762833 -0.06857097 0.7645885 -0.6255729 -0.1551221 0.7627381 -0.6236519 -0.1711405 0.7681196 -0.6363729 -0.07086473 0.7697223 -0.6354048 -0.06154954 0.9036184 -0.4253492 0.05051547 0.9149627 -0.3943712 0.08552527 0.2769457 0.2769452 0.92011 0.2769456 0.2769456 0.92011 0.2769457 0.2769453 0.92011 0.2769456 0.2769457 0.9201099 0.7061702 0.7061684 0.0514785 0.7061691 0.7061694 0.05147868 0.7061699 0.7061686 0.05147856 0.7061688 0.7061697 0.05147874 -0.2631168 -0.2631165 -0.9281914 -0.2631168 -0.2631165 -0.9281914 -0.2631168 -0.2631168 -0.9281914 -0.2631168 -0.2631168 -0.9281914 -0.7069967 -0.7069985 -0.01757222 -0.706997 -0.7069982 -0.0175724 -0.7069974 -0.7069978 -0.0175727 -0.7069976 -0.7069976 -0.01757287 -0.684525 0.7289755 -0.004506647 -0.6850153 0.7285062 -0.005738675 -0.6997228 0.7143617 -0.008678376 -0.6971928 0.7167745 -0.01251655 -0.7071076 0.707106 2.55201e-7 -0.7071078 0.7071058 2.77837e-7 0.7147276 -0.6993337 -0.009840428 0.7177391 -0.6962016 -0.01242345 0.7274857 -0.6861031 -0.005221545 0.7276841 -0.6858994 -0.004237353 0.7071068 -0.7071067 0 0.7071068 -0.7071067 0 0.3915905 0.3915904 -0.8326548 0.3914947 0.3914948 -0.8327448 0.5496603 0.5496607 -0.6290841 0.5496602 0.5496609 -0.629084 0.23469 0.2346899 -0.9433141 0.23469 0.2346899 -0.943314 -0.6206952 -0.6206956 0.4790349 -0.4499008 -0.4499007 0.7714782 -0.6206954 -0.6206954 0.4790351 -0.4499007 -0.4499006 0.7714784 -0.2671074 -0.2671074 0.9259089 -0.2671074 -0.2671075 0.9259089 -0.6846843 -0.6846867 -0.2498229 -0.6846846 -0.6846866 -0.2498229 -0.6846857 -0.6846855 -0.2498229 -0.6846859 -0.6846852 -0.2498229 0.6437106 -0.7534258 -0.1341136 0.6286004 -0.7652254 -0.1388953 0.3794645 -0.9250524 -0.0168811 0.2767021 -0.9603326 0.03460228 0.6294501 -0.7734422 -0.07469934 0.6266441 -0.776283 -0.06857091 -0.764589 0.6255725 -0.1551221 -0.7627384 0.6236515 -0.1711403 -0.7681198 0.6363727 -0.07086557 -0.7697224 0.6354047 -0.06155037 -0.9036202 0.4253454 0.0505172 -0.9149644 0.3943669 0.08552712 -0.2769457 -0.2769455 0.9201101 -0.2769455 -0.2769455 0.9201101 -0.2769457 -0.2769455 0.92011 -0.2769454 -0.2769455 0.9201101 -0.7061688 -0.7061697 0.05147844 -0.7061693 -0.7061692 0.05147868 -0.706169 -0.7061696 0.05147856 -0.7061694 -0.7061691 0.05147874 0.2631168 0.2631168 -0.9281914 0.2631168 0.2631168 -0.9281913 0.2631168 0.2631168 -0.9281913 0.2631169 0.2631168 -0.9281914 0.7069979 0.7069972 -0.01757317 0.7069979 0.7069973 -0.01757299 0.7069978 0.7069975 -0.0175727 0.7069978 0.7069975 -0.01757252 0.6845254 -0.7289751 -0.004508554 0.6850156 -0.7285059 -0.005740284 0.6997227 -0.714362 -0.008678078 0.6971925 -0.7167748 -0.01251602 0.7071076 -0.707106 0 0.7071078 -0.7071058 1.38918e-7 -0.7147271 0.6993343 -0.009840667 -0.7177385 0.696202 -0.01242375 -0.7274854 0.6861034 -0.005222439 -0.7276837 0.6858997 -0.004238247 -0.7071074 0.7071062 5.48221e-7 -0.7071076 0.7071061 6.55378e-7 0.2588195 0.9659258 0 0.2510651 0.9365293 0.2447022 0.7071071 0.7071066 0 0.6856015 0.6856175 0.2447022 -0.2509393 0.9365631 0.2447022 -0.2588192 0.9659259 0 -0.6856178 0.6856014 0.2447021 -0.7071071 0.7071065 -1.84682e-7 -0.9365511 0.2509843 0.2447021 -0.9659259 0.2588187 0 -0.936566 -0.2509286 0.2447019 -0.9659259 -0.2588188 0 -0.6856018 -0.6856173 0.2447021 -0.707107 -0.7071066 0 -0.2509214 -0.936568 0.2447021 -0.2588194 -0.9659258 0 0.2509614 -0.9365572 0.2447021 0.2588185 -0.9659261 0 0.6856308 -0.6855884 0.2447021 0.7071065 -0.7071071 0 0.9365569 -0.2509624 0.2447021 0.9659257 -0.2588198 0 0.9365649 0.2509356 0.2446991 0.9659282 0.2588104 1.24223e-5 0.9659237 0.2588269 1.22849e-5 0.936557 0.2509649 0.2446991 0.2509382 0.9365644 0.2446985 0.2252993 0.840828 0.4921876 0.6856008 0.6856196 0.2446985 0.6155287 0.615529 0.4921875 -0.2252993 0.840828 0.4921877 -0.2509375 0.9365643 0.2446991 -0.6155291 0.6155284 0.4921876 -0.6856003 0.6856198 0.2446994 -0.8408273 0.2253001 0.4921883 -0.9365572 0.250964 0.2446995 -0.8408284 -0.2252987 0.4921873 -0.9365574 -0.2509641 0.2446983 -0.6155295 -0.6155285 0.4921872 -0.6856011 -0.6856193 0.2446985 -0.2252994 -0.840828 0.4921875 -0.2509645 -0.9365572 0.2446987 0.2252997 -0.8408281 0.4921873 0.2509635 -0.9365574 0.2446988 0.6155287 -0.6155292 0.4921873 0.6856194 -0.6856008 0.244699 0.840828 -0.2252998 0.4921873 0.9365644 -0.250938 0.2446987 0.8408282 0.2252987 0.4921875 0.9365646 0.250937 0.2446988 0 0 1 0 0 1 -1.62863e-7 0 1 4.29316e-7 0 1 3.94787e-7 0 1 3.94787e-6 0 1 -7.79786e-7 0 1 1.97393e-6 0 1 0.2588185 0.9659261 0 0.2509613 0.9365572 0.2447021 0.707107 0.7071067 0 0.6856181 0.6856009 0.2447022 -0.2509616 0.9365571 0.2447021 -0.2588188 0.9659259 0 -0.6856175 0.6856017 0.2447022 -0.7071068 0.7071069 0 -0.9365618 0.250944 0.2447021 -0.9659259 0.2588189 -1.73563e-7 -0.9365571 -0.2509617 0.2447021 -0.9659259 -0.2588188 0 -0.685618 -0.6856012 0.2447021 -0.7071071 -0.7071065 0 -0.2509394 -0.9365631 0.2447022 -0.2588192 -0.9659259 0 0.2509365 -0.9365647 0.2446991 0.2588114 -0.965928 1.24223e-5 0.9659261 0.2588183 0 0.9365418 0.2510187 0.244702 0.9659256 -0.2588198 0 0.9365617 -0.2509444 0.2447022 0.7071063 -0.7071073 0 0.6855675 -0.6856516 0.2447021 0.2588269 -0.9659238 1.23637e-5 0.2509647 -0.9365571 0.2446991 0.2509633 0.9365577 0.2446983 0.2252995 0.8408281 0.4921871 0.6856204 0.6855999 0.2446987 0.6155296 0.6155281 0.4921875 -0.2252998 0.8408282 0.4921868 -0.2509641 0.9365573 0.244699 -0.6155287 0.615529 0.4921875 -0.6856195 0.6856007 0.2446992 -0.840828 0.2252995 0.4921873 -0.9365643 0.2509379 0.244699 -0.8408284 -0.225299 0.492187 -0.9365574 -0.2509637 0.2446988 -0.6155294 -0.6155287 0.4921871 -0.6856201 -0.6856003 0.2446985 -0.2252996 -0.8408281 0.4921872 -0.250964 -0.9365574 0.2446987 0.2252991 -0.8408282 0.4921871 0.2509372 -0.9365646 0.2446987 0.6155288 -0.6155293 0.492187 0.6856193 -0.6856011 0.2446987 0.840828 -0.2253007 0.4921872 0.9365643 -0.2509385 0.2446986 0.8408284 0.2252997 0.4921866 0.9365647 0.2509371 0.244698 3.50994e-7 0 1 3.50994e-7 0 1 3.50995e-6 0 1 0.2588191 0.9659259 0 0.2588192 0.9659259 0 0.7071069 0.7071067 0 0.707107 0.7071066 0 -0.2588113 0.9659279 -1.23637e-5 -0.2588113 0.9659279 1.24136e-5 0.9659259 0.2588188 0 0.9659259 0.2588188 0 0.9659257 -0.2588198 0 0.9659257 -0.2588196 0 0.7071061 -0.7071075 0 0.7071061 -0.7071075 0 0.2588185 -0.965926 0 0.2588184 -0.965926 0 -0.2588193 -0.9659259 0 -0.2588194 -0.9659258 0 -0.7071069 -0.7071067 0 -0.7071071 -0.7071066 0 -0.9659259 -0.2588191 0 -0.9659259 -0.2588191 0 -0.9659259 0.2588191 0 -0.9659259 0.2588191 0 -0.7071068 0.7071067 0 -0.7071069 0.7071067 0 -0.2588269 0.9659238 1.23546e-5 -0.258827 0.9659237 -1.24663e-5 0.2040734 0.7616128 0.615061 0.1278319 0.4770757 0.8695159 0.5575392 0.5575394 0.615061 0.3492445 0.3492435 0.8695155 -0.1278319 0.4770757 0.8695159 -0.2040736 0.7616128 0.615061 -0.3492439 0.3492438 0.8695157 -0.5575397 0.5575391 0.6150608 -0.4770759 0.1278321 0.8695158 -0.7616128 0.2040736 0.615061 -0.4770762 -0.1278319 0.8695156 -0.761613 -0.2040735 0.6150608 -0.3492438 -0.3492438 0.8695157 -0.5575395 -0.5575394 0.6150606 -0.1278321 -0.4770758 0.8695158 -0.2040737 -0.7616128 0.6150609 0.1278319 -0.4770759 0.8695158 0.2040732 -0.761613 0.6150608 0.3492434 -0.3492441 0.8695158 0.5575386 -0.5575397 0.6150612 0.4770755 -0.1278324 0.869516 0.7616125 -0.2040741 0.6150612 0.4770759 0.1278316 0.8695158 0.7616128 0.2040732 0.615061 0.2588194 0.9659258 0 0.2467565 0.9209117 0.3017167 0.7071071 0.7071066 0 0.6741439 0.674164 0.3017167 -0.2467658 0.9209092 0.3017168 -0.2588191 0.9659259 0 -0.6741643 0.6741436 0.3017167 -0.7071068 0.7071068 0 -0.9209001 0.2467995 0.3017167 -0.9659258 0.2588193 0 -0.9209077 -0.2467713 0.3017167 -0.9659259 -0.258819 0 -0.674144 -0.6741639 0.3017167 -0.2467997 -0.9209001 0.3017167 -0.2588194 -0.9659258 0 0.2467711 -0.9209079 0.3017167 0.2588187 -0.9659259 0 0.6741504 -0.6741575 0.3017169 0.7071007 -0.707113 1.24223e-5 0.9659257 -0.2588197 0 0.9209135 -0.2467498 0.3017167 0.707112 -0.7071017 1.24051e-4 0.6741564 -0.6741514 0.301717 0.9209079 0.2467709 0.3017168 0.965926 0.2588185 0 0.3349015 -0.3349395 -0.8807137 0.1226147 -0.4575032 -0.8807137 0.4575031 -0.1226152 -0.8807137 0.3349394 0.3349017 -0.8807137 -0.4575031 0.1226149 -0.8807137 -0.334902 -0.3349391 -0.8807136 -0.122615 -0.4575031 -0.8807137 -0.4575176 -0.1225637 -0.8807132 -0.1225638 0.4575169 -0.8807137 -0.3349018 0.3349393 -0.8807137 0.1225638 0.4575168 -0.8807137 0.4575173 0.1225636 -0.8807134 -0.1301054 0.4855599 0.8644676 -0.3554552 0.3554549 0.8644672 0.1301057 0.4855604 0.8644673 0.4855603 0.1301054 0.8644673 -0.1301058 -0.4855604 0.8644672 -0.4855611 -0.1301055 0.8644669 -0.48556 0.1301054 0.8644676 -0.3554547 -0.3554546 0.8644676 0.3554541 -0.3554544 0.8644679 0.1301053 -0.4855616 0.8644667 0.4855608 -0.130106 0.864467 0.3554551 0.355455 0.8644672 0.2467415 0.9209161 0.3017153 0.6741669 0.6741418 0.3017148 -0.2467408 0.9209161 0.3017162 -0.6741668 0.674142 0.3017148 -0.9209072 0.2467745 0.3017155 -0.9209079 -0.2467741 0.3017139 -0.6741665 -0.6741418 0.3017158 -0.2467753 -0.9209071 0.3017154 0.2467406 -0.9209171 0.3017133 0.674166 -0.6741419 0.3017168 0.9209164 -0.2467417 0.3017145 0.9209074 0.2467739 0.3017156 0.5385513 0.538551 -0.6480166 0.3349052 0.3349269 -0.880717 0.1971236 0.7356742 -0.6480168 0.1225728 0.4575077 -0.8807172 0.4575077 0.1225726 -0.8807171 0.7356746 0.1971229 -0.6480166 0.4574995 -0.1226031 -0.8807172 0.7356744 -0.1971239 -0.6480165 0.3349498 -0.3349274 -0.8806999 0.5385617 -0.5385343 -0.6480218 -0.1971234 0.7356743 -0.6480168 -0.1226028 0.4574998 -0.8807172 -0.5385509 0.5385512 -0.6480166 -0.334905 0.3349269 -0.8807172 -0.7356745 0.1971235 -0.6480166 -0.4574998 0.1226027 -0.880717 -0.7356746 -0.1971234 -0.6480165 -0.4574999 -0.1226027 -0.880717 -0.5385515 -0.538551 -0.6480165 -0.3349055 -0.3349269 -0.8807169 -0.1971236 -0.7356745 -0.6480166 -0.1225728 -0.4575079 -0.880717 0.1971231 -0.7356746 -0.6480165 0.1226025 -0.4575002 -0.8807169 0.5385335 -0.5385623 -0.6480219 0.3349266 -0.3349507 -0.8806999 0.15643 0.9876718 0.005854606 0.1564345 0.9876711 0.005854666 0.1564301 0.9876717 0.005854606 0.1564346 0.9876711 0.005854666 -0.8909915 0.4539822 0.005854606 -0.8909916 0.4539821 0.005854606 -0.8909915 0.4539822 0.005854606 -0.8909916 0.4539822 0.005854606 -0.7070949 -0.7070944 0.005854606 -0.707096 -0.7070933 0.005854666 -0.7070949 -0.7070944 0.005854606 -0.7070961 -0.7070933 0.005854666 0.4539819 -0.8909918 0.005854606 0.4539833 -0.8909911 0.005854606 0.4539819 -0.8909916 0.005854606 0.4539833 -0.890991 0.005854606 0.9876714 0.1564323 0.005854666 0.9876714 0.1564325 0.005854666 0.9876714 0.1564323 0.005854666 0.9876714 0.1564325 0.005854666 0 0 -1 -3.84252e-6 0 1 -1.28084e-6 0 1 -1.28084e-6 0 1</float_array>
          <technique_common>
            <accessor source="#Superscalar_gas_harvester_0-mesh-normals-array" count="494" stride="3">
              <param name="X" type="float"/>
              <param name="Y" type="float"/>
              <param name="Z" type="float"/>
            </accessor>
          </technique_common>
        </source>
        <source id="Superscalar_gas_harvester_0-mesh-map-0">
          <float_array id="Superscalar_gas_harvester_0-mesh-map-0-array" count="2508">0.09198236 0.724009 0.09411382 0.6253452 0.0147407 0.704122 0.01603209 0.6443421 0.0147407 0.704122 0.09411382 0.6253452 0.09411382 0.6253452 0.09198236 0.724009 0.2282209 0.6108641 0.2254241 0.740335 0.2282209 0.6108641 0.09198236 0.724009 0.2955192 0.8855087 0.1955379 0.9153086 0.295543 0.8125222 0.1955574 0.7826797 0.295543 0.8125222 0.1955379 0.9153086 0.1955379 0.9153086 0.01822596 0.937739 0.1955574 0.7826797 0.01823294 0.7602492 0.1955574 0.7826797 0.01822596 0.937739 0.3068494 0.8922046 0.2955192 0.8855087 0.3068576 0.8056821 0.295543 0.8125222 0.3068576 0.8056821 0.2955192 0.8855087 0.1820794 0.9466451 0.1955379 0.9153086 0.3068494 0.8922046 0.2955192 0.8855087 0.3068494 0.8922046 0.1955379 0.9153086 0.1955379 0.9153086 0.1820794 0.9466451 0.01822596 0.937739 0.00968635 0.9693116 0.01822596 0.937739 0.1820794 0.9466451 0.1820943 0.7513532 0.1955574 0.7826797 0.009701251 0.7286763 0.01823294 0.7602492 0.009701251 0.7286763 0.1955574 0.7826797 0.1955574 0.7826797 0.1820943 0.7513532 0.295543 0.8125222 0.3068576 0.8056821 0.295543 0.8125222 0.1820943 0.7513532 0.6665332 0.9897271 0.4013849 0.9817756 0.6665341 0.9229351 0.4013858 0.9308773 0.6665341 0.9229351 0.4013849 0.9817756 0.2947279 0.9308747 0.4013858 0.9308773 0.2947273 0.9817737 0.4013849 0.9817756 0.2947273 0.9817737 0.4013858 0.9308773 0.6208318 0.9097018 0.5824264 0.9096888 0.6163104 0.7666156 0.5870433 0.7666059 0.6163104 0.7666156 0.5824264 0.9096888 0.5870606 0.7148207 0.6163275 0.7148306 0.5870433 0.7666059 0.6163104 0.7666156 0.5870433 0.7666059 0.6163275 0.7148306 0.6462208 0.9098542 0.6283697 0.9118149 0.6422197 0.7279711 0.6272947 0.7179822 0.6422197 0.7279711 0.6283697 0.9118149 0.6422197 0.7279711 0.6272947 0.7179822 0.7044911 0.7066858 0.6997837 0.6893549 0.7044911 0.7066858 0.6272947 0.7179822 0.8593788 0.3187335 0.8738283 0.3081392 0.8631538 0.5002 0.8810309 0.5013927 0.8631538 0.5002 0.8738283 0.3081392 0.8738283 0.3081392 0.8593788 0.3187335 0.8003496 0.2827003 0.7963974 0.300176 0.8003496 0.2827003 0.8593788 0.3187335 0.09198236 0.724009 0.09411382 0.6253452 0.0147407 0.704122 0.01603209 0.6443421 0.0147407 0.704122 0.09411382 0.6253452 0.09411382 0.6253452 0.09198236 0.724009 0.2282209 0.6108641 0.2254241 0.740335 0.2282209 0.6108641 0.09198236 0.724009 0.2955192 0.8855087 0.1955379 0.9153086 0.295543 0.8125222 0.1955574 0.7826797 0.295543 0.8125222 0.1955379 0.9153086 0.1955379 0.9153086 0.01822596 0.937739 0.1955574 0.7826797 0.01823294 0.7602492 0.1955574 0.7826797 0.01822596 0.937739 0.3068494 0.8922046 0.2955192 0.8855087 0.3068576 0.8056821 0.295543 0.8125222 0.3068576 0.8056821 0.2955192 0.8855087 0.1820794 0.9466451 0.1955379 0.9153086 0.3068494 0.8922046 0.2955192 0.8855087 0.3068494 0.8922046 0.1955379 0.9153086 0.1955379 0.9153086 0.1820794 0.9466451 0.01822596 0.937739 0.00968635 0.9693116 0.01822596 0.937739 0.1820794 0.9466451 0.1820943 0.7513532 0.1955574 0.7826797 0.009701251 0.7286763 0.01823294 0.7602492 0.009701251 0.7286763 0.1955574 0.7826797 0.1955574 0.7826797 0.1820943 0.7513532 0.295543 0.8125222 0.3068576 0.8056821 0.295543 0.8125222 0.1820943 0.7513532 0.6665332 0.9897271 0.4013849 0.9817756 0.6665341 0.9229351 0.4013858 0.9308773 0.6665341 0.9229351 0.4013849 0.9817756 0.2947279 0.9308747 0.4013858 0.9308773 0.2947273 0.9817737 0.4013849 0.9817756 0.2947273 0.9817737 0.4013858 0.9308773 0.6208318 0.9097018 0.5824264 0.9096888 0.6163104 0.7666156 0.5870433 0.7666059 0.6163104 0.7666156 0.5824264 0.9096888 0.5870606 0.7148207 0.6163275 0.7148306 0.5870433 0.7666059 0.6163104 0.7666156 0.5870433 0.7666059 0.6163275 0.7148306 0.6462208 0.9098542 0.6283697 0.9118149 0.6422197 0.7279711 0.6272947 0.7179822 0.6422197 0.7279711 0.6283697 0.9118149 0.6422197 0.7279711 0.6272947 0.7179822 0.7044911 0.7066858 0.6997837 0.6893549 0.7044911 0.7066858 0.6272947 0.7179822 0.8593788 0.3187335 0.8738283 0.3081392 0.8631538 0.5002 0.8810309 0.5013927 0.8631538 0.5002 0.8738283 0.3081392 0.8738283 0.3081392 0.8593788 0.3187335 0.8003496 0.2827003 0.7963974 0.300176 0.8003496 0.2827003 0.8593788 0.3187335 0.09198236 0.724009 0.09411382 0.6253452 0.0147407 0.704122 0.01603209 0.6443421 0.0147407 0.704122 0.09411382 0.6253452 0.09411382 0.6253452 0.09198236 0.724009 0.2282209 0.6108641 0.2254241 0.740335 0.2282209 0.6108641 0.09198236 0.724009 0.2955192 0.8855087 0.1955379 0.9153086 0.295543 0.8125222 0.1955574 0.7826797 0.295543 0.8125222 0.1955379 0.9153086 0.1955379 0.9153086 0.01822596 0.937739 0.1955574 0.7826797 0.01823294 0.7602492 0.1955574 0.7826797 0.01822596 0.937739 0.3068494 0.8922046 0.2955192 0.8855087 0.3068576 0.8056821 0.295543 0.8125222 0.3068576 0.8056821 0.2955192 0.8855087 0.1820794 0.9466451 0.1955379 0.9153086 0.3068494 0.8922046 0.2955192 0.8855087 0.3068494 0.8922046 0.1955379 0.9153086 0.1955379 0.9153086 0.1820794 0.9466451 0.01822596 0.937739 0.00968635 0.9693116 0.01822596 0.937739 0.1820794 0.9466451 0.1820943 0.7513532 0.1955574 0.7826797 0.009701251 0.7286763 0.01823294 0.7602492 0.009701251 0.7286763 0.1955574 0.7826797 0.1955574 0.7826797 0.1820943 0.7513532 0.295543 0.8125222 0.3068576 0.8056821 0.295543 0.8125222 0.1820943 0.7513532 0.6665332 0.9897271 0.4013849 0.9817756 0.6665341 0.9229351 0.4013858 0.9308773 0.6665341 0.9229351 0.4013849 0.9817756 0.2947279 0.9308747 0.4013858 0.9308773 0.2947273 0.9817737 0.4013849 0.9817756 0.2947273 0.9817737 0.4013858 0.9308773 0.6208318 0.9097018 0.5824264 0.9096888 0.6163104 0.7666156 0.5870433 0.7666059 0.6163104 0.7666156 0.5824264 0.9096888 0.5870606 0.7148207 0.6163275 0.7148306 0.5870433 0.7666059 0.6163104 0.7666156 0.5870433 0.7666059 0.6163275 0.7148306 0.6462208 0.9098542 0.6283697 0.9118149 0.6422197 0.7279711 0.6272947 0.7179822 0.6422197 0.7279711 0.6283697 0.9118149 0.6422197 0.7279711 0.6272947 0.7179822 0.7044911 0.7066858 0.6997837 0.6893549 0.7044911 0.7066858 0.6272947 0.7179822 0.8593788 0.3187335 0.8738283 0.3081392 0.8631538 0.5002 0.8810309 0.5013927 0.8631538 0.5002 0.8738283 0.3081392 0.8738283 0.3081392 0.8593788 0.3187335 0.8003496 0.2827003 0.7963974 0.300176 0.8003496 0.2827003 0.8593788 0.3187335 0.09198236 0.724009 0.09411382 0.6253452 0.0147407 0.704122 0.01603209 0.6443421 0.0147407 0.704122 0.09411382 0.6253452 0.09411382 0.6253452 0.09198236 0.724009 0.2282209 0.6108641 0.2254241 0.740335 0.2282209 0.6108641 0.09198236 0.724009 0.2955192 0.8855087 0.1955379 0.9153086 0.295543 0.8125222 0.1955574 0.7826797 0.295543 0.8125222 0.1955379 0.9153086 0.1955379 0.9153086 0.01822596 0.937739 0.1955574 0.7826797 0.01823294 0.7602492 0.1955574 0.7826797 0.01822596 0.937739 0.3068494 0.8922046 0.2955192 0.8855087 0.3068576 0.8056821 0.295543 0.8125222 0.3068576 0.8056821 0.2955192 0.8855087 0.1820794 0.9466451 0.1955379 0.9153086 0.3068494 0.8922046 0.2955192 0.8855087 0.3068494 0.8922046 0.1955379 0.9153086 0.1955379 0.9153086 0.1820794 0.9466451 0.01822596 0.937739 0.00968635 0.9693116 0.01822596 0.937739 0.1820794 0.9466451 0.1820943 0.7513532 0.1955574 0.7826797 0.009701251 0.7286763 0.01823294 0.7602492 0.009701251 0.7286763 0.1955574 0.7826797 0.1955574 0.7826797 0.1820943 0.7513532 0.295543 0.8125222 0.3068576 0.8056821 0.295543 0.8125222 0.1820943 0.7513532 0.6665332 0.9897271 0.4013849 0.9817756 0.6665341 0.9229351 0.4013858 0.9308773 0.6665341 0.9229351 0.4013849 0.9817756 0.2947279 0.9308747 0.4013858 0.9308773 0.2947273 0.9817737 0.4013849 0.9817756 0.2947273 0.9817737 0.4013858 0.9308773 0.6208318 0.9097018 0.5824264 0.9096888 0.6163104 0.7666156 0.5870433 0.7666059 0.6163104 0.7666156 0.5824264 0.9096888 0.5870606 0.7148207 0.6163275 0.7148306 0.5870433 0.7666059 0.6163104 0.7666156 0.5870433 0.7666059 0.6163275 0.7148306 0.6462208 0.9098542 0.6283697 0.9118149 0.6422197 0.7279711 0.6272947 0.7179822 0.6422197 0.7279711 0.6283697 0.9118149 0.6422197 0.7279711 0.6272947 0.7179822 0.7044911 0.7066858 0.6997837 0.6893549 0.7044911 0.7066858 0.6272947 0.7179822 0.8593788 0.3187335 0.8738283 0.3081392 0.8631538 0.5002 0.8810309 0.5013927 0.8631538 0.5002 0.8738283 0.3081392 0.8738283 0.3081392 0.8593788 0.3187335 0.8003496 0.2827003 0.7963974 0.300176 0.8003496 0.2827003 0.8593788 0.3187335 0.5074446 0.409751 0.5083042 0.2399106 0.5556339 0.4099921 0.5564902 0.2401518 0.5556339 0.4099921 0.5083042 0.2399106 0.5083042 0.2399106 0.5074446 0.409751 0.4601198 0.2396677 0.4592541 0.4095083 0.4601198 0.2396677 0.5074446 0.409751 0.4601198 0.2396677 0.4592541 0.4095083 0.411937 0.2394229 0.4110626 0.4092631 0.411937 0.2394229 0.4592541 0.4095083 0.411937 0.2394229 0.4110626 0.4092631 0.3637559 0.2391744 0.3628699 0.4090145 0.3637559 0.2391744 0.4110626 0.4092631 0.3637559 0.2391744 0.3628699 0.4090145 0.3155751 0.2389219 0.3146766 0.4087618 0.3155751 0.2389219 0.3628699 0.4090145 0.3155751 0.2389219 0.3146766 0.4087618 0.2673942 0.2386646 0.266483 0.4085044 0.2673942 0.2386646 0.3146766 0.4087618 0.2673942 0.2386646 0.266483 0.4085044 0.2192122 0.2384028 0.2182902 0.4082427 0.2192122 0.2384028 0.266483 0.4085044 0.2192122 0.2384028 0.2182902 0.4082427 0.171029 0.2381379 0.1700986 0.4079775 0.171029 0.2381379 0.2182902 0.4082427 0.171029 0.2381379 0.1700986 0.4079775 0.122844 0.2378717 0.1219082 0.4077114 0.122844 0.2378717 0.1700986 0.4079775 0.122844 0.2378717 0.1219082 0.4077114 0.07465773 0.2376041 0.07371914 0.4074439 0.07465773 0.2376041 0.1219082 0.4077114 0.07465773 0.2376041 0.07371914 0.4074439 0.02647072 0.2373372 0.02553129 0.4071766 0.02647072 0.2373372 0.07371914 0.4074439 0.5556339 0.4099921 0.5564902 0.2401518 0.6038219 0.4102343 0.6046775 0.2403938 0.6038219 0.4102343 0.5564902 0.2401518 0.8364221 0.5639251 0.8695583 0.578831 0.829494 0.6065838 0.8656446 0.602924 0.829494 0.6065838 0.8695583 0.578831 0.8695583 0.578831 0.8364221 0.5639251 0.8849926 0.5599238 0.8637462 0.5304494 0.8849926 0.5599238 0.8364221 0.5639251 0.8849926 0.5599238 0.8637462 0.5304494 0.9078171 0.55127 0.9041376 0.5151236 0.9078171 0.55127 0.8637462 0.5304494 0.9078171 0.55127 0.9041376 0.5151236 0.9319119 0.5551711 0.946799 0.5220248 0.9319119 0.5551711 0.9041376 0.5151236 0.9319119 0.5551711 0.946799 0.5220248 0.9508163 0.5706066 0.9802918 0.5493585 0.9508163 0.5706066 0.946799 0.5220248 0.9508163 0.5706066 0.9802918 0.5493585 0.9594738 0.5934284 0.9956245 0.589769 0.9594738 0.5934284 0.9802918 0.5493585 0.9594738 0.5934284 0.9956245 0.589769 0.9555601 0.6175207 0.9886965 0.6324263 0.9555601 0.6175207 0.9956245 0.589769 0.9555601 0.6175207 0.9886965 0.6324263 0.9401257 0.6364276 0.9613725 0.6659015 0.9401257 0.6364276 0.9886965 0.6324263 0.9401257 0.6364276 0.9613725 0.6659015 0.9173014 0.6450825 0.9209813 0.6812288 0.9173014 0.6450825 0.9613725 0.6659015 0.9173014 0.6450825 0.9209813 0.6812288 0.893207 0.6411818 0.8783197 0.6743284 0.893207 0.6411818 0.9209813 0.6812288 0.893207 0.6411818 0.8783197 0.6743284 0.8743025 0.6257464 0.8448268 0.6469949 0.8743025 0.6257464 0.8783197 0.6743284 0.8743025 0.6257464 0.8448268 0.6469949 0.8656446 0.602924 0.829494 0.6065838 0.8656446 0.602924 0.8448268 0.6469949 0.8849926 0.5599238 0.9078171 0.55127 0.8695583 0.578831 0.9078171 0.55127 0.8743025 0.6257464 0.8695583 0.578831 0.9555601 0.6175207 0.8743025 0.6257464 0.9078171 0.55127 0.9508163 0.5706066 0.9555601 0.6175207 0.9078171 0.55127 0.9319119 0.5551711 0.9508163 0.5706066 0.9078171 0.55127 0.9594738 0.5934284 0.9555601 0.6175207 0.9508163 0.5706066 0.9173014 0.6450825 0.8743025 0.6257464 0.9555601 0.6175207 0.9401257 0.6364276 0.9173014 0.6450825 0.9555601 0.6175207 0.893207 0.6411818 0.8743025 0.6257464 0.9173014 0.6450825 0.8695583 0.578831 0.8743025 0.6257464 0.8656446 0.602924 0.2149138 0.4360296 0.2131552 0.5633869 0.1787751 0.4355341 0.1770263 0.5628913 0.1787751 0.4355341 0.2131552 0.5633869 0.2131552 0.5633869 0.2149138 0.4360296 0.2492824 0.5638865 0.2510536 0.4365297 0.2492824 0.5638865 0.2149138 0.4360296 0.2492824 0.5638865 0.2510536 0.4365297 0.2854097 0.5643916 0.2871934 0.437035 0.2854097 0.5643916 0.2510536 0.4365297 0.2854097 0.5643916 0.2871934 0.437035 0.3215381 0.5649007 0.3233319 0.4375443 0.3215381 0.5649007 0.2871934 0.437035 0.3215381 0.5649007 0.3233319 0.4375443 0.3576681 0.5654131 0.3594694 0.4380568 0.3576681 0.5654131 0.3233319 0.4375443 0.3576681 0.5654131 0.3594694 0.4380568 0.3937995 0.5659268 0.3956057 0.4385707 0.3937995 0.5659268 0.3594694 0.4380568 0.3937995 0.5659268 0.3956057 0.4385707 0.429932 0.5664409 0.4317407 0.4390845 0.429932 0.5664409 0.3956057 0.4385707 0.429932 0.5664409 0.4317407 0.4390845 0.4660656 0.5669542 0.4678749 0.4395975 0.4660656 0.5669542 0.4317407 0.4390845 0.1787751 0.4355341 0.1770263 0.5628913 0.1426375 0.4350414 0.1426375 0.4350414 0.140897 0.5623985 0.1065011 0.4345499 0.1047658 0.5619074 0.1065011 0.4345499 0.140897 0.5623985 0.1065011 0.4345499 0.1047658 0.5619074 0.07036602 0.4340592 0.06863284 0.5614166 0.07036602 0.4340592 0.1047658 0.5619074 0.07036602 0.4340592 0.06863284 0.5614166 0.03423166 0.4335681 0.03249877 0.5609252 0.03423166 0.4335681 0.06863284 0.5614166 0.140897 0.5623985 0.1426375 0.4350414 0.1770263 0.5628913 0.5335593 0.4726292 0.5669365 0.4876503 0.5265712 0.5155996 0.5629884 0.5119195 0.5265712 0.5155996 0.5669365 0.4876503 0.5669365 0.4876503 0.5335593 0.4726292 0.5824883 0.4686074 0.5610904 0.4389132 0.5824883 0.4686074 0.5335593 0.4726292 0.5824883 0.4686074 0.5610904 0.4389132 0.6054832 0.4598943 0.6017797 0.423482 0.6054832 0.4598943 0.5610904 0.4389132 0.6054832 0.4598943 0.6017797 0.423482 0.6297548 0.4638262 0.6447546 0.4304368 0.6297548 0.4638262 0.6017797 0.423482 0.6297548 0.4638262 0.6447546 0.4304368 0.6487943 0.4793793 0.678491 0.4579792 0.6487943 0.4793793 0.6447546 0.4304368 0.6487943 0.4793793 0.678491 0.4579792 0.6575112 0.5023714 0.6939286 0.4986912 0.6575112 0.5023714 0.678491 0.4579792 0.6575112 0.5023714 0.6939286 0.4986912 0.653563 0.5266402 0.6869402 0.5416614 0.653563 0.5266402 0.6939286 0.4986912 0.653563 0.5266402 0.6869402 0.5416614 0.6380116 0.5456833 0.659409 0.5753773 0.6380116 0.5456833 0.6869402 0.5416614 0.6380116 0.5456833 0.659409 0.5753773 0.6150166 0.5543966 0.6187202 0.5908089 0.6150166 0.5543966 0.659409 0.5753773 0.6150166 0.5543966 0.6187202 0.5908089 0.5907452 0.5504645 0.575745 0.5838539 0.5907452 0.5504645 0.6187202 0.5908089 0.5907452 0.5504645 0.575745 0.5838539 0.5717053 0.5349115 0.542009 0.5563118 0.5717053 0.5349115 0.575745 0.5838539 0.5717053 0.5349115 0.542009 0.5563118 0.5629884 0.5119195 0.5265712 0.5155996 0.5629884 0.5119195 0.542009 0.5563118 0.5824883 0.4686074 0.6054832 0.4598943 0.5669365 0.4876503 0.6054832 0.4598943 0.5717053 0.5349115 0.5669365 0.4876503 0.653563 0.5266402 0.5717053 0.5349115 0.6054832 0.4598943 0.6487943 0.4793793 0.653563 0.5266402 0.6054832 0.4598943 0.6297548 0.4638262 0.6487943 0.4793793 0.6054832 0.4598943 0.6575112 0.5023714 0.653563 0.5266402 0.6487943 0.4793793 0.6150166 0.5543966 0.5717053 0.5349115 0.653563 0.5266402 0.6380116 0.5456833 0.6150166 0.5543966 0.653563 0.5266402 0.5907452 0.5504645 0.5717053 0.5349115 0.6150166 0.5543966 0.5669365 0.4876503 0.5717053 0.5349115 0.5629884 0.5119195 0.09651035 0.216149 0.09711498 0.02442866 0.1715572 0.2163873 0.1721585 0.02466696 0.1715572 0.2163873 0.09711498 0.02442866 0.09711498 0.02442866 0.09651035 0.216149 0.02207046 0.02419126 0.02146476 0.2159116 0.02207046 0.02419126 0.09651035 0.216149 0.1715572 0.2163873 0.1721585 0.02466696 0.246606 0.2166237 0.2472001 0.02490323 0.246606 0.2166237 0.1721585 0.02466696 0.246606 0.2166237 0.2472001 0.02490323 0.3216571 0.2168561 0.3222399 0.02513551 0.3216571 0.2168561 0.2472001 0.02490323 0.3216571 0.2168561 0.3222399 0.02513551 0.3967099 0.2170829 0.3972787 0.02536273 0.3967099 0.2170829 0.3222399 0.02513551 0.3967099 0.2170829 0.3972787 0.02536273 0.4717628 0.2173036 0.4723161 0.0255835 0.4717628 0.2173036 0.3972787 0.02536273 0.4717628 0.2173036 0.4723161 0.0255835 0.5468163 0.217517 0.547353 0.02579653 0.5468163 0.217517 0.4723161 0.0255835 0.5468163 0.217517 0.547353 0.02579653 0.6218684 0.2177228 0.6223904 0.02600228 0.6218684 0.2177228 0.547353 0.02579653 0.6218684 0.2177228 0.6223904 0.02600228 0.6969189 0.2179226 0.6974291 0.02620184 0.6969189 0.2179226 0.6223904 0.02600228 0.6969189 0.2179226 0.6974291 0.02620184 0.7719681 0.218118 0.7724708 0.02639734 0.7719681 0.218118 0.6974291 0.02620184 0.7719681 0.218118 0.7724708 0.02639734 0.8470154 0.218312 0.8475141 0.02659136 0.8470154 0.218312 0.7724708 0.02639734 0.8470154 0.218312 0.8475141 0.02659136 0.9220613 0.218506 0.9225593 0.02678561 0.9220613 0.218506 0.8475141 0.02659136 0.6863545 0.9252003 0.7358214 0.8870555 0.751928 0.9752687 0.7756951 0.9175008 0.751928 0.9752687 0.7358214 0.8870555 0.7358214 0.8870555 0.6863545 0.9252003 0.7165121 0.8407531 0.6545998 0.8490542 0.7165121 0.8407531 0.6863545 0.9252003 0.7165121 0.8407531 0.6545998 0.8490542 0.7229419 0.7910011 0.7165121 0.8407531 0.7229419 0.7910011 0.7358214 0.8870555 0.6651739 0.7672339 0.7229419 0.7910011 0.6545998 0.8490542 0.7229419 0.7910011 0.6651739 0.7672339 0.7533876 0.7511275 0.7152426 0.7016609 0.7533876 0.7511275 0.6651739 0.7672339 0.7533876 0.7511275 0.7152426 0.7016609 0.7996909 0.7318185 0.7533876 0.7511275 0.7996909 0.7318185 0.7229419 0.7910011 0.7913895 0.6699069 0.7996909 0.7318185 0.7152426 0.7016609 0.7996909 0.7318185 0.7913895 0.6699069 0.8494446 0.7382482 0.8732117 0.6804805 0.8494446 0.7382482 0.7913895 0.6699069 0.8494446 0.7382482 0.8732117 0.6804805 0.8893183 0.7686935 0.8494446 0.7382482 0.8893183 0.7686935 0.7996909 0.7318185 0.7996909 0.7318185 0.8893183 0.7686935 0.7229419 0.7910011 0.9387851 0.7305487 0.8893183 0.7686935 0.8732117 0.6804805 0.8893183 0.7686935 0.9387851 0.7305487 0.9086275 0.8149963 0.9705396 0.8066953 0.9086275 0.8149963 0.9387851 0.7305487 0.9086275 0.8149963 0.9705396 0.8066953 0.9021978 0.8647483 0.9086275 0.8149963 0.9021978 0.8647483 0.8893183 0.7686935 0.9599659 0.8885153 0.9021978 0.8647483 0.9705396 0.8066953 0.9021978 0.8647483 0.9599659 0.8885153 0.8717521 0.9046219 0.9098971 0.954088 0.8717521 0.9046219 0.9599659 0.8885153 0.8717521 0.9046219 0.9098971 0.954088 0.8254489 0.9239305 0.8717521 0.9046219 0.8254489 0.9239305 0.9021978 0.8647483 0.9021978 0.8647483 0.8254489 0.9239305 0.8893183 0.7686935 0.8337504 0.9858425 0.8254489 0.9239305 0.9098971 0.954088 0.8254489 0.9239305 0.8337504 0.9858425 0.7756951 0.9175008 0.751928 0.9752687 0.7756951 0.9175008 0.8337504 0.9858425 0.8893183 0.7686935 0.8254489 0.9239305 0.7229419 0.7910011 0.7229419 0.7910011 0.8254489 0.9239305 0.7358214 0.8870555 0.7358214 0.8870555 0.8254489 0.9239305 0.7756951 0.9175008 0.7019404 0.6483852 0.715613 0.6771067 0.6400826 0.6668777 0.6444237 0.6983807 0.6400826 0.6668777 0.715613 0.6771067 0.715613 0.6771067 0.7019404 0.6483852 0.7770759 0.6352763 0.7552942 0.6120872 0.7770759 0.6352763 0.7019404 0.6483852 0.7770759 0.6352763 0.7552942 0.6120872 0.8231013 0.576627 0.7953262 0.5613487 0.8231013 0.576627 0.7552942 0.6120872 0.8231013 0.576627 0.7953262 0.5613487 0.8484344 0.5062914 0.8172722 0.500454 0.8484344 0.5062914 0.7953262 0.5613487 0.8484344 0.5062914 0.8172722 0.500454 0.8503252 0.4315069 0.8189056 0.4357799 0.8503252 0.4315069 0.8172722 0.500454 0.8503252 0.4315069 0.8189056 0.4357799 0.8285347 0.3599352 0.8000695 0.3738916 0.8285347 0.3599352 0.8189056 0.4357799 0.8285347 0.3599352 0.8000695 0.3738916 0.785274 0.2989305 0.7626599 0.3210866 0.785274 0.2989305 0.8000695 0.3738916 0.785274 0.2989305 0.7626599 0.3210866 0.7252232 0.2548695 0.7102947 0.2826909 0.7252232 0.2548695 0.7626599 0.3210866 0.7252232 0.2548695 0.7102947 0.2826909 0.6577133 0.2316444 0.646566 0.2626392 0.6577133 0.2316444 0.7102947 0.2826909 0.514074 0.6449323 0.5003947 0.6732672 0.4598889 0.6058159 0.4415279 0.6337517 0.4598889 0.6058159 0.5003947 0.6732672 0.5003947 0.6732672 0.514074 0.6449323 0.5701483 0.6971166 0.5755186 0.6658119 0.5701483 0.6971166 0.514074 0.6449323 0.5701483 0.6971166 0.5755186 0.6658119 0.6444237 0.6983807 0.6400826 0.6668777 0.6444237 0.6983807 0.5755186 0.6658119 0.2338324 0.6279126 0.2537528 0.5939723 0.2335508 0.6672662 0.2537528 0.5939723 0.2869243 0.7214087 0.2335508 0.6672662 0.3807018 0.6289632 0.2869243 0.7214087 0.2537528 0.5939723 0.3273284 0.5748208 0.3807018 0.6289632 0.2537528 0.5939723 0.2879748 0.5745392 0.3273284 0.5748208 0.2537528 0.5939723 0.3612688 0.5947412 0.3807018 0.6289632 0.3273284 0.5748208 0.3604997 0.7022572 0.2869243 0.7214087 0.3807018 0.6289632 0.3804203 0.6683167 0.3604997 0.7022572 0.3807018 0.6289632 0.3262779 0.7216902 0.2869243 0.7214087 0.3604997 0.7022572 0.2335508 0.6672662 0.2869243 0.7214087 0.2529838 0.7014881 0.3473034 0.8245399 0.3486702 0.765349 0.3757116 0.876485 0.3486702 0.765349 0.4854732 0.9086183 0.3757116 0.876485 0.5411592 0.7185137 0.4854732 0.9086183 0.3486702 0.765349 0.4313972 0.686379 0.5411592 0.7185137 0.3486702 0.765349 0.3794403 0.7147656 0.4313972 0.686379 0.3486702 0.765349 0.4905855 0.6877337 0.5411592 0.7185137 0.4313972 0.686379 0.5681998 0.8296489 0.4854732 0.9086183 0.5411592 0.7185137 0.569568 0.7704582 0.5681998 0.8296489 0.5411592 0.7185137 0.5374296 0.8802317 0.4854732 0.9086183 0.5681998 0.8296489 0.3757116 0.876485 0.4854732 0.9086183 0.4262849 0.9072652 0.3757116 0.876485 0.4262849 0.9072652 0.369712 0.8822135 0.4239537 0.9152269 0.369712 0.8822135 0.4262849 0.9072652 0.4262849 0.9072652 0.4854732 0.9086183 0.4239537 0.9152269 0.3473034 0.8245399 0.3757116 0.876485 0.3392442 0.826501 0.369712 0.8822135 0.3392442 0.826501 0.3757116 0.876485 0.3486702 0.765349 0.3473034 0.8245399 0.3407092 0.7630176 0.3392442 0.826501 0.3407092 0.7630176 0.3473034 0.8245399 0.3794403 0.7147656 0.3486702 0.765349 0.373709 0.70876 0.3407092 0.7630176 0.373709 0.70876 0.3486702 0.765349 0.4313972 0.686379 0.3794403 0.7147656 0.4294396 0.6783249 0.373709 0.70876 0.4294396 0.6783249 0.3794403 0.7147656 0.4905855 0.6877337 0.4313972 0.686379 0.492917 0.6797726 0.4294396 0.6783249 0.492917 0.6797726 0.4313972 0.686379 0.5411592 0.7185137 0.4905855 0.6877337 0.547159 0.7127855 0.492917 0.6797726 0.547159 0.7127855 0.4905855 0.6877337 0.569568 0.7704582 0.5411592 0.7185137 0.5776275 0.7684973 0.547159 0.7127855 0.5776275 0.7684973 0.5411592 0.7185137 0.5681998 0.8296489 0.569568 0.7704582 0.5761606 0.8319803 0.5776275 0.7684973 0.5761606 0.8319803 0.569568 0.7704582 0.5374296 0.8802317 0.5681998 0.8296489 0.5431608 0.8862371 0.5761606 0.8319803 0.5431608 0.8862371 0.5681998 0.8296489 0.5431608 0.8862371 0.4874309 0.9166721 0.5374296 0.8802317 0.4854732 0.9086183 0.5374296 0.8802317 0.4874309 0.9166721 0.4874309 0.9166721 0.4239537 0.9152269 0.4854732 0.9086183 0.6400826 0.6668777 0.6308957 0.6002927 0.7019404 0.6483852 0.6730683 0.5876764 0.7019404 0.6483852 0.6308957 0.6002927 0.6308957 0.6002927 0.6400826 0.6668777 0.5868874 0.5995913 0.5755186 0.6658119 0.5868874 0.5995913 0.6400826 0.6668777 0.5868874 0.5995913 0.5755186 0.6658119 0.5451665 0.5858134 0.514074 0.6449323 0.5451665 0.5858134 0.5755186 0.6658119 0.5451665 0.5858134 0.514074 0.6449323 0.5108613 0.5601909 0.4598889 0.6058159 0.5108613 0.5601909 0.514074 0.6449323 0.7019404 0.6483852 0.6730683 0.5876764 0.7552942 0.6120872 0.7094733 0.5628978 0.7552942 0.6120872 0.6730683 0.5876764 0.7552942 0.6120872 0.7094733 0.5628978 0.7953262 0.5613487 0.7366074 0.5287286 0.7953262 0.5613487 0.7094733 0.5628978 0.7953262 0.5613487 0.7366074 0.5287286 0.8172722 0.500454 0.7512541 0.488059 0.8172722 0.500454 0.7366074 0.5287286 0.8172722 0.500454 0.7512541 0.488059 0.8189056 0.4357799 0.7523404 0.4448293 0.8189056 0.4357799 0.7512541 0.488059 0.8189056 0.4357799 0.7523404 0.4448293 0.8000695 0.3738916 0.7397552 0.4034591 0.8000695 0.3738916 0.7523404 0.4448293 0.8000695 0.3738916 0.7397552 0.4034591 0.7626599 0.3210866 0.7148044 0.3681602 0.7626599 0.3210866 0.7397552 0.4034591 0.7626599 0.3210866 0.7148044 0.3681602 0.7102947 0.2826909 0.6801475 0.3425509 0.7102947 0.2826909 0.7148044 0.3681602 0.7102947 0.2826909 0.6801475 0.3425509 0.646566 0.2626392 0.6395848 0.3301647 0.646566 0.2626392 0.6801475 0.3425509 0.955776 0.5055585 0.9687864 0.1295773 0.9699663 0.5059664 0.9785622 0.1298584 0.9699663 0.5059664 0.9687864 0.1295773 0.9415911 0.5049843 0.9590143 0.1291816 0.955776 0.5055585 0.9687864 0.1295773 0.955776 0.5055585 0.9590143 0.1291816 0.9274143 0.5042431 0.9492477 0.1286712 0.9415911 0.5049843 0.9590143 0.1291816 0.9415911 0.5049843 0.9492477 0.1286712 0.9132477 0.5033363 0.9394876 0.1280463 0.9274143 0.5042431 0.9492477 0.1286712 0.9274143 0.5042431 0.9394876 0.1280463 0.9699663 0.5059664 0.9785622 0.1298584 0.9841597 0.5062071 0.9883407 0.1300241 0.9841597 0.5062071 0.9785622 0.1298584 0.9065175 0.2762458 0.8840076 0.2926006 0.8979194 0.2497835 0.8979194 0.2497835 0.8840076 0.2926006 0.8700961 0.2497835 0.8700961 0.2497835 0.8840076 0.2926006 0.8614982 0.2762458 0.943738 0.9805639 0.9332188 0.948195 0.9777722 0.9805639 0.9777722 0.9805639 0.9332188 0.948195 0.9882914 0.948195 0.9882914 0.948195 0.9332188 0.948195 0.9607551 0.928188</float_array>
          <technique_common>
            <accessor source="#Superscalar_gas_harvester_0-mesh-map-0-array" count="1254" stride="2">
              <param name="S" type="float"/>
              <param name="T" type="float"/>
            </accessor>
          </technique_common>
        </source>
        <vertices id="Superscalar_gas_harvester_0-mesh-vertices">
          <input semantic="POSITION" source="#Superscalar_gas_harvester_0-mesh-positions"/>
        </vertices>
        <triangles material="Mining-material" count="418">
          <input semantic="VERTEX" source="#Superscalar_gas_harvester_0-mesh-vertices" offset="0"/>
          <input semantic="NORMAL" source="#Superscalar_gas_harvester_0-mesh-normals" offset="1"/>
          <input semantic="TEXCOORD" source="#Superscalar_gas_harvester_0-mesh-map-0" offset="2" set="0"/>
          <p>0 0 0 1 1 1 2 2 2 3 3 3 2 2 4 1 1 5 1 1 6 0 0 7 4 4 8 5 5 9 4 4 10 0 0 11 6 6 12 7 7 13 8 8 14 9 7 15 8 8 16 7 7 17 7 7 18 10 9 19 9 7 20 11 10 21 9 7 22 10 9 23 12 11 24 13 12 25 14 13 26 15 14 27 14 13 28 13 12 29 16 15 30 17 16 31 18 17 32 19 18 33 18 17 34 17 16 35 17 16 36 16 15 37 20 19 38 21 20 39 20 19 40 16 15 41 22 21 42 23 22 43 24 23 44 25 24 45 24 23 46 23 22 47 23 22 48 22 21 49 26 25 50 27 26 51 26 25 52 22 21 53 28 27 54 29 28 55 30 27 56 31 29 57 30 27 58 29 28 59 32 30 60 33 31 61 34 32 62 35 33 63 34 32 64 33 31 65 36 34 66 37 35 67 38 36 68 39 37 69 38 36 70 37 35 71 40 38 72 41 39 73 42 40 74 43 41 75 42 40 76 41 39 77 44 42 78 45 43 79 46 44 80 47 45 81 46 44 82 45 43 83 46 44 84 47 45 85 48 46 86 49 47 87 48 46 88 47 45 89 50 48 90 51 49 91 52 50 92 53 51 93 52 50 94 51 49 95 51 49 96 50 48 97 54 52 98 55 53 99 54 52 100 50 48 101 56 54 102 57 55 103 58 56 104 59 57 105 58 56 106 57 55 107 57 55 108 56 54 109 60 58 110 61 59 111 60 58 112 56 54 113 62 60 114 63 61 115 64 62 116 65 63 117 64 62 118 63 61 119 63 61 120 66 64 121 65 63 122 67 65 123 65 63 124 66 64 125 68 66 126 69 67 127 70 68 128 71 69 129 70 68 130 69 67 131 72 70 132 73 71 133 74 72 134 75 73 135 74 72 136 73 71 137 73 71 138 72 70 139 76 74 140 77 75 141 76 74 142 72 70 143 78 76 144 79 77 145 80 78 146 81 79 147 80 78 148 79 77 149 79 77 150 78 76 151 82 80 152 83 81 153 82 80 154 78 76 155 84 82 156 85 83 157 86 84 158 87 85 159 86 84 160 85 83 161 88 86 162 89 87 163 90 88 164 91 89 165 90 88 166 89 87 167 92 90 168 93 91 169 94 92 170 95 93 171 94 92 172 93 91 173 96 94 174 97 95 175 98 96 176 99 97 177 98 96 178 97 95 179 100 98 180 101 99 181 102 100 182 103 101 183 102 100 184 101 99 185 102 100 186 103 101 187 104 102 188 105 103 189 104 102 190 103 101 191 106 104 192 107 105 193 108 106 194 109 107 195 108 106 196 107 105 197 107 105 198 106 104 199 110 108 200 111 109 201 110 108 202 106 104 203 112 110 204 113 111 205 114 112 206 115 113 207 114 112 208 113 111 209 113 111 210 112 110 211 116 114 212 117 115 213 116 114 214 112 110 215 118 116 216 119 117 217 120 118 218 121 119 219 120 118 220 119 117 221 119 117 222 122 120 223 121 119 224 123 121 225 121 119 226 122 120 227 124 122 228 125 123 229 126 124 230 127 125 231 126 124 232 125 123 233 128 126 234 129 127 235 130 128 236 131 129 237 130 128 238 129 127 239 129 127 240 128 126 241 132 130 242 133 131 243 132 130 244 128 126 245 134 132 246 135 133 247 136 134 248 137 135 249 136 134 250 135 133 251 135 133 252 134 132 253 138 136 254 139 137 255 138 136 256 134 132 257 140 138 258 141 139 259 142 140 260 143 141 261 142 140 262 141 139 263 144 142 264 145 143 265 146 144 266 147 145 267 146 144 268 145 143 269 148 146 270 149 147 271 150 148 272 151 149 273 150 148 274 149 147 275 152 150 276 153 151 277 154 152 278 155 153 279 154 152 280 153 151 281 156 154 282 157 155 283 158 156 284 159 157 285 158 156 286 157 155 287 158 156 288 159 157 289 160 158 290 161 159 291 160 158 292 159 157 293 162 160 294 163 161 295 164 162 296 165 163 297 164 162 298 163 161 299 163 161 300 162 160 301 166 164 302 167 165 303 166 164 304 162 160 305 168 166 306 169 167 307 170 168 308 171 169 309 170 168 310 169 167 311 169 167 312 168 166 313 172 170 314 173 171 315 172 170 316 168 166 317 174 172 318 175 173 319 176 174 320 177 175 321 176 174 322 175 173 323 175 173 324 178 176 325 177 175 326 179 177 327 177 175 328 178 176 329 180 178 330 181 179 331 182 180 332 183 181 333 182 180 334 181 179 335 184 182 336 185 183 337 186 184 338 187 185 339 186 184 340 185 183 341 185 183 342 184 182 343 188 186 344 189 187 345 188 186 346 184 182 347 190 188 348 191 189 349 192 190 350 193 191 351 192 190 352 191 189 353 191 189 354 190 188 355 194 192 356 195 193 357 194 192 358 190 188 359 196 194 360 197 195 361 198 196 362 199 197 363 198 196 364 197 195 365 200 198 366 201 199 367 202 200 368 203 201 369 202 200 370 201 199 371 204 202 372 205 203 373 206 204 374 207 205 375 206 204 376 205 203 377 208 206 378 209 207 379 210 208 380 211 209 381 210 208 382 209 207 383 212 210 384 213 211 385 214 212 386 215 213 387 214 212 388 213 211 389 214 212 390 215 213 391 216 214 392 217 215 393 216 214 394 215 213 395 218 216 396 219 217 397 220 218 398 221 219 399 220 218 400 219 217 401 219 217 402 218 216 403 222 220 404 223 221 405 222 220 406 218 216 407 224 222 408 225 223 409 226 224 410 227 225 411 226 224 412 225 223 413 225 223 414 224 222 415 228 226 416 229 227 417 228 226 418 224 222 419 228 226 420 229 227 421 230 228 422 231 229 423 230 228 424 229 227 425 230 228 426 231 229 427 232 230 428 233 231 429 232 230 430 231 229 431 232 230 432 233 231 433 234 232 434 235 233 435 234 232 436 233 231 437 234 232 438 235 233 439 236 234 440 237 235 441 236 234 442 235 233 443 236 234 444 237 235 445 238 236 446 239 237 447 238 236 448 237 235 449 238 236 450 239 237 451 240 238 452 241 239 453 240 238 454 239 237 455 240 238 456 241 239 457 242 240 458 243 241 459 242 240 460 241 239 461 242 240 462 243 241 463 244 242 464 245 243 465 244 242 466 243 241 467 244 242 468 245 243 469 246 244 470 247 245 471 246 244 472 245 243 473 226 224 474 227 225 475 248 246 476 249 247 477 248 246 478 227 225 479 250 248 480 251 249 481 252 250 482 253 251 483 252 250 484 251 249 485 251 249 486 250 248 487 254 252 488 255 253 489 254 252 490 250 248 491 254 252 492 255 253 493 256 254 494 257 255 495 256 254 496 255 253 497 256 254 498 257 255 499 258 256 500 259 257 501 258 256 502 257 255 503 258 256 504 259 257 505 260 258 506 261 259 507 260 258 508 259 257 509 260 258 510 261 259 511 262 260 512 263 261 513 262 260 514 261 259 515 262 260 516 263 261 517 264 262 518 265 263 519 264 262 520 263 261 521 264 262 522 265 263 523 266 264 524 267 265 525 266 264 526 265 263 527 266 264 528 267 265 529 268 266 530 269 267 531 268 266 532 267 265 533 268 266 534 269 267 535 270 268 536 271 269 537 270 268 538 269 267 539 270 268 540 271 269 541 272 270 542 273 271 543 272 270 544 271 269 545 272 270 546 273 271 547 253 251 548 252 250 549 253 251 550 273 271 551 274 272 552 275 273 553 276 272 554 275 273 555 277 274 556 276 272 557 278 275 558 277 274 559 275 273 560 279 276 561 278 275 562 275 273 563 280 272 564 279 276 565 275 273 566 281 277 567 278 275 568 279 276 569 282 278 570 277 274 571 278 275 572 283 279 573 282 278 574 278 275 575 284 272 576 277 274 577 282 278 578 276 272 579 277 274 580 285 272 581 286 280 582 287 281 583 288 282 584 289 283 585 288 282 586 287 281 587 287 281 588 286 280 589 290 284 590 291 285 591 290 284 592 286 280 593 290 284 594 291 285 595 292 286 596 293 287 597 292 286 598 291 285 599 292 286 600 293 287 601 294 288 602 295 289 603 294 288 604 293 287 605 294 288 606 295 289 607 296 290 608 297 291 609 296 290 610 295 289 611 296 290 612 297 291 613 298 292 614 299 293 615 298 292 616 297 291 617 298 292 618 299 293 619 300 294 620 301 295 621 300 294 622 299 293 623 300 294 624 301 295 625 302 296 626 303 297 627 302 296 628 301 295 629 288 282 630 289 283 631 304 298 632 304 298 633 305 299 634 306 300 635 307 301 636 306 300 637 305 299 638 306 300 639 307 301 640 308 302 641 309 303 642 308 302 643 307 301 644 308 302 645 309 303 646 310 304 647 311 305 648 310 304 649 309 303 650 305 299 651 304 298 652 289 283 653 312 306 654 313 307 655 314 308 656 315 309 657 314 308 658 313 307 659 313 307 660 312 306 661 316 310 662 317 311 663 316 310 664 312 306 665 316 310 666 317 311 667 318 312 668 319 313 669 318 312 670 317 311 671 318 312 672 319 313 673 320 314 674 321 315 675 320 314 676 319 313 677 320 314 678 321 315 679 322 316 680 323 317 681 322 316 682 321 315 683 322 316 684 323 317 685 324 318 686 325 319 687 324 318 688 323 317 689 324 318 690 325 319 691 326 320 692 327 321 693 326 320 694 325 319 695 326 320 696 327 321 697 328 322 698 329 323 699 328 322 700 327 321 701 328 322 702 329 323 703 330 324 704 331 325 705 330 324 706 329 323 707 330 324 708 331 325 709 332 326 710 333 327 711 332 326 712 331 325 713 332 326 714 333 327 715 334 328 716 335 329 717 334 328 718 333 327 719 334 328 720 335 329 721 315 309 722 314 308 723 315 309 724 335 329 725 336 272 726 337 272 727 338 272 728 337 272 729 339 272 730 338 272 731 340 330 732 339 272 733 337 272 734 341 331 735 340 330 736 337 272 737 342 272 738 341 331 739 337 272 740 343 332 741 340 330 742 341 331 743 344 272 744 339 272 745 340 330 746 345 272 747 344 272 748 340 330 749 346 272 750 339 272 751 344 272 752 338 272 753 339 272 754 347 272 755 348 333 756 349 334 757 350 335 758 351 336 759 350 335 760 349 334 761 349 334 762 348 333 763 352 337 764 353 338 765 352 337 766 348 333 767 350 335 768 351 336 769 354 339 770 355 340 771 354 339 772 351 336 773 354 339 774 355 340 775 356 341 776 357 342 777 356 341 778 355 340 779 356 341 780 357 342 781 358 343 782 359 344 783 358 343 784 357 342 785 358 343 786 359 344 787 360 345 788 361 346 789 360 345 790 359 344 791 360 345 792 361 346 793 362 347 794 363 348 795 362 347 796 361 346 797 362 347 798 363 348 799 364 349 800 365 350 801 364 349 802 363 348 803 364 349 804 365 350 805 366 351 806 367 352 807 366 351 808 365 350 809 366 351 810 367 352 811 368 353 812 369 354 813 368 353 814 367 352 815 368 353 816 369 354 817 370 355 818 371 356 819 370 355 820 369 354 821 370 355 822 371 356 823 372 357 824 373 358 825 372 357 826 371 356 827 374 359 828 375 360 829 376 361 830 377 362 831 376 361 832 375 360 833 375 360 834 374 359 835 378 363 836 379 364 837 378 363 838 374 359 839 378 363 840 379 364 841 380 365 842 378 363 843 380 365 844 375 360 845 381 366 846 380 365 847 379 364 848 380 365 849 381 366 850 382 367 851 383 368 852 382 367 853 381 366 854 382 367 855 383 368 856 384 369 857 382 367 858 384 369 859 380 365 860 385 370 861 384 369 862 383 368 863 384 369 864 385 370 865 386 371 866 387 372 867 386 371 868 385 370 869 386 371 870 387 372 871 388 373 872 386 371 873 388 373 874 384 369 875 384 369 876 388 373 877 380 365 878 389 374 879 388 373 880 387 372 881 388 373 882 389 374 883 390 375 884 391 376 885 390 375 886 389 374 887 390 375 888 391 376 889 392 377 890 390 375 891 392 377 892 388 373 893 393 378 894 392 377 895 391 376 896 392 377 897 393 378 898 394 379 899 395 380 900 394 379 901 393 378 902 394 379 903 395 380 904 396 381 905 394 379 906 396 381 907 392 377 908 392 377 909 396 381 910 388 373 911 397 382 912 396 381 913 395 380 914 396 381 915 397 382 916 377 362 917 376 361 918 377 362 919 397 382 920 388 373 921 396 381 922 380 365 923 380 365 924 396 381 925 375 360 926 375 360 927 396 381 928 377 362 929 398 383 930 399 384 931 400 385 932 401 386 933 400 385 934 399 384 935 399 384 936 398 383 937 402 387 938 403 388 939 402 387 940 398 383 941 402 387 942 403 388 943 404 389 944 405 390 945 404 389 946 403 388 947 404 389 948 405 390 949 406 391 950 407 392 951 406 391 952 405 390 953 406 391 954 407 392 955 408 393 956 409 394 957 408 393 958 407 392 959 408 393 960 409 394 961 410 395 962 411 350 963 410 395 964 409 394 965 410 395 966 411 350 967 412 396 968 413 397 969 412 396 970 411 350 971 412 396 972 413 397 973 414 398 974 415 399 975 414 398 976 413 397 977 414 398 978 415 399 979 416 400 980 417 401 981 416 400 982 415 399 983 418 402 984 419 403 985 420 404 986 421 405 987 420 404 988 419 403 989 419 403 990 418 402 991 422 406 992 423 407 993 422 406 994 418 402 995 422 406 996 423 407 997 401 386 998 400 385 999 401 386 1000 423 407 1001 424 408 1002 425 409 1003 426 410 1004 425 409 1005 427 411 1006 426 410 1007 428 412 1008 427 411 1009 425 409 1010 429 413 1011 428 412 1012 425 409 1013 430 414 1014 429 413 1015 425 409 1016 431 415 1017 428 412 1018 429 413 1019 432 416 1020 427 411 1021 428 412 1022 433 417 1023 432 416 1024 428 412 1025 434 418 1026 427 411 1027 432 416 1028 426 410 1029 427 411 1030 435 419 1031 436 420 1032 437 421 1033 438 422 1034 437 421 1035 439 423 1036 438 422 1037 440 424 1038 439 423 1039 437 421 1040 441 425 1041 440 424 1042 437 421 1043 442 426 1044 441 425 1045 437 421 1046 443 427 1047 440 424 1048 441 425 1049 444 428 1050 439 423 1051 440 424 1052 445 429 1053 444 428 1054 440 424 1055 446 430 1056 439 423 1057 444 428 1058 438 422 1059 439 423 1060 447 431 1061 438 422 1062 447 431 1063 448 432 1064 449 433 1065 448 432 1066 447 431 1067 447 431 1068 439 423 1069 449 433 1070 436 420 1071 438 422 1072 450 434 1073 448 432 1074 450 434 1075 438 422 1076 437 421 1077 436 420 1078 451 435 1079 450 434 1080 451 435 1081 436 420 1082 442 426 1083 437 421 1084 452 436 1085 451 435 1086 452 436 1087 437 421 1088 441 425 1089 442 426 1090 453 437 1091 452 436 1092 453 437 1093 442 426 1094 443 427 1095 441 425 1096 454 438 1097 453 437 1098 454 438 1099 441 425 1100 440 424 1101 443 427 1102 455 439 1103 454 438 1104 455 439 1105 443 427 1106 445 429 1107 440 424 1108 456 440 1109 455 439 1110 456 440 1111 440 424 1112 444 428 1113 445 429 1114 457 441 1115 456 440 1116 457 441 1117 445 429 1118 446 430 1119 444 428 1120 458 442 1121 457 441 1122 458 442 1123 444 428 1124 458 442 1125 459 443 1126 446 430 1127 439 423 1128 446 430 1129 459 443 1130 459 443 1131 449 433 1132 439 423 1133 460 444 1134 461 445 1135 462 446 1136 463 447 1137 462 446 1138 461 445 1139 461 445 1140 460 444 1141 464 448 1142 465 449 1143 464 448 1144 460 444 1145 464 448 1146 465 449 1147 466 450 1148 467 451 1149 466 450 1150 465 449 1151 466 450 1152 467 451 1153 468 452 1154 469 453 1155 468 452 1156 467 451 1157 462 446 1158 463 447 1159 470 454 1160 471 455 1161 470 454 1162 463 447 1163 470 454 1164 471 455 1165 472 456 1166 473 457 1167 472 456 1168 471 455 1169 472 456 1170 473 457 1171 474 458 1172 475 459 1173 474 458 1174 473 457 1175 474 458 1176 475 459 1177 476 460 1178 477 461 1179 476 460 1180 475 459 1181 476 460 1182 477 461 1183 478 462 1184 479 463 1185 478 462 1186 477 461 1187 478 462 1188 479 463 1189 480 464 1190 481 465 1191 480 464 1192 479 463 1193 480 464 1194 481 465 1195 482 466 1196 483 467 1197 482 466 1198 481 465 1199 482 466 1200 483 467 1201 484 468 1202 485 469 1203 484 468 1204 483 467 1205 486 470 1206 487 471 1207 488 472 1208 489 473 1209 488 472 1210 487 471 1211 490 474 1212 491 475 1213 492 476 1214 493 477 1215 492 476 1216 491 475 1217 494 478 1218 495 479 1219 496 480 1220 497 481 1221 496 480 1222 495 479 1223 498 482 1224 499 483 1225 500 484 1226 501 485 1227 500 484 1228 499 483 1229 502 486 1230 503 487 1231 504 488 1232 505 489 1233 504 488 1234 503 487 1235 506 490 1236 507 490 1237 508 490 1238 508 490 1239 507 490 1240 509 490 1241 509 490 1242 507 490 1243 510 490 1244 511 491 1245 512 492 1246 513 493 1247 513 493 1248 512 492 1249 514 272 1250 514 272 1251 512 492 1252 515 272 1253</p>
        </triangles>
      </mesh>
    </geometry>
  </library_geometries>
  <library_controllers/>
  <library_visual_scenes>
    <visual_scene id="Scene" name="Scene">
      <node id="MiningStation" name="MiningStation" type="NODE">
        <matrix sid="transform">1 0 0 0 0 1 0 0 0 0 1 0 0 0 0 1</matrix>
        <instance_geometry url="#Superscalar_gas_harvester_0-mesh" name="MiningStation">
          <bind_material>
            <technique_common>
              <instance_material symbol="Mining-material" target="#Mining-material"/>
            </technique_common>
          </bind_material>
        </instance_geometry>
      </node>
    </visual_scene>
  </library_visual_scenes>
  <scene>
    <instance_visual_scene url="#Scene"/>
  </scene>
</COLLADA>